SplineFontDB: 3.0
FontName: Estedad-Medium
FullName: Estedad Medium
FamilyName: Estedad
Weight: Medium
Copyright: Copyright (c) 2017-2018 by Amin Abedi (aminabedi68---www.opentypeshop.com),\nwith Reserved Font Name Estedad.\n\nThis Font Software is licensed under the SIL Open Font License, Version 1.1.
Version: 1.00
StrokeWidth: 100
ItalicAngle: 0
UnderlinePosition: -500
UnderlineWidth: 100
Ascent: 1638
Descent: 410
InvalidEm: 0
sfntRevision: 0x00010000
LayerCount: 2
Layer: 0 0 "Back" 1
Layer: 1 0 "Fore" 0
XUID: [1021 89 1101065813 28845]
StyleMap: 0x0000
FSType: 0
OS2Version: 0
OS2_WeightWidthSlopeOnly: 0
OS2_UseTypoMetrics: 1
CreationTime: 1496828874
ModificationTime: 1535179646
PfmFamily: 17
TTFWeight: 500
TTFWidth: 5
LineGap: 0
VLineGap: 213
OS2TypoAscent: 450
OS2TypoAOffset: 1
OS2TypoDescent: -450
OS2TypoDOffset: 1
OS2TypoLinegap: 0
OS2WinAscent: 450
OS2WinAOffset: 1
OS2WinDescent: 450
OS2WinDOffset: 1
HheadAscent: 450
HheadAOffset: 1
HheadDescent: -450
HheadDOffset: 1
OS2CapHeight: 1400
OS2XHeight: 1012
OS2Vendor: 'AA68'
Lookup: 2 0 0 "Multiple substitution 0" { "Multiple substitution 0 subtable"  } []
Lookup: 2 0 0 "Multiple substitution 1" { "Multiple substitution 1 subtable"  } []
Lookup: 1 9 0 "'fina' Terminal Forms in Arabic lookup 2" { "'fina' Terminal Forms in Arabic lookup 2 subtable"  } ['fina' ('arab' <'FAR ' 'dflt' > ) ]
Lookup: 1 9 0 "'medi' Medial Forms in Arabic lookup 3" { "'medi' Medial Forms in Arabic lookup 3 subtable"  } ['medi' ('arab' <'FAR ' 'dflt' > ) ]
Lookup: 1 9 0 "'init' Initial Forms in Arabic lookup 4" { "'init' Initial Forms in Arabic lookup 4 subtable"  } ['init' ('arab' <'FAR ' 'dflt' > ) ]
Lookup: 4 9 1 "'rlig' Required Ligatures in Arabic lookup 5" { "'rlig' Required Ligatures in Arabic lookup 5 subtable"  } ['rlig' ('arab' <'FAR ' 'dflt' > ) ]
Lookup: 4 0 1 "'ccmp' Glyph Composition/Decomposition lookup 6" { "'ccmp' Glyph Composition/Decomposition lookup 6 subtable"  } ['rlig' ('arab' <'FAR ' 'dflt' > ) ]

StartChar: period
Encoding: 46 46 0
Width: 453
VWidth: 1647
Flags: HMW
LayerCount: 2
Fore
SplineSet
120 106 m 0
 120 165 168 211 227 211 c 0
 286 211 333 165 333 106 c 0
 333 47 286 0 227 0 c 0
 168 0 120 47 120 106 c 0
EndSplineSet
Colour: ff0000
EndChar

StartChar: slash
Encoding: 47 47 1
Width: 1050
VWidth: 1647
Flags: HMW
LayerCount: 2
Fore
SplineSet
782 1442 m 1
 918 1380 l 1
 268 -31 l 1
 132 31 l 1
 782 1442 l 1
EndSplineSet
Colour: ffff
EndChar

StartChar: asterisk
Encoding: 42 42 2
Width: 1133
VWidth: 1647
Flags: HMW
LayerCount: 2
Fore
SplineSet
183 1093 m 1
 217 1197 l 1
 511 1101 l 1
 511 1411 l 1
 621 1411 l 1
 621 1101 l 1
 916 1197 l 1
 950 1093 l 1
 655 996 l 1
 838 745 l 1
 750 681 l 1
 566 932 l 1
 383 681 l 1
 295 745 l 1
 477 996 l 1
 183 1093 l 1
EndSplineSet
Colour: ff00ff
EndChar

StartChar: parenleft
Encoding: 40 40 3
Width: 598
VWidth: 1647
Flags: HMW
LayerCount: 2
Fore
SplineSet
461 40 m 1
 335 -40 l 1
 199 174 125 414 125 706 c 0
 125 998 199 1238 335 1451 c 1
 461 1371 l 1
 339 1180 275 972 275 706 c 0
 275 440 339 230 461 40 c 1
EndSplineSet
Colour: ffff
EndChar

StartChar: parenright
Encoding: 41 41 4
Width: 598
VWidth: 1647
Flags: HMW
LayerCount: 2
Fore
SplineSet
137 1371 m 1
 263 1451 l 1
 399 1237 473 997 473 705 c 0
 473 413 399 173 263 -40 c 1
 137 40 l 1
 259 231 323 439 323 705 c 0
 323 971 259 1181 137 1371 c 1
EndSplineSet
Colour: ffff
EndChar

StartChar: uni0660
Encoding: 1632 1632 5
Width: 845
VWidth: 1854
Flags: HMW
LayerCount: 2
Fore
SplineSet
422 498 m 0
 339 498 275 434 275 351 c 0
 275 267 340 202 422 202 c 0
 504 202 570 268 570 351 c 0
 570 433 505 498 422 498 c 0
422 648 m 0
 587 648 720 517 720 351 c 0
 720 186 588 52 422 52 c 0
 256 52 125 187 125 351 c 0
 125 516 257 648 422 648 c 0
EndSplineSet
PairPos2: "'kern' Horizontal Kerning in Arabic lookup 3 per glyph data 0" uni0667 dx=-100 dy=0 dh=-100 dv=0 dx=0 dy=0 dh=0 dv=0
PairPos2: "'kern' Horizontal Kerning in Arabic lookup 3 per glyph data 0" uni0666 dx=-100 dy=0 dh=-100 dv=0 dx=0 dy=0 dh=0 dv=0
PairPos2: "'kern' Horizontal Kerning in Arabic lookup 3 per glyph data 0" uni0662 dx=-125 dy=0 dh=-125 dv=0 dx=0 dy=0 dh=0 dv=0
Colour: ffff
EndChar

StartChar: uni0661
Encoding: 1633 1633 6
Width: 618
VWidth: 1854
Flags: HMW
LayerCount: 2
Fore
SplineSet
493 0 m 1
 343 0 l 1
 343 456 259 967 128 1389 c 1
 272 1433 l 1
 407 997 493 474 493 0 c 1
EndSplineSet
Colour: ffff
EndChar

StartChar: uni0662
Encoding: 1634 1634 7
Width: 1086
VWidth: 1854
Flags: HMW
LayerCount: 2
Fore
SplineSet
272 1433 m 1
 302 1325 339 1193 381 1100 c 0
 442 969 495 950 587 950 c 0
 667 950 720 986 753 1047 c 0
 802 1136 811 1280 811 1444 c 1
 961 1444 l 1
 961 1294 959 1070 859 930 c 0
 804 852 718 800 587 800 c 0
 529 800 470 809 415 838 c 1
 465 560 493 272 493 0 c 1
 343 0 l 1
 343 460 250 994 128 1389 c 1
 272 1433 l 1
EndSplineSet
Colour: ffff
EndChar

StartChar: uni0663
Encoding: 1635 1635 8
Width: 1473
VWidth: 1854
Flags: HMW
LayerCount: 2
Fore
SplineSet
873 1201 m 0
 873 1041 903 955 1031 955 c 0
 1157 955 1198 1029 1198 1209 c 0
 1198 1275 1192 1342 1181 1396 c 1
 1328 1426 l 1
 1341 1360 1348 1285 1348 1209 c 0
 1348 1013 1279 805 1031 805 c 0
 916 805 828 856 779 938 c 1
 730 860 647 805 538 805 c 0
 496 805 455 812 417 828 c 1
 465 553 493 268 493 0 c 1
 343 0 l 1
 343 461 250 995 128 1389 c 1
 272 1433 l 1
 302 1323 341 1185 382 1088 c 0
 430 975 462 955 538 955 c 0
 631 955 673 1017 704 1167 c 0
 719 1241 729 1333 738 1419 c 1
 888 1406 l 1
 883 1340 873 1265 873 1201 c 0
EndSplineSet
Colour: ffff
EndChar

StartChar: uni0664
Encoding: 1636 1636 9
Width: 1057
VWidth: 1854
Flags: HMW
LayerCount: 2
Fore
SplineSet
533 0 m 2
 311 0 125 136 125 377 c 0
 125 578 234 727 385 811 c 1
 299 861 246 951 246 1070 c 0
 246 1311 484 1387 724 1387 c 1
 724 1237 l 1
 605 1237 523 1220 471 1191 c 0
 418 1162 396 1120 396 1070 c 0
 396 932 497 896 731 896 c 1
 731 746 l 1
 491 746 275 622 275 377 c 0
 275 220 379 150 533 150 c 2
 857 150 l 1
 857 0 l 1
 533 0 l 2
EndSplineSet
Colour: ffff
EndChar

StartChar: uni0665
Encoding: 1637 1637 10
Width: 1196
VWidth: 1854
Flags: HMW
LayerCount: 2
Fore
SplineSet
513 1454 m 1
 774 1212 1071 861 1071 403 c 0
 1071 140 870 0 601 0 c 0
 336 0 125 145 125 443 c 0
 125 752 252 1010 493 1265 c 1
 466 1293 438 1319 411 1344 c 1
 513 1454 l 1
595 1155 m 1
 375 920 275 705 275 443 c 0
 275 237 392 150 601 150 c 0
 822 150 921 238 921 403 c 0
 921 695 772 950 595 1155 c 1
EndSplineSet
PairPos2: "'kern' Horizontal Kerning in Arabic lookup 3 per glyph data 0" uni0667 dx=-100 dy=0 dh=-100 dv=0 dx=0 dy=0 dh=0 dv=0
PairPos2: "'kern' Horizontal Kerning in Arabic lookup 3 per glyph data 0" uni0666 dx=-50 dy=0 dh=-50 dv=0 dx=0 dy=0 dh=0 dv=0
Colour: ffff
EndChar

StartChar: uni0666
Encoding: 1638 1638 11
Width: 1168
VWidth: 1854
Flags: HMW
LayerCount: 2
Fore
SplineSet
184 1287 m 1
 216 1433 l 1
 337 1406 483 1393 618 1393 c 0
 702 1393 784 1400 848 1410 c 2
 939 1425 l 1
 935 1333 l 2
 931 1240 929 1153 929 1068 c 0
 929 705 966 398 1042 14 c 1
 895 -14 l 1
 818 376 779 695 779 1068 c 0
 779 1128 780 1188 782 1251 c 1
 732 1246 675 1243 618 1243 c 0
 473 1243 319 1258 184 1287 c 1
EndSplineSet
PairPos2: "'kern' Horizontal Kerning in Arabic lookup 3 per glyph data 0" uni0660 dx=-100 dy=0 dh=-100 dv=0 dx=0 dy=0 dh=0 dv=0
PairPos2: "'kern' Horizontal Kerning in Arabic lookup 3 per glyph data 0" uni066B dx=-150 dy=0 dh=-150 dv=0 dx=0 dy=0 dh=0 dv=0
PairPos2: "'kern' Horizontal Kerning in Arabic lookup 3 per glyph data 0" uni0668 dx=-100 dy=0 dh=-100 dv=0 dx=0 dy=0 dh=0 dv=0
Colour: ffff
EndChar

StartChar: uni0667
Encoding: 1639 1639 12
Width: 1315
VWidth: 1854
Flags: HMW
LayerCount: 2
Fore
SplineSet
1053 1414 m 1
 1177 1328 l 1
 949 1000 840 691 737 63 c 2
 727 -0 l 1
 589 0 l 1
 579 63 l 2
 476 691 366 1000 138 1328 c 1
 262 1414 l 1
 453 1139 567 867 658 454 c 1
 748 866 862 1139 1053 1414 c 1
EndSplineSet
PairPos2: "'kern' Horizontal Kerning in Arabic lookup 3 per glyph data 0" uni0660 dx=-100 dy=0 dh=-100 dv=0 dx=0 dy=0 dh=0 dv=0
PairPos2: "'kern' Horizontal Kerning in Arabic lookup 3 per glyph data 0" uni0665 dx=-100 dy=0 dh=-100 dv=0 dx=0 dy=0 dh=0 dv=0
PairPos2: "'kern' Horizontal Kerning in Arabic lookup 3 per glyph data 0" uni0668 dx=-150 dy=0 dh=-150 dv=0 dx=0 dy=0 dh=0 dv=0
PairPos2: "'kern' Horizontal Kerning in Arabic lookup 3 per glyph data 0" uni066B dx=-125 dy=0 dh=-125 dv=0 dx=0 dy=0 dh=0 dv=0
Colour: ffff
EndChar

StartChar: uni0668
Encoding: 1640 1640 13
Width: 1315
VWidth: 1854
Flags: HMW
LayerCount: 2
Fore
SplineSet
262 -3 m 1
 138 83 l 1
 366 411 475 720 578 1348 c 2
 588 1411 l 1
 726 1411 l 1
 736 1348 l 2
 839 720 949 411 1177 83 c 1
 1053 -3 l 1
 862 272 748 544 657 957 c 1
 567 545 453 272 262 -3 c 1
EndSplineSet
PairPos2: "'kern' Horizontal Kerning in Arabic lookup 3 per glyph data 0" uni0663 dx=-100 dy=0 dh=-100 dv=0 dx=0 dy=0 dh=0 dv=0
PairPos2: "'kern' Horizontal Kerning in Arabic lookup 3 per glyph data 0" uni0662 dx=-100 dy=0 dh=-100 dv=0 dx=0 dy=0 dh=0 dv=0
PairPos2: "'kern' Horizontal Kerning in Arabic lookup 3 per glyph data 0" uni0667 dx=-150 dy=0 dh=-150 dv=0 dx=0 dy=0 dh=0 dv=0
Colour: ffff
EndChar

StartChar: uni0669
Encoding: 1641 1641 14
Width: 1095
VWidth: 1854
Flags: HMW
LayerCount: 2
Fore
SplineSet
803 828 m 0
 803 495 856 212 959 38 c 1
 831 -38 l 1
 720 147 668 400 656 696 c 1
 607 686 556 680 501 680 c 0
 315 680 125 755 125 981 c 0
 125 1187 267 1407 467 1407 c 0
 771 1407 803 1008 803 828 c 0
653 849 m 1
 649 1061 588 1257 467 1257 c 0
 389 1257 275 1137 275 981 c 0
 275 873 339 830 501 830 c 0
 555 830 604 837 653 849 c 1
EndSplineSet
PairPos2: "'kern' Horizontal Kerning in Arabic lookup 3 per glyph data 0" uni066B dx=-75 dy=0 dh=-75 dv=0 dx=0 dy=0 dh=0 dv=0
PairPos2: "'kern' Horizontal Kerning in Arabic lookup 3 per glyph data 0" uni0668 dx=-150 dy=0 dh=-150 dv=0 dx=0 dy=0 dh=0 dv=0
PairPos2: "'kern' Horizontal Kerning in Arabic lookup 3 per glyph data 0" uni0665 dx=-50 dy=0 dh=-50 dv=0 dx=0 dy=0 dh=0 dv=0
Colour: ffff
EndChar

StartChar: uni06F4
Encoding: 1780 1780 19
Width: 1179
VWidth: 1854
Flags: HMW
LayerCount: 2
Fore
SplineSet
343 -0 m 1
 343 459 252 994 130 1389 c 1
 274 1433 l 1
 308 1322 338 1228 367 1154 c 1
 420 1327 579 1424 742 1424 c 0
 814 1424 874 1417 943 1401 c 1
 909 1255 l 1
 848 1269 806 1274 742 1274 c 0
 613 1274 498 1190 498 1024 c 0
 498 931 532 887 638 871 c 0
 673 866 713 864 761 864 c 0
 816 864 901 870 962 876 c 1
 976 726 l 1
 912 720 826 714 761 714 c 0
 622 714 512 736 423 801 c 1
 468 534 493 259 493 0 c 1
 343 -0 l 1
EndSplineSet
PairPos2: "'kern' Horizontal Kerning in Arabic lookup 3 per glyph data 1" uni06F0 dx=-25 dy=0 dh=-25 dv=0 dx=0 dy=0 dh=0 dv=0
PairPos2: "'kern' Horizontal Kerning in Arabic lookup 3 per glyph data 1" uni06F8 dx=-125 dy=0 dh=-125 dv=0 dx=0 dy=0 dh=0 dv=0
Colour: ffff
EndChar

StartChar: uni06F5
Encoding: 1781 1781 20
Width: 1276
VWidth: 1854
Flags: HMW
LayerCount: 2
Fore
SplineSet
527 1269 m 1
 500 1293 471 1317 442 1340 c 1
 534 1458 l 1
 588 1416 639 1372 687 1325 c 0
 975 1043 1151 687 1151 404 c 0
 1151 147 1015 0 852 0 c 0
 774 0 699 34 646 93 c 1
 590 33 514 0 434 0 c 0
 266 0 125 151 125 420 c 0
 125 647 225 991 527 1269 c 1
723 291 m 2
 723 206 786 150 852 150 c 0
 909 150 1001 195 1001 404 c 0
 1001 612 868 913 634 1164 c 1
 361 916 275 607 275 420 c 0
 275 199 372 150 434 150 c 0
 504 150 573 206 573 291 c 2
 573 346 l 1
 723 346 l 1
 723 291 l 2
EndSplineSet
PairPos2: "'kern' Horizontal Kerning in Arabic lookup 3 per glyph data 1" uni06F2 dx=-25 dy=0 dh=-25 dv=0 dx=0 dy=0 dh=0 dv=0
PairPos2: "'kern' Horizontal Kerning in Arabic lookup 3 per glyph data 1" uni06F3 dx=-25 dy=0 dh=-25 dv=0 dx=0 dy=0 dh=0 dv=0
PairPos2: "'kern' Horizontal Kerning in Arabic lookup 3 per glyph data 1" uni06F7 dx=-100 dy=0 dh=-100 dv=0 dx=0 dy=0 dh=0 dv=0
PairPos2: "'kern' Horizontal Kerning in Arabic lookup 3 per glyph data 1" uni06F9 dx=-75 dy=0 dh=-75 dv=0 dx=0 dy=0 dh=0 dv=0
Colour: ffff
EndChar

StartChar: uni06F6
Encoding: 1782 1782 21
Width: 1034
VWidth: 1854
Flags: HMW
LayerCount: 2
Fore
SplineSet
793 1302 m 1
 691 1192 l 1
 652 1229 591 1262 514 1262 c 0
 382 1262 281 1168 281 1015 c 0
 281 891 398 821 565 821 c 0
 650 821 735 843 790 877 c 2
 845 911 l 1
 944 792 l 1
 876 745 l 2
 641 585 358 290 272 -20 c 1
 128 20 l 1
 198 272 368 498 549 671 c 1
 361 676 131 770 131 1015 c 0
 131 1246 300 1412 514 1412 c 0
 635 1412 730 1361 793 1302 c 1
EndSplineSet
Colour: ffff
EndChar

StartChar: uni0654
Encoding: 1620 1620 25
Width: 0
VWidth: 1854
Flags: HMW
AnchorPoint: "Anchor-1" 0 1598 basemark 0
AnchorPoint: "Anchor-1" 1 1209 mark 0
AnchorPoint: "Anchor-4" 1 1209 mark 0
AnchorPoint: "Anchor-5" 1 1209 mark 0
LayerCount: 2
Fore
SplineSet
-202 1522 m 1
 -240 1604 l 1
 -149 1645 l 1
 -188 1694 -208 1752 -208 1806 c 0
 -208 1908 -131 1997 0 1997 c 2
 82 1997 l 1
 82 1907 l 1
 0 1907 l 2
 -87 1907 -118 1860 -118 1806 c 0
 -118 1769 -100 1722 -63 1684 c 1
 157 1784 l 1
 195 1702 l 1
 -202 1522 l 1
EndSplineSet
Colour: ff00
EndChar

StartChar: uni0653
Encoding: 1619 1619 27
Width: 0
VWidth: 1854
Flags: HMW
AnchorPoint: "Anchor-1" 0 1598 basemark 0
AnchorPoint: "Anchor-1" 1 1209 mark 0
AnchorPoint: "Anchor-4" 1 1209 mark 0
AnchorPoint: "Anchor-5" 1 1209 mark 0
LayerCount: 2
Fore
SplineSet
185 1695 m 1
 267 1661 l 1
 239 1595 180 1527 94 1527 c 0
 56 1527 16 1541 -21 1570 c 0
 -45 1588 -65 1594 -79 1594 c 0
 -113 1594 -150 1562 -171 1519 c 1
 -252 1559 l 1
 -223 1618 -165 1684 -79 1684 c 0
 -41 1684 -3 1670 33 1642 c 0
 58 1623 78 1617 94 1617 c 0
 128 1617 165 1647 185 1695 c 1
EndSplineSet
Colour: ff00
EndChar

StartChar: uni0652
Encoding: 1618 1618 28
Width: 0
VWidth: 1854
Flags: HMW
AnchorPoint: "Anchor-1" 0 1598 basemark 0
AnchorPoint: "Anchor-1" 1 1209 mark 0
AnchorPoint: "Anchor-4" 1 1209 mark 0
AnchorPoint: "Anchor-5" 1 1209 mark 0
LayerCount: 2
Fore
SplineSet
0 1807 m 0
 -61 1807 -108 1760 -108 1699 c 0
 -108 1638 -61 1590 0 1590 c 0
 60 1590 109 1639 109 1699 c 0
 109 1759 61 1807 0 1807 c 0
0 1897 m 0
 109 1897 199 1809 199 1699 c 0
 199 1589 110 1500 0 1500 c 0
 -111 1500 -198 1590 -198 1699 c 0
 -198 1808 -111 1897 0 1897 c 0
EndSplineSet
Colour: ff00
EndChar

StartChar: uni0651
Encoding: 1617 1617 29
Width: 0
VWidth: 1854
Flags: HMW
AnchorPoint: "Anchor-1" 0 1598 basemark 0
AnchorPoint: "Anchor-1" 0 1209 mark 0
AnchorPoint: "Anchor-4" 0 1209 mark 0
AnchorPoint: "Anchor-5" 0 1209 mark 0
LayerCount: 2
Fore
SplineSet
143 1872 m 1
 227 1902 l 1
 247 1848 261 1794 261 1726 c 0
 261 1627 202 1559 124 1559 c 0
 77 1559 31 1584 0 1627 c 1
 -32 1583 -77 1559 -124 1559 c 0
 -202 1559 -261 1627 -261 1726 c 0
 -261 1794 -247 1849 -227 1903 c 1
 -143 1871 l 1
 -161 1821 -171 1782 -171 1726 c 0
 -171 1661 -142 1649 -124 1649 c 0
 -103 1649 -69 1666 -53 1721 c 0
 -48 1738 -45 1758 -45 1782 c 2
 -45 1857 l 1
 45 1857 l 1
 45 1782 l 2
 45 1758 48 1737 53 1720 c 0
 69 1666 103 1649 124 1649 c 0
 142 1649 171 1661 171 1726 c 0
 171 1782 161 1822 143 1872 c 1
EndSplineSet
Colour: ff00
EndChar

StartChar: uni064E
Encoding: 1614 1614 30
Width: 0
VWidth: 1854
Flags: HMW
AnchorPoint: "Anchor-1" 0 1598 basemark 0
AnchorPoint: "Anchor-1" 1 1209 mark 0
AnchorPoint: "Anchor-4" 1 1209 mark 0
AnchorPoint: "Anchor-5" 1 1209 mark 0
LayerCount: 2
Fore
SplineSet
157 1784 m 1
 195 1702 l 1
 -202 1522 l 1
 -240 1604 l 1
 157 1784 l 1
EndSplineSet
Colour: ff00
EndChar

StartChar: uni064F
Encoding: 1615 1615 31
Width: 0
VWidth: 1854
Flags: HMW
AnchorPoint: "Anchor-1" 0 1598 basemark 0
AnchorPoint: "Anchor-1" 1 1209 mark 0
AnchorPoint: "Anchor-4" 1 1209 mark 0
AnchorPoint: "Anchor-5" 1 1209 mark 0
LayerCount: 2
Fore
SplineSet
-8 1671 m 1
 -74 1700 -143 1751 -143 1836 c 0
 -143 1932 -56 2004 26 2004 c 0
 128 2004 172 1908 172 1845 c 0
 172 1770 141 1702 95 1648 c 0
 21 1560 -92 1501 -201 1482 c 1
 -217 1570 l 1
 -145 1583 -66 1620 -8 1671 c 1
53 1744 m 1
 72 1776 82 1810 82 1845 c 0
 82 1880 58 1914 26 1914 c 0
 -8 1914 -53 1876 -53 1836 c 0
 -53 1805 -18 1769 53 1744 c 1
EndSplineSet
Colour: ff00
EndChar

StartChar: uni064C
Encoding: 1612 1612 34
Width: 0
VWidth: 1854
Flags: HMW
AnchorPoint: "Anchor-1" 0 1598 basemark 0
AnchorPoint: "Anchor-1" 1 1209 mark 0
AnchorPoint: "Anchor-4" 1 1209 mark 0
AnchorPoint: "Anchor-5" 1 1209 mark 0
LayerCount: 2
Fore
SplineSet
-175 1707 m 1
 -249 1657 l 1
 -287 1713 -309 1780 -309 1852 c 0
 -309 2046 -152 2203 42 2203 c 1
 42 2113 l 1
 -102 2113 -219 1996 -219 1852 c 0
 -219 1798 -203 1749 -175 1707 c 1
EndSplineSet
Refer: 31 1615 N 1 0 0 1 0 0 2
Colour: ff00
EndChar

StartChar: GAFbar
Encoding: 1114122 -1 46
Width: 999
VWidth: 1854
Flags: HMW
LayerCount: 2
Fore
SplineSet
818 1852 m 1
 825 1816 833 1780 840 1744 c 1
 584 1691 324 1589 105 1449 c 1
 85 1480 65 1510 45 1541 c 1
 276 1689 550 1797 818 1852 c 1
EndSplineSet
Colour: ff00ff
EndChar

StartChar: dotlessfinalBEH
Encoding: 1114123 -1 47
Width: 1973
VWidth: 1854
Flags: HMW
AnchorPoint: "Anchor-5" 944 823 basechar 0
AnchorPoint: "Anchor-3" 767 -4 basechar 0
LayerCount: 2
Fore
SplineSet
167 707 m 1
 213 688 259 670 305 651 c 1
 273 573 252 471 252 413 c 0
 252 237 407 152 767 152 c 0
 1237 152 1541 252 1605 514 c 2
 1630 613 l 1
 1776 576 l 1
 1752 478 l 2
 1737 415 1726 358 1726 310 c 0
 1726 218 1745 150 1973 150 c 1
 1973 100 1973 50 1973 0 c 1
 1758 0 1628 75 1589 211 c 1
 1402 48 1103 2 767 2 c 0
 411 2 102 93 102 413 c 0
 102 500 128 611 167 707 c 1
EndSplineSet
Colour: ffff
EndChar

StartChar: dotlessinitialFEH
Encoding: 1114124 -1 48
Width: 871
VWidth: 1854
Flags: HMW
AnchorPoint: "Anchor-5" 413 1073 basechar 0
AnchorPoint: "Anchor-3" 372 -4 basechar 0
LayerCount: 2
Fore
SplineSet
0 0 m 0
 -41 0 -74 34 -74 75 c 0
 -74 116 -41 150 0 150 c 0
 380 150 577 176 612 369 c 1
 556 355 496 347 431 347 c 0
 252 347 80 430 80 651 c 0
 80 848 210 1073 413 1073 c 0
 734 1073 768 617 768 446 c 0
 768 18 384 0 0 0 c 0
615 525 m 1
 600 734 529 923 413 923 c 0
 336 923 230 804 230 651 c 0
 230 536 288 497 431 497 c 0
 499 497 556 507 615 525 c 1
EndSplineSet
Colour: ffff
EndChar

StartChar: dotlessfinalFEH
Encoding: 1114125 -1 49
Width: 1876
VWidth: 2374
Flags: HMW
AnchorPoint: "Anchor-5" 1406 887 basechar 0
AnchorPoint: "Anchor-3" 891 0 basechar 0
LayerCount: 2
Fore
SplineSet
1417 67 m 1
 1270 17 1090 0 891 0 c 0
 503 0 104 39 104 400 c 0
 104 514 138 619 166 703 c 1
 213 687 261 671 308 655 c 1
 281 572 254 484 254 400 c 0
 254 207 463 150 891 150 c 0
 1015 150 1129 157 1227 174 c 1
 1140 250 1087 358 1087 489 c 0
 1087 706 1230 840 1422 840 c 0
 1611 840 1757 707 1757 489 c 0
 1757 356 1704 247 1612 171 c 1
 1693 157 1783 150 1876 150 c 1
 1876 100 1876 50 1876 0 c 1
 1711 0 1548 20 1417 67 c 1
1419 228 m 1
 1537 279 1607 357 1607 489 c 0
 1607 631 1533 690 1422 690 c 0
 1308 690 1237 632 1237 489 c 0
 1237 359 1307 280 1419 228 c 1
EndSplineSet
Colour: ffff
EndChar

StartChar: dotlessmedialFEH
Encoding: 1114126 -1 50
Width: 908
VWidth: 1870
Flags: HMW
LayerCount: 2
Fore
SplineSet
0 150 m 0
 93 150 182 157 263 171 c 1
 174 247 119 355 119 489 c 0
 119 706 262 840 454 840 c 0
 643 840 789 707 789 489 c 0
 789 355 734 247 645 171 c 1
 726 157 815 150 908 150 c 1
 908 100 908 50 908 0 c 1
 745 0 584 19 454 65 c 1
 324 19 163 0 0 0 c 0
 -41 0 -74 34 -74 75 c 0
 -74 116 -41 150 0 150 c 0
454 227 m 1
 567 279 639 358 639 489 c 0
 639 631 565 690 454 690 c 0
 340 690 269 632 269 489 c 0
 269 358 340 280 454 227 c 1
EndSplineSet
Colour: ffff
EndChar

StartChar: dotlessfinalQAF
Encoding: 1114127 -1 51
Width: 1505
VWidth: 1854
Flags: HMW
AnchorPoint: "Anchor-3" 728 -504 basechar 0
AnchorPoint: "Anchor-5" 1047 726 basechar 0
LayerCount: 2
Fore
SplineSet
1505 150 m 1
 1505 100 1505 50 1505 0 c 1
 1395 -0 l 1
 1344 -342 1038 -504 728 -504 c 0
 423 -504 103 -340 103 -3 c 0
 103 236 222 446 332 597 c 1
 372 568 414 538 454 509 c 1
 352 368 253 184 253 -3 c 0
 253 -220 459 -354 728 -354 c 0
 987 -354 1198 -231 1243 0 c 1
 1065 0 l 2
 886 0 714 83 714 304 c 0
 714 501 844 726 1047 726 c 0
 1344 726 1393 332 1401 150 c 1
 1505 150 l 1
1251 150 m 1
 1241 362 1170 576 1047 576 c 0
 970 576 864 457 864 304 c 0
 864 189 922 150 1065 150 c 2
 1251 150 l 1
EndSplineSet
Colour: ffff
EndChar

StartChar: dotlessinitialNOON
Encoding: 1114128 -1 52
Width: 1740
VWidth: 1854
Flags: HMW
AnchorPoint: "Anchor-3" 758 -502 basechar 0
AnchorPoint: "Anchor-5" 877 773 basechar 0
LayerCount: 2
Fore
SplineSet
306 591 m 1
 348 565 392 537 434 511 c 1
 319 327 253 144 253 1 c 0
 253 -215 478 -353 759 -353 c 0
 1062 -353 1339 -193 1339 86 c 0
 1339 154 1324 233 1289 324 c 2
 1199 556 l 1
 1339 610 l 1
 1378 512 1416 413 1455 315 c 0
 1467 279 1480 251 1495 232 c 0
 1534 183 1604 149 1740 149 c 1
 1740 99 1740 49 1740 -1 c 1
 1642 -1 1558 14 1488 49 c 1
 1463 -330 1088 -503 759 -503 c 0
 448 -503 103 -343 103 1 c 0
 103 188 183 393 306 591 c 1
EndSplineSet
Colour: ffff
EndChar

StartChar: uniFEFB
Encoding: 65275 65275 54
Width: 959
VWidth: 1854
Flags: HMW
AnchorPoint: "Anchor-4" 41 1346 baselig 1
AnchorPoint: "Anchor-4" 844 1411 baselig 0
AnchorPoint: "Anchor-2" 178 0 baselig 1
AnchorPoint: "Anchor-2" 832 0 baselig 0
LayerCount: 2
Fore
SplineSet
530 696 m 1
 388 918 180 1157 -2 1284 c 1
 84 1408 l 1
 275 1275 469 1054 616 838 c 1
 707 1007 769 1199 769 1411 c 1
 919 1411 l 1
 919 1139 829 896 707 694 c 1
 795 544 856 407 856 296 c 0
 856 50 639 0 477 0 c 0
 324 0 200 47 103 108 c 1
 103 249 l 1
 242 363 396 500 530 696 c 1
613 555 m 1
 502 405 377 281 267 189 c 1
 324 166 401 150 477 150 c 0
 631 150 706 180 706 296 c 0
 706 341 674 441 613 555 c 1
EndSplineSet
PairPos2: "'kern' Horizontal Kerning in Arabic lookup 2 per glyph data 0" uni0686 dx=-150 dy=0 dh=-150 dv=0 dx=0 dy=0 dh=0 dv=0
PairPos2: "'kern' Horizontal Kerning in Arabic lookup 2 per glyph data 0" uni063A dx=-350 dy=0 dh=-350 dv=0 dx=0 dy=0 dh=0 dv=0
PairPos2: "'kern' Horizontal Kerning in Arabic lookup 2 per glyph data 0" uni0639 dx=-350 dy=0 dh=-350 dv=0 dx=0 dy=0 dh=0 dv=0
PairPos2: "'kern' Horizontal Kerning in Arabic lookup 2 per glyph data 0" uni062E dx=-150 dy=0 dh=-150 dv=0 dx=0 dy=0 dh=0 dv=0
PairPos2: "'kern' Horizontal Kerning in Arabic lookup 2 per glyph data 0" uni062D dx=-150 dy=0 dh=-150 dv=0 dx=0 dy=0 dh=0 dv=0
PairPos2: "'kern' Horizontal Kerning in Arabic lookup 2 per glyph data 0" uni062C dx=-150 dy=0 dh=-150 dv=0 dx=0 dy=0 dh=0 dv=0
LCarets2: 1 0
Ligature2: "'rlig' Required Ligatures in Arabic lookup 5 subtable" uniFEDF uniFE8E
Colour: ffff
EndChar

StartChar: uniFEFC
Encoding: 65276 65276 55
Width: 1450
VWidth: 1854
Flags: HMW
AnchorPoint: "Anchor-2" 1054 0 baselig 0
AnchorPoint: "Anchor-2" 344 0 baselig 1
AnchorPoint: "Anchor-4" 1066 1411 baselig 0
AnchorPoint: "Anchor-4" 229 1411 baselig 1
LayerCount: 2
Fore
SplineSet
1450 0 m 1
 1253 0 1111 66 1043 211 c 1
 903 49 613 0 178 0 c 1
 178 150 l 1
 829 150 991 243 991 516 c 2
 991 1411 l 1
 1141 1411 l 1
 1141 517 l 2
 1141 376 1165 284 1206 232 c 0
 1245 183 1314 150 1450 150 c 1
 1450 0 l 1
682 397 m 1
 533 376 l 1
 489 698 362 1059 177 1300 c 1
 296 1392 l 1
 504 1122 635 740 682 397 c 1
EndSplineSet
PairPos2: "'kern' Horizontal Kerning in Arabic lookup 2 per glyph data 0" uni0686 dx=-150 dy=0 dh=-150 dv=0 dx=0 dy=0 dh=0 dv=0
PairPos2: "'kern' Horizontal Kerning in Arabic lookup 2 per glyph data 0" uni063A dx=-350 dy=0 dh=-350 dv=0 dx=0 dy=0 dh=0 dv=0
PairPos2: "'kern' Horizontal Kerning in Arabic lookup 2 per glyph data 0" uni0639 dx=-350 dy=0 dh=-350 dv=0 dx=0 dy=0 dh=0 dv=0
PairPos2: "'kern' Horizontal Kerning in Arabic lookup 2 per glyph data 0" uni062E dx=-150 dy=0 dh=-150 dv=0 dx=0 dy=0 dh=0 dv=0
PairPos2: "'kern' Horizontal Kerning in Arabic lookup 2 per glyph data 0" uni062D dx=-150 dy=0 dh=-150 dv=0 dx=0 dy=0 dh=0 dv=0
PairPos2: "'kern' Horizontal Kerning in Arabic lookup 2 per glyph data 0" uni062C dx=-150 dy=0 dh=-150 dv=0 dx=0 dy=0 dh=0 dv=0
LCarets2: 1 0
Ligature2: "'rlig' Required Ligatures in Arabic lookup 5 subtable" uniFEE0 uniFE8E
Colour: ffff
EndChar

StartChar: uni060C
Encoding: 1548 1548 62
Width: 558
VWidth: 1854
Flags: HMW
LayerCount: 2
Fore
SplineSet
276 635 m 1
 353 581 l 1
 300 520 235 390 235 295 c 1
 338 295 438 253 438 151 c 0
 438 81 399 0 286 0 c 0
 177 0 120 77 120 190 c 0
 120 392 196 537 276 635 c 1
EndSplineSet
EndChar

StartChar: uni0615
Encoding: 1557 1557 64
Width: 0
VWidth: 1854
Flags: HMW
AnchorPoint: "Anchor-5" 1 1209 mark 0
AnchorPoint: "Anchor-4" 1 1209 mark 0
AnchorPoint: "Anchor-1" 1 1209 mark 0
AnchorPoint: "Anchor-1" 0 1598 basemark 0
LayerCount: 2
Fore
SplineSet
547 1516 m 0
 547 1338 331 1331 119 1329 c 2
 0 1329 l 1
 0 1419 l 1
 105 1419 l 1
 105 1837 l 1
 195 1837 l 1
 195 1560 l 1
 256 1629 326 1665 394 1665 c 0
 477 1665 547 1607 547 1516 c 0
206 1421 m 1
 401 1428 457 1458 457 1516 c 0
 457 1555 435 1575 394 1575 c 0
 347 1575 270 1535 206 1421 c 1
EndSplineSet
Colour: ff00
EndChar

StartChar: less
Encoding: 60 60 66
Width: 775
VWidth: 1819
Flags: HMW
LayerCount: 2
Fore
SplineSet
559 1165 m 1
 635 1085 l 1
 258 728 l 1
 635 370 l 1
 559 290 l 1
 98 728 l 1
 559 1165 l 1
EndSplineSet
Colour: ff00ff
EndChar

StartChar: greater
Encoding: 62 62 68
Width: 775
VWidth: 1819
Flags: HMW
LayerCount: 2
Fore
SplineSet
174 290 m 1
 98 370 l 1
 475 727 l 1
 98 1085 l 1
 174 1165 l 1
 635 727 l 1
 174 290 l 1
EndSplineSet
Colour: ff00
EndChar

StartChar: braceleft
Encoding: 123 123 69
Width: 656
VWidth: 1647
Flags: HMW
LayerCount: 2
Fore
SplineSet
556 130 m 1
 556 0 l 1
 422 0 l 2
 300 0 210 81 210 189 c 2
 210 465 l 2
 210 557 150 617 76 638 c 2
 25 653 l 1
 25 757 l 1
 76 772 l 2
 150 793 210 853 210 945 c 2
 210 1221 l 2
 210 1329 300 1411 422 1411 c 2
 556 1411 l 1
 556 1281 l 1
 422 1281 l 2
 382 1281 360 1265 360 1221 c 2
 360 945 l 2
 360 845 312 761 238 705 c 1
 311 650 360 565 360 465 c 2
 360 189 l 2
 360 145 382 130 422 130 c 2
 556 130 l 1
EndSplineSet
Colour: ffff00
EndChar

StartChar: braceright
Encoding: 125 125 70
Width: 656
VWidth: 1647
Flags: HMW
LayerCount: 2
Fore
SplineSet
100 1281 m 1
 100 1411 l 1
 234 1411 l 2
 356 1411 446 1330 446 1222 c 2
 446 946 l 2
 446 854 506 794 580 773 c 2
 631 758 l 1
 631 654 l 1
 580 639 l 2
 506 618 446 558 446 466 c 2
 446 190 l 2
 446 82 356 0 234 0 c 2
 100 0 l 1
 100 130 l 1
 234 130 l 2
 274 130 296 146 296 190 c 2
 296 466 l 2
 296 566 344 650 418 706 c 1
 345 761 296 846 296 946 c 2
 296 1222 l 2
 296 1266 274 1281 234 1281 c 2
 100 1281 l 1
EndSplineSet
Colour: ffff00
EndChar

StartChar: uni061F
Encoding: 1567 1567 73
Width: 1067
VWidth: 1854
Flags: HMW
LayerCount: 2
Fore
SplineSet
936 939 m 1
 788 957 l 1
 791 979 792 1000 792 1024 c 0
 792 1183 709 1281 539 1281 c 0
 383 1281 275 1167 275 983 c 0
 275 883 322 844 401 792 c 0
 502 725 629 622 629 405 c 1
 479 405 l 1
 479 572 400 629 311 688 c 0
 222 746 125 831 125 983 c 0
 125 1207 273 1411 539 1411 c 0
 809 1411 942 1227 942 1024 c 0
 942 998 941 969 936 939 c 1
EndSplineSet
Refer: 0 46 N 1 0 0 1 325 0 2
Colour: ffff00
EndChar

StartChar: uni0621
Encoding: 1569 1569 74
Width: 878
VWidth: 1854
Flags: HMW
AnchorPoint: "Anchor-5" 431 831 basechar 0
AnchorPoint: "Anchor-3" 431 65 basechar 0
LayerCount: 2
Fore
SplineSet
682 618 m 1
 598 548 l 1
 563 589 511 626 431 626 c 0
 337 626 239 549 239 410 c 0
 239 314 332 275 508 275 c 1
 726 365 l 1
 768 263 l 1
 153 9 l 1
 111 111 l 1
 305 191 l 1
 207 222 129 285 129 410 c 0
 129 607 275 736 431 736 c 0
 549 736 633 677 682 618 c 1
EndSplineSet
Colour: ff00ff
EndChar

StartChar: uni0627
Encoding: 1575 1575 75
Width: 500
VWidth: 1854
Flags: HMW
AnchorPoint: "Anchor-5" 251 1411 basechar 0
AnchorPoint: "Anchor-3" 251 0 basechar 0
LayerCount: 2
Fore
SplineSet
325 0 m 1
 175 0 l 1
 175 1411 l 1
 325 1411 l 1
 325 0 l 1
EndSplineSet
PairPos2: "'kern' Horizontal Kerning in Arabic lookup 2 per glyph data 1" uni063A dx=-225 dy=0 dh=-225 dv=0 dx=0 dy=0 dh=0 dv=0
PairPos2: "'kern' Horizontal Kerning in Arabic lookup 2 per glyph data 1" uni0639 dx=-225 dy=0 dh=-225 dv=0 dx=0 dy=0 dh=0 dv=0
PairPos2: "'kern' Horizontal Kerning in Arabic lookup 2 per glyph data 0" uni0639 dx=-300 dy=0 dh=-300 dv=0 dx=0 dy=0 dh=0 dv=0
PairPos2: "'kern' Horizontal Kerning in Arabic lookup 2 per glyph data 0" uni063A dx=-300 dy=0 dh=-300 dv=0 dx=0 dy=0 dh=0 dv=0
Substitution2: "'medi' Medial Forms in Arabic lookup 3 subtable" uniFE8E
Substitution2: "'fina' Terminal Forms in Arabic lookup 2 subtable" uniFE8E
Colour: ffff
EndChar

StartChar: uni062D
Encoding: 1581 1581 76
Width: 1464
VWidth: 1854
Flags: HMW
AnchorPoint: "Anchor-3" 775 -860 basechar 0
AnchorPoint: "Anchor-5" 513 815 basechar 0
LayerCount: 2
Fore
SplineSet
1238 -568 m 1
 1334 -684 l 1
 1190 -803 980 -861 775 -861 c 0
 455 -861 103 -704 103 -320 c 0
 103 158 607 336 1086 451 c 1
 649 661 l 2
 603 683 561 691 522 691 c 0
 416 691 349 629 349 524 c 0
 349 501 352 473 360 447 c 1
 216 405 l 1
 204 447 199 487 199 524 c 0
 199 713 344 841 522 841 c 0
 583 841 648 828 713 797 c 2
 1315 507 l 1
 1315 349 l 1
 1256 336 l 2
 701 214 253 55 253 -320 c 0
 253 -582 487 -711 775 -711 c 0
 952 -711 1132 -657 1238 -568 c 1
EndSplineSet
Substitution2: "'init' Initial Forms in Arabic lookup 4 subtable" uniFEA3
Substitution2: "'medi' Medial Forms in Arabic lookup 3 subtable" uniFEA4
Substitution2: "'fina' Terminal Forms in Arabic lookup 2 subtable" uniFEA2
Colour: ffff
EndChar

StartChar: uni062F
Encoding: 1583 1583 77
Width: 936
VWidth: 1854
Flags: HMW
AnchorPoint: "Anchor-5" 485 904 basechar 0
AnchorPoint: "Anchor-3" 469 0 basechar 0
LayerCount: 2
Fore
SplineSet
379 799 m 1
 485 905 l 1
 688 701 833 497 833 287 c 0
 833 21 500 0 320 0 c 0
 267 0 159 11 104 22 c 1
 132 170 l 1
 171 163 287 150 320 150 c 0
 538 150 683 199 683 287 c 0
 683 425 576 601 379 799 c 1
EndSplineSet
PairPos2: "'kern' Horizontal Kerning in Arabic lookup 2 per glyph data 3" uniFEDB dx=-300 dy=0 dh=-300 dv=0 dx=0 dy=0 dh=0 dv=0
PairPos2: "'kern' Horizontal Kerning in Arabic lookup 2 per glyph data 3" uniFB94 dx=-300 dy=0 dh=-300 dv=0 dx=0 dy=0 dh=0 dv=0
PairPos2: "'kern' Horizontal Kerning in Arabic lookup 2 per glyph data 3" uniFB90 dx=-300 dy=0 dh=-300 dv=0 dx=0 dy=0 dh=0 dv=0
PairPos2: "'kern' Horizontal Kerning in Arabic lookup 2 per glyph data 3" uni06AF dx=-300 dy=0 dh=-300 dv=0 dx=0 dy=0 dh=0 dv=0
PairPos2: "'kern' Horizontal Kerning in Arabic lookup 2 per glyph data 3" uni06A9 dx=-300 dy=0 dh=-300 dv=0 dx=0 dy=0 dh=0 dv=0
PairPos2: "'kern' Horizontal Kerning in Arabic lookup 2 per glyph data 1" uni063A dx=-375 dy=0 dh=-375 dv=0 dx=0 dy=0 dh=0 dv=0
PairPos2: "'kern' Horizontal Kerning in Arabic lookup 2 per glyph data 1" uni0639 dx=-375 dy=0 dh=-375 dv=0 dx=0 dy=0 dh=0 dv=0
Substitution2: "'fina' Terminal Forms in Arabic lookup 2 subtable" uniFEAA
Colour: ffff
EndChar

StartChar: uni0631
Encoding: 1585 1585 78
Width: 784
VWidth: 1854
Flags: HMW
AnchorPoint: "Anchor-3" 488 -402 basechar 0
AnchorPoint: "Anchor-5" 506 571 basechar 0
LayerCount: 2
Fore
SplineSet
436 543 m 1
 576 599 l 1
 642 433 681 277 681 131 c 0
 681 -164 516 -392 176 -516 c 1
 124 -376 l 1
 420 -268 531 -98 531 131 c 0
 531 249 498 389 436 543 c 1
EndSplineSet
PairPos2: "'kern' Horizontal Kerning in Arabic lookup 2 per glyph data 2" uni0621 dx=-200 dy=0 dh=-200 dv=0 dx=0 dy=0 dh=0 dv=0
PairPos2: "'kern' Horizontal Kerning in Arabic lookup 2 per glyph data 4" parenleft dx=-300 dy=0 dh=-300 dv=0 dx=0 dy=0 dh=0 dv=0
PairPos2: "'kern' Horizontal Kerning in Arabic lookup 2 per glyph data 4" less dx=-420 dy=0 dh=-420 dv=0 dx=0 dy=0 dh=0 dv=0
PairPos2: "'kern' Horizontal Kerning in Arabic lookup 2 per glyph data 4" guillemotleft dx=-420 dy=0 dh=-420 dv=0 dx=0 dy=0 dh=0 dv=0
PairPos2: "'kern' Horizontal Kerning in Arabic lookup 2 per glyph data 4" bracketleft dx=-300 dy=0 dh=-300 dv=0 dx=0 dy=0 dh=0 dv=0
PairPos2: "'kern' Horizontal Kerning in Arabic lookup 2 per glyph data 3" uniFEDB dx=-300 dy=0 dh=-300 dv=0 dx=0 dy=0 dh=0 dv=0
PairPos2: "'kern' Horizontal Kerning in Arabic lookup 2 per glyph data 3" uniFB94 dx=-300 dy=0 dh=-300 dv=0 dx=0 dy=0 dh=0 dv=0
PairPos2: "'kern' Horizontal Kerning in Arabic lookup 2 per glyph data 3" uniFB90 dx=-300 dy=0 dh=-300 dv=0 dx=0 dy=0 dh=0 dv=0
PairPos2: "'kern' Horizontal Kerning in Arabic lookup 2 per glyph data 3" uni06AF dx=-300 dy=0 dh=-300 dv=0 dx=0 dy=0 dh=0 dv=0
PairPos2: "'kern' Horizontal Kerning in Arabic lookup 2 per glyph data 3" uni06A9 dx=-300 dy=0 dh=-300 dv=0 dx=0 dy=0 dh=0 dv=0
PairPos2: "'kern' Horizontal Kerning in Arabic lookup 2 per glyph data 2" uni064A dx=-100 dy=0 dh=-100 dv=0 dx=0 dy=0 dh=0 dv=0
PairPos2: "'kern' Horizontal Kerning in Arabic lookup 2 per glyph data 2" uni0649 dx=-100 dy=0 dh=-100 dv=0 dx=0 dy=0 dh=0 dv=0
PairPos2: "'kern' Horizontal Kerning in Arabic lookup 2 per glyph data 2" uni06CC dx=-100 dy=0 dh=-100 dv=0 dx=0 dy=0 dh=0 dv=0
PairPos2: "'kern' Horizontal Kerning in Arabic lookup 2 per glyph data 2" space dx=-300 dy=0 dh=-300 dv=0 dx=0 dy=0 dh=0 dv=0
PairPos2: "'kern' Horizontal Kerning in Arabic lookup 2 per glyph data 2" uniFEFB dx=-325 dy=0 dh=-325 dv=0 dx=0 dy=0 dh=0 dv=0
PairPos2: "'kern' Horizontal Kerning in Arabic lookup 2 per glyph data 2" uniFEF9 dx=-325 dy=0 dh=-325 dv=0 dx=0 dy=0 dh=0 dv=0
PairPos2: "'kern' Horizontal Kerning in Arabic lookup 2 per glyph data 2" uniFEF7 dx=-325 dy=0 dh=-325 dv=0 dx=0 dy=0 dh=0 dv=0
PairPos2: "'kern' Horizontal Kerning in Arabic lookup 2 per glyph data 2" uniFEF5 dx=-325 dy=0 dh=-325 dv=0 dx=0 dy=0 dh=0 dv=0
PairPos2: "'kern' Horizontal Kerning in Arabic lookup 2 per glyph data 2" uniFEEB dx=-250 dy=0 dh=-250 dv=0 dx=0 dy=0 dh=0 dv=0
PairPos2: "'kern' Horizontal Kerning in Arabic lookup 2 per glyph data 2" uniFEE7 dx=-225 dy=0 dh=-225 dv=0 dx=0 dy=0 dh=0 dv=0
PairPos2: "'kern' Horizontal Kerning in Arabic lookup 2 per glyph data 2" uniFEE3 dx=-300 dy=0 dh=-300 dv=0 dx=0 dy=0 dh=0 dv=0
PairPos2: "'kern' Horizontal Kerning in Arabic lookup 2 per glyph data 2" uniFEDF dx=-325 dy=0 dh=-325 dv=0 dx=0 dy=0 dh=0 dv=0
PairPos2: "'kern' Horizontal Kerning in Arabic lookup 2 per glyph data 2" uniFEDB dx=-500 dy=0 dh=-500 dv=0 dx=0 dy=0 dh=0 dv=0
PairPos2: "'kern' Horizontal Kerning in Arabic lookup 2 per glyph data 2" uniFED7 dx=-250 dy=0 dh=-250 dv=0 dx=0 dy=0 dh=0 dv=0
PairPos2: "'kern' Horizontal Kerning in Arabic lookup 2 per glyph data 2" uniFED3 dx=-250 dy=0 dh=-250 dv=0 dx=0 dy=0 dh=0 dv=0
PairPos2: "'kern' Horizontal Kerning in Arabic lookup 2 per glyph data 2" uniFECF dx=-300 dy=0 dh=-300 dv=0 dx=0 dy=0 dh=0 dv=0
PairPos2: "'kern' Horizontal Kerning in Arabic lookup 2 per glyph data 2" uniFECB dx=-300 dy=0 dh=-300 dv=0 dx=0 dy=0 dh=0 dv=0
PairPos2: "'kern' Horizontal Kerning in Arabic lookup 2 per glyph data 2" uniFEC7 dx=-300 dy=0 dh=-300 dv=0 dx=0 dy=0 dh=0 dv=0
PairPos2: "'kern' Horizontal Kerning in Arabic lookup 2 per glyph data 2" uniFEC3 dx=-300 dy=0 dh=-300 dv=0 dx=0 dy=0 dh=0 dv=0
PairPos2: "'kern' Horizontal Kerning in Arabic lookup 2 per glyph data 2" uniFEBF dx=-300 dy=0 dh=-300 dv=0 dx=0 dy=0 dh=0 dv=0
PairPos2: "'kern' Horizontal Kerning in Arabic lookup 2 per glyph data 2" uniFEBB dx=-300 dy=0 dh=-300 dv=0 dx=0 dy=0 dh=0 dv=0
PairPos2: "'kern' Horizontal Kerning in Arabic lookup 2 per glyph data 2" uniFEB7 dx=-200 dy=0 dh=-200 dv=0 dx=0 dy=0 dh=0 dv=0
PairPos2: "'kern' Horizontal Kerning in Arabic lookup 2 per glyph data 2" uniFEB3 dx=-200 dy=0 dh=-200 dv=0 dx=0 dy=0 dh=0 dv=0
PairPos2: "'kern' Horizontal Kerning in Arabic lookup 2 per glyph data 2" uniFEA7 dx=-250 dy=0 dh=-250 dv=0 dx=0 dy=0 dh=0 dv=0
PairPos2: "'kern' Horizontal Kerning in Arabic lookup 2 per glyph data 2" uniFEA3 dx=-250 dy=0 dh=-250 dv=0 dx=0 dy=0 dh=0 dv=0
PairPos2: "'kern' Horizontal Kerning in Arabic lookup 2 per glyph data 2" uniFE9F dx=-250 dy=0 dh=-250 dv=0 dx=0 dy=0 dh=0 dv=0
PairPos2: "'kern' Horizontal Kerning in Arabic lookup 2 per glyph data 2" uniFE9B dx=-225 dy=0 dh=-225 dv=0 dx=0 dy=0 dh=0 dv=0
PairPos2: "'kern' Horizontal Kerning in Arabic lookup 2 per glyph data 2" uniFE97 dx=-225 dy=0 dh=-225 dv=0 dx=0 dy=0 dh=0 dv=0
PairPos2: "'kern' Horizontal Kerning in Arabic lookup 2 per glyph data 2" uniFE91 dx=-225 dy=0 dh=-225 dv=0 dx=0 dy=0 dh=0 dv=0
PairPos2: "'kern' Horizontal Kerning in Arabic lookup 2 per glyph data 2" uniFE8B dx=-225 dy=0 dh=-225 dv=0 dx=0 dy=0 dh=0 dv=0
PairPos2: "'kern' Horizontal Kerning in Arabic lookup 2 per glyph data 2" uniFB94 dx=-400 dy=0 dh=-400 dv=0 dx=0 dy=0 dh=0 dv=0
PairPos2: "'kern' Horizontal Kerning in Arabic lookup 2 per glyph data 2" uniFB90 dx=-400 dy=0 dh=-400 dv=0 dx=0 dy=0 dh=0 dv=0
PairPos2: "'kern' Horizontal Kerning in Arabic lookup 2 per glyph data 2" uniFB7C dx=-250 dy=0 dh=-250 dv=0 dx=0 dy=0 dh=0 dv=0
PairPos2: "'kern' Horizontal Kerning in Arabic lookup 2 per glyph data 2" uni06CA dx=-150 dy=0 dh=-150 dv=0 dx=0 dy=0 dh=0 dv=0
PairPos2: "'kern' Horizontal Kerning in Arabic lookup 2 per glyph data 2" uni06C0 dx=-300 dy=0 dh=-300 dv=0 dx=0 dy=0 dh=0 dv=0
PairPos2: "'kern' Horizontal Kerning in Arabic lookup 2 per glyph data 2" uni06AF dx=-400 dy=0 dh=-400 dv=0 dx=0 dy=0 dh=0 dv=0
PairPos2: "'kern' Horizontal Kerning in Arabic lookup 2 per glyph data 2" uni06A9 dx=-400 dy=0 dh=-400 dv=0 dx=0 dy=0 dh=0 dv=0
PairPos2: "'kern' Horizontal Kerning in Arabic lookup 2 per glyph data 2" uni0698 dx=-150 dy=0 dh=-150 dv=0 dx=0 dy=0 dh=0 dv=0
PairPos2: "'kern' Horizontal Kerning in Arabic lookup 2 per glyph data 2" uni0686 dx=-125 dy=0 dh=-125 dv=0 dx=0 dy=0 dh=0 dv=0
PairPos2: "'kern' Horizontal Kerning in Arabic lookup 2 per glyph data 2" uni067E dx=-300 dy=0 dh=-300 dv=0 dx=0 dy=0 dh=0 dv=0
PairPos2: "'kern' Horizontal Kerning in Arabic lookup 2 per glyph data 2" uni0648 dx=-150 dy=0 dh=-150 dv=0 dx=0 dy=0 dh=0 dv=0
PairPos2: "'kern' Horizontal Kerning in Arabic lookup 2 per glyph data 2" uni0647 dx=-300 dy=0 dh=-300 dv=0 dx=0 dy=0 dh=0 dv=0
PairPos2: "'kern' Horizontal Kerning in Arabic lookup 2 per glyph data 2" uni0646 dx=-150 dy=0 dh=-150 dv=0 dx=0 dy=0 dh=0 dv=0
PairPos2: "'kern' Horizontal Kerning in Arabic lookup 2 per glyph data 2" uni0645 dx=-300 dy=0 dh=-300 dv=0 dx=0 dy=0 dh=0 dv=0
PairPos2: "'kern' Horizontal Kerning in Arabic lookup 2 per glyph data 2" uni0644 dx=-112 dy=0 dh=-112 dv=0 dx=0 dy=0 dh=0 dv=0
PairPos2: "'kern' Horizontal Kerning in Arabic lookup 2 per glyph data 2" uni0643 dx=-300 dy=0 dh=-300 dv=0 dx=0 dy=0 dh=0 dv=0
PairPos2: "'kern' Horizontal Kerning in Arabic lookup 2 per glyph data 2" uni0642 dx=-150 dy=0 dh=-150 dv=0 dx=0 dy=0 dh=0 dv=0
PairPos2: "'kern' Horizontal Kerning in Arabic lookup 2 per glyph data 2" uni0641 dx=-250 dy=0 dh=-250 dv=0 dx=0 dy=0 dh=0 dv=0
PairPos2: "'kern' Horizontal Kerning in Arabic lookup 2 per glyph data 2" uni0638 dx=-300 dy=0 dh=-300 dv=0 dx=0 dy=0 dh=0 dv=0
PairPos2: "'kern' Horizontal Kerning in Arabic lookup 2 per glyph data 2" uni0637 dx=-300 dy=0 dh=-300 dv=0 dx=0 dy=0 dh=0 dv=0
PairPos2: "'kern' Horizontal Kerning in Arabic lookup 2 per glyph data 2" uni0636 dx=-300 dy=0 dh=-300 dv=0 dx=0 dy=0 dh=0 dv=0
PairPos2: "'kern' Horizontal Kerning in Arabic lookup 2 per glyph data 2" uni0635 dx=-300 dy=0 dh=-300 dv=0 dx=0 dy=0 dh=0 dv=0
PairPos2: "'kern' Horizontal Kerning in Arabic lookup 2 per glyph data 2" uni0634 dx=-200 dy=0 dh=-200 dv=0 dx=0 dy=0 dh=0 dv=0
PairPos2: "'kern' Horizontal Kerning in Arabic lookup 2 per glyph data 2" uni0633 dx=-200 dy=0 dh=-200 dv=0 dx=0 dy=0 dh=0 dv=0
PairPos2: "'kern' Horizontal Kerning in Arabic lookup 2 per glyph data 2" uni0632 dx=-150 dy=0 dh=-150 dv=0 dx=0 dy=0 dh=0 dv=0
PairPos2: "'kern' Horizontal Kerning in Arabic lookup 2 per glyph data 2" uni0631 dx=-150 dy=0 dh=-150 dv=0 dx=0 dy=0 dh=0 dv=0
PairPos2: "'kern' Horizontal Kerning in Arabic lookup 2 per glyph data 2" uni0630 dx=-250 dy=0 dh=-250 dv=0 dx=0 dy=0 dh=0 dv=0
PairPos2: "'kern' Horizontal Kerning in Arabic lookup 2 per glyph data 2" uni062F dx=-250 dy=0 dh=-250 dv=0 dx=0 dy=0 dh=0 dv=0
PairPos2: "'kern' Horizontal Kerning in Arabic lookup 2 per glyph data 2" uni062E dx=-125 dy=0 dh=-125 dv=0 dx=0 dy=0 dh=0 dv=0
PairPos2: "'kern' Horizontal Kerning in Arabic lookup 2 per glyph data 2" uni062D dx=-125 dy=0 dh=-125 dv=0 dx=0 dy=0 dh=0 dv=0
PairPos2: "'kern' Horizontal Kerning in Arabic lookup 2 per glyph data 2" uni062C dx=-125 dy=0 dh=-125 dv=0 dx=0 dy=0 dh=0 dv=0
PairPos2: "'kern' Horizontal Kerning in Arabic lookup 2 per glyph data 2" uni062B dx=-300 dy=0 dh=-300 dv=0 dx=0 dy=0 dh=0 dv=0
PairPos2: "'kern' Horizontal Kerning in Arabic lookup 2 per glyph data 2" uni062A dx=-300 dy=0 dh=-300 dv=0 dx=0 dy=0 dh=0 dv=0
PairPos2: "'kern' Horizontal Kerning in Arabic lookup 2 per glyph data 2" uni0629 dx=-300 dy=0 dh=-300 dv=0 dx=0 dy=0 dh=0 dv=0
PairPos2: "'kern' Horizontal Kerning in Arabic lookup 2 per glyph data 2" uni0628 dx=-300 dy=0 dh=-300 dv=0 dx=0 dy=0 dh=0 dv=0
PairPos2: "'kern' Horizontal Kerning in Arabic lookup 2 per glyph data 2" uni0627 dx=-250 dy=0 dh=-250 dv=0 dx=0 dy=0 dh=0 dv=0
PairPos2: "'kern' Horizontal Kerning in Arabic lookup 2 per glyph data 2" uni0624 dx=-150 dy=0 dh=-150 dv=0 dx=0 dy=0 dh=0 dv=0
PairPos2: "'kern' Horizontal Kerning in Arabic lookup 2 per glyph data 2" uni0623 dx=-250 dy=0 dh=-250 dv=0 dx=0 dy=0 dh=0 dv=0
PairPos2: "'kern' Horizontal Kerning in Arabic lookup 2 per glyph data 2" uni0622 dx=-250 dy=0 dh=-250 dv=0 dx=0 dy=0 dh=0 dv=0
PairPos2: "'kern' Horizontal Kerning in Arabic lookup 2 per glyph data 2" uniFB58 dx=-150 dy=0 dh=-150 dv=0 dx=0 dy=0 dh=0 dv=0
PairPos2: "'kern' Horizontal Kerning in Arabic lookup 2 per glyph data 2" uniFEF3 dx=-150 dy=0 dh=-150 dv=0 dx=0 dy=0 dh=0 dv=0
PairPos2: "'kern' Horizontal Kerning in Arabic lookup 2 per glyph data 2" uniFBFE dx=-150 dy=0 dh=-150 dv=0 dx=0 dy=0 dh=0 dv=0
PairPos2: "'kern' Horizontal Kerning in Arabic lookup 2 per glyph data 1" uni063A dx=-350 dy=0 dh=-350 dv=0 dx=0 dy=0 dh=0 dv=0
PairPos2: "'kern' Horizontal Kerning in Arabic lookup 2 per glyph data 1" uni0639 dx=-350 dy=0 dh=-350 dv=0 dx=0 dy=0 dh=0 dv=0
Substitution2: "'fina' Terminal Forms in Arabic lookup 2 subtable" uniFEAE
Colour: ffff
EndChar

StartChar: uni0633
Encoding: 1587 1587 79
Width: 2498
VWidth: 1854
Flags: HMW
AnchorPoint: "Anchor-5" 1870 574 basechar 0
AnchorPoint: "Anchor-3" 751 -502 basechar 0
LayerCount: 2
Fore
SplineSet
1149 544 m 1
 1289 598 l 1
 1378 365 l 2
 1440 202 1532 150 1593 150 c 0
 1654 150 1734 204 1760 360 c 2
 1796 586 l 1
 1944 562 l 1
 1918 396 l 2
 1916 377 1915 358 1915 337 c 0
 1915 191 1998 150 2083 150 c 0
 2200 150 2245 228 2245 387 c 0
 2245 480 2224 589 2194 683 c 1
 2336 729 l 1
 2370 623 2395 502 2395 387 c 0
 2395 206 2320 0 2083 0 c 0
 1989 0 1888 41 1826 128 c 1
 1769 48 1688 0 1593 0 c 0
 1538 0 1485 16 1437 46 c 1
 1420 -330 1064 -501 749 -501 c 0
 443 -501 103 -340 103 11 c 0
 103 185 189 389 385 620 c 1
 499 522 l 1
 316 307 253 135 253 11 c 0
 253 -216 477 -351 749 -351 c 0
 1033 -351 1288 -203 1288 74 c 0
 1288 142 1273 219 1238 311 c 2
 1149 544 l 1
EndSplineSet
Substitution2: "'init' Initial Forms in Arabic lookup 4 subtable" uniFEB3
Substitution2: "'medi' Medial Forms in Arabic lookup 3 subtable" uniFEB4
Substitution2: "'fina' Terminal Forms in Arabic lookup 2 subtable" uniFEB2
Colour: ffff
EndChar

StartChar: uni0635
Encoding: 1589 1589 80
Width: 2458
VWidth: 1854
Flags: HMW
AnchorPoint: "Anchor-3" 749 -502 basechar 0
AnchorPoint: "Anchor-5" 1983 695 basechar 0
LayerCount: 2
Fore
SplineSet
1149 544 m 1
 1289 598 l 1
 1379 365 l 2
 1391 334 1402 303 1410 273 c 1
 1574 570 1792 699 1984 699 c 0
 2175 699 2338 570 2338 367 c 0
 2338 96 2039 0 1791 0 c 0
 1671 0 1548 21 1439 63 c 1
 1432 -324 1069 -501 750 -501 c 0
 444 -501 104 -340 104 11 c 0
 104 185 190 389 386 620 c 1
 500 522 l 1
 317 307 254 135 254 11 c 0
 254 -216 478 -351 750 -351 c 0
 1034 -351 1289 -203 1289 74 c 0
 1289 142 1274 220 1239 311 c 2
 1149 544 l 1
1534 188 m 1
 1614 163 1704 150 1791 150 c 0
 2033 150 2188 242 2188 367 c 0
 2188 478 2110 549 1984 549 c 0
 1859 549 1682 466 1534 188 c 1
EndSplineSet
Substitution2: "'init' Initial Forms in Arabic lookup 4 subtable" uniFEBB
Substitution2: "'medi' Medial Forms in Arabic lookup 3 subtable" uniFEBC
Substitution2: "'fina' Terminal Forms in Arabic lookup 2 subtable" uniFEBA
Colour: ffff
EndChar

StartChar: uni0637
Encoding: 1591 1591 81
Width: 1515
VWidth: 1854
Flags: HMW
AnchorPoint: "Anchor-5" 1088 764 basechar 0
AnchorPoint: "Anchor-3" 768 0 basechar 0
LayerCount: 2
Fore
SplineSet
403 150 m 1
 403 1411 l 1
 553 1411 l 1
 553 454 l 1
 708 653 911 740 1060 740 c 0
 1225 740 1390 631 1390 434 c 0
 1390 156 1171 0 478 0 c 2
 105 0 l 1
 105 150 l 1
 403 150 l 1
554 151 m 1
 1181 162 1240 294 1240 434 c 0
 1240 531 1167 590 1060 590 c 0
 932 590 680 477 554 151 c 1
EndSplineSet
Substitution2: "'init' Initial Forms in Arabic lookup 4 subtable" uniFEC3
Substitution2: "'medi' Medial Forms in Arabic lookup 3 subtable" uniFEC4
Substitution2: "'fina' Terminal Forms in Arabic lookup 2 subtable" uniFEC2
Colour: ffff
EndChar

StartChar: uni0639
Encoding: 1593 1593 82
Width: 1299
VWidth: 1854
Flags: HMW
AnchorPoint: "Anchor-5" 596 1127 basechar 0
AnchorPoint: "Anchor-3" 775 -860 basechar 0
LayerCount: 2
Fore
SplineSet
945 966 m 1
 831 870 l 1
 784 926 707 979 596 979 c 0
 465 979 329 871 329 677 c 0
 329 555 471 485 696 485 c 0
 767 485 835 492 902 503 c 2
 973 515 l 1
 1004 360 l 1
 925 350 l 2
 504 295 253 12 253 -320 c 0
 253 -582 487 -711 775 -711 c 0
 895 -711 1018 -687 1118 -642 c 1
 1180 -778 l 1
 1057 -833 915 -861 775 -861 c 0
 455 -861 103 -704 103 -320 c 0
 103 -41 248 206 491 356 c 1
 337 391 179 486 179 677 c 0
 179 949 379 1129 596 1129 c 0
 759 1129 876 1048 945 966 c 1
EndSplineSet
Substitution2: "'init' Initial Forms in Arabic lookup 4 subtable" uniFECB
Substitution2: "'medi' Medial Forms in Arabic lookup 3 subtable" uniFECC
Substitution2: "'fina' Terminal Forms in Arabic lookup 2 subtable" uniFECA
Colour: ffff
EndChar

StartChar: uni0640
Encoding: 1600 1600 83
Width: 811
VWidth: 1854
Flags: HMW
AnchorPoint: "Anchor-5" 406 904 basechar 0
AnchorPoint: "Anchor-3" 406 0 basechar 0
LayerCount: 2
Fore
SplineSet
0 150 m 2
 811 150 l 1
 811 0 l 1
 0 0 l 2
 -41 0 -74 34 -74 75 c 0
 -74 116 -41 150 0 150 c 2
EndSplineSet
Colour: ffff
EndChar

StartChar: uni0644
Encoding: 1604 1604 84
Width: 1378
VWidth: 1854
Flags: HMW
AnchorPoint: "Anchor-5" 731 712 basechar 0
AnchorPoint: "Anchor-3" 663 -502 basechar 0
LayerCount: 2
Fore
SplineSet
1092 1411 m 1
 1242 1411 l 1
 1242 126 l 2
 1242 -302 949 -503 663 -503 c 0
 392 -503 103 -323 103 -5 c 0
 103 142 152 311 256 497 c 1
 387 425 l 1
 292 255 253 108 253 -5 c 0
 253 -215 446 -353 663 -353 c 0
 877 -353 1092 -220 1092 126 c 2
 1092 1411 l 1
EndSplineSet
Substitution2: "'init' Initial Forms in Arabic lookup 4 subtable" uniFEDF
Substitution2: "'medi' Medial Forms in Arabic lookup 3 subtable" uniFEE0
Substitution2: "'fina' Terminal Forms in Arabic lookup 2 subtable" uniFEDE
Colour: ffff
EndChar

StartChar: uni0645
Encoding: 1605 1605 85
Width: 1199
VWidth: 2374
Flags: HMW
AnchorPoint: "Anchor-5" 750 696 basechar 0
AnchorPoint: "Anchor-3" 668 -50 basechar 0
LayerCount: 2
Fore
SplineSet
778 0 m 0
 675 0 526 38 422 38 c 0
 324 38 253 -11 253 -149 c 2
 253 -883 l 1
 103 -883 l 1
 103 -149 l 2
 103 43 222 166 377 185 c 1
 388 392 464 696 750 696 c 0
 977 696 1096 475 1096 227 c 0
 1096 40 912 0 778 0 c 0
527 181 m 1
 599 169 714 150 778 150 c 0
 912 150 946 182 946 227 c 0
 946 445 853 546 750 546 c 0
 609 546 539 390 527 181 c 1
EndSplineSet
Substitution2: "'init' Initial Forms in Arabic lookup 4 subtable" uniFEE3
Substitution2: "'medi' Medial Forms in Arabic lookup 3 subtable" uniFEE4
Substitution2: "'fina' Terminal Forms in Arabic lookup 2 subtable" uniFEE2
Colour: ffff
EndChar

StartChar: uni0647
Encoding: 1607 1607 86
Width: 869
VWidth: 1854
Flags: HMW
AnchorPoint: "Anchor-5" 435 872 basechar 0
AnchorPoint: "Anchor-3" 435 75 basechar 0
LayerCount: 2
Fore
SplineSet
435 150 m 0
 552 150 603 208 603 306 c 0
 603 409 537 532 435 636 c 1
 334 533 266 409 266 306 c 0
 266 208 318 150 435 150 c 0
435 0 m 0
 246 0 116 128 116 306 c 0
 116 495 244 671 386 795 c 2
 435 839 l 1
 484 795 l 2
 626 671 753 494 753 306 c 0
 753 128 624 0 435 0 c 0
EndSplineSet
Substitution2: "'init' Initial Forms in Arabic lookup 4 subtable" uniFEEB
Substitution2: "'medi' Medial Forms in Arabic lookup 3 subtable" uniFEEC
Substitution2: "'fina' Terminal Forms in Arabic lookup 2 subtable" uniFEEA
Colour: ffff
EndChar

StartChar: uni0648
Encoding: 1608 1608 87
Width: 888
VWidth: 1854
Flags: HMW
AnchorPoint: "Anchor-5" 440 725 basechar 0
AnchorPoint: "Anchor-3" 444 -502 basechar 0
LayerCount: 2
Fore
SplineSet
638 21 m 1
 582 7 523 -1 458 -1 c 0
 279 -1 107 82 107 303 c 0
 107 500 237 725 440 725 c 0
 761 725 795 269 795 98 c 0
 795 -215 557 -408 142 -514 c 1
 104 -368 l 1
 453 -279 605 -147 638 21 c 1
642 177 m 1
 627 386 556 575 440 575 c 0
 363 575 257 456 257 303 c 0
 257 188 315 149 458 149 c 0
 527 149 582 159 642 177 c 1
EndSplineSet
PairPos2: "'kern' Horizontal Kerning in Arabic lookup 2 per glyph data 1" uni063A dx=-200 dy=0 dh=-200 dv=0 dx=0 dy=0 dh=0 dv=0
PairPos2: "'kern' Horizontal Kerning in Arabic lookup 2 per glyph data 1" uni0639 dx=-200 dy=0 dh=-200 dv=0 dx=0 dy=0 dh=0 dv=0
PairPos2: "'kern' Horizontal Kerning in Arabic lookup 2 per glyph data 3" uniFEDB dx=-262 dy=0 dh=-262 dv=0 dx=0 dy=0 dh=0 dv=0
PairPos2: "'kern' Horizontal Kerning in Arabic lookup 2 per glyph data 3" uniFB94 dx=-262 dy=0 dh=-262 dv=0 dx=0 dy=0 dh=0 dv=0
PairPos2: "'kern' Horizontal Kerning in Arabic lookup 2 per glyph data 3" uniFB90 dx=-262 dy=0 dh=-262 dv=0 dx=0 dy=0 dh=0 dv=0
PairPos2: "'kern' Horizontal Kerning in Arabic lookup 2 per glyph data 3" uni06AF dx=-262 dy=0 dh=-262 dv=0 dx=0 dy=0 dh=0 dv=0
PairPos2: "'kern' Horizontal Kerning in Arabic lookup 2 per glyph data 3" uni06A9 dx=-262 dy=0 dh=-262 dv=0 dx=0 dy=0 dh=0 dv=0
Substitution2: "'fina' Terminal Forms in Arabic lookup 2 subtable" uniFEEE
Colour: ffff
EndChar

StartChar: uni065A
Encoding: 1626 1626 89
Width: 0
VWidth: 1854
Flags: HMW
AnchorPoint: "Anchor-1" 0 1598 basemark 0
AnchorPoint: "Anchor-1" 1 1209 mark 0
AnchorPoint: "Anchor-4" 1 1209 mark 0
AnchorPoint: "Anchor-5" 1 1209 mark 0
LayerCount: 2
Fore
SplineSet
-242 1813 m 1
 -170 1867 l 1
 0 1640 l 1
 170 1867 l 1
 242 1813 l 1
 -0 1490 l 1
 -242 1813 l 1
EndSplineSet
Colour: ff00
EndChar

StartChar: uni066C
Encoding: 1644 1644 91
Width: 587
VWidth: 1854
Flags: HMW
LayerCount: 2
Fore
SplineSet
179 760 m 1
 121 829 l 1
 193 887 271 994 301 1065 c 1
 228 1065 120 1128 120 1237 c 0
 120 1329 189 1411 283 1411 c 0
 379 1411 467 1350 467 1202 c 0
 467 1046 293 851 179 760 c 1
EndSplineSet
EndChar

StartChar: uni066D
Encoding: 1645 1645 92
Width: 910
VWidth: 1854
Flags: HMW
LayerCount: 2
Fore
SplineSet
510 601 m 1
 400 601 l 1
 400 911 l 1
 133 756 l 1
 77 852 l 1
 345 1007 l 1
 77 1161 l 1
 133 1257 l 1
 400 1102 l 1
 400 1411 l 1
 510 1411 l 1
 510 1102 l 1
 777 1257 l 1
 833 1161 l 1
 565 1007 l 1
 833 852 l 1
 777 756 l 1
 510 911 l 1
 510 601 l 1
EndSplineSet
Colour: ff00ff
EndChar

StartChar: uni066E
Encoding: 1646 1646 93
Width: 1782
VWidth: 1854
Flags: HMW
AnchorPoint: "Anchor-5" 892 528 basechar 0
AnchorPoint: "Anchor-3" 892 0 basechar 0
LayerCount: 2
Fore
SplineSet
1476 659 m 1
 1620 699 l 1
 1663 540 l 2
 1678 488 1680 439 1680 400 c 0
 1680 39 1280 0 892 0 c 0
 504 0 103 39 103 400 c 0
 103 440 107 489 121 540 c 2
 164 699 l 1
 308 659 l 1
 265 500 l 2
 255 465 253 432 253 400 c 0
 253 207 464 150 892 150 c 0
 1320 150 1530 207 1530 400 c 0
 1530 433 1528 466 1519 500 c 2
 1476 659 l 1
EndSplineSet
Substitution2: "'fina' Terminal Forms in Arabic lookup 2 subtable" dotlessfinalBEH
Substitution2: "'medi' Medial Forms in Arabic lookup 3 subtable" uniFBE9
Substitution2: "'init' Initial Forms in Arabic lookup 4 subtable" uniFBE8
Colour: ffff
EndChar

StartChar: uni066F
Encoding: 1647 1647 94
Width: 1505
VWidth: 1854
Flags: HMW
AnchorPoint: "Anchor-5" 1047 726 basechar 0
AnchorPoint: "Anchor-3" 728 -504 basechar 0
LayerCount: 2
Fore
SplineSet
1247 22 m 1
 1191 8 1130 0 1065 0 c 0
 886 0 714 83 714 304 c 0
 714 501 844 726 1047 726 c 0
 1368 726 1402 270 1402 99 c 0
 1402 -306 1069 -504 728 -504 c 0
 423 -504 103 -340 103 -3 c 0
 103 236 222 446 332 597 c 1
 454 509 l 1
 352 368 253 184 253 -3 c 0
 253 -220 459 -354 728 -354 c 0
 994 -354 1211 -224 1247 22 c 1
1249 178 m 1
 1234 387 1163 576 1047 576 c 0
 970 576 864 457 864 304 c 0
 864 189 922 150 1065 150 c 0
 1134 150 1189 160 1249 178 c 1
EndSplineSet
Substitution2: "'init' Initial Forms in Arabic lookup 4 subtable" dotlessinitialFEH
Substitution2: "'medi' Medial Forms in Arabic lookup 3 subtable" dotlessmedialFEH
Substitution2: "'fina' Terminal Forms in Arabic lookup 2 subtable" dotlessfinalQAF
Colour: ffff
EndChar

StartChar: uni0670
Encoding: 1648 1648 95
Width: 0
VWidth: 1854
Flags: HMW
AnchorPoint: "Anchor-1" 0 1598 basemark 0
AnchorPoint: "Anchor-1" 1 1209 mark 0
AnchorPoint: "Anchor-4" 1 1209 mark 0
AnchorPoint: "Anchor-5" 1 1209 mark 0
LayerCount: 2
Fore
SplineSet
-45 1834 m 1
 45 1834 l 1
 45 1505 l 1
 -45 1505 l 1
 -45 1834 l 1
EndSplineSet
Colour: ff00
EndChar

StartChar: uni06A1
Encoding: 1697 1697 96
Width: 1752
VWidth: 1854
Flags: HMW
AnchorPoint: "Anchor-3" 892 0 basechar 0
AnchorPoint: "Anchor-5" 1313 1111 basechar 0
LayerCount: 2
Fore
SplineSet
1489 368 m 1
 1434 355 1376 347 1312 347 c 0
 1133 347 961 430 961 651 c 0
 961 848 1091 1073 1294 1073 c 0
 1615 1073 1649 617 1649 446 c 0
 1649 81 1292 0 891 0 c 0
 503 0 104 39 104 400 c 0
 104 514 138 619 166 703 c 1
 308 655 l 1
 280 572 254 484 254 400 c 0
 254 207 463 150 891 150 c 0
 1254 150 1448 220 1489 368 c 1
1496 525 m 1
 1481 734 1410 923 1294 923 c 0
 1217 923 1111 804 1111 651 c 0
 1111 536 1169 497 1312 497 c 0
 1381 497 1436 507 1496 525 c 1
EndSplineSet
Substitution2: "'init' Initial Forms in Arabic lookup 4 subtable" dotlessinitialFEH
Substitution2: "'medi' Medial Forms in Arabic lookup 3 subtable" dotlessmedialFEH
Substitution2: "'fina' Terminal Forms in Arabic lookup 2 subtable" dotlessfinalFEH
Colour: ffff
EndChar

StartChar: uni06A9
Encoding: 1705 1705 97
Width: 1848
VWidth: 1854
Flags: HMW
AnchorPoint: "Anchor-5" 1304 1258 basechar 0
AnchorPoint: "Anchor-3" 868 0 basechar 0
LayerCount: 2
Fore
SplineSet
166 703 m 1
 308 655 l 1
 281 572 254 484 254 400 c 0
 254 207 463 150 891 150 c 0
 1171 150 1318 181 1318 298 c 0
 1318 425 1107 690 899 847 c 2
 869 870 l 1
 869 1034 l 1
 904 1056 l 2
 1138 1206 1412 1313 1683 1369 c 1
 1713 1223 l 1
 1473 1174 1229 1079 1019 951 c 1
 1019 944 l 1
 1227 780 1468 518 1468 298 c 0
 1468 3 1119 0 891 0 c 0
 503 0 104 39 104 400 c 0
 104 514 138 619 166 703 c 1
EndSplineSet
Substitution2: "'init' Initial Forms in Arabic lookup 4 subtable" uniFB90
Substitution2: "'medi' Medial Forms in Arabic lookup 3 subtable" uniFB91
Substitution2: "'fina' Terminal Forms in Arabic lookup 2 subtable" uniFB8F
Colour: ffff
EndChar

StartChar: uni06BA
Encoding: 1722 1722 98
Width: 1592
VWidth: 1854
Flags: HMW
AnchorPoint: "Anchor-5" 792 539 basechar 0
AnchorPoint: "Anchor-3" 734 -502 basechar 0
LayerCount: 2
Fore
SplineSet
1200 553 m 1
 1338 613 l 1
 1400 475 1489 276 1489 86 c 0
 1489 -317 1098 -503 759 -503 c 0
 448 -503 103 -343 103 1 c 0
 103 188 182 393 306 591 c 1
 434 511 l 1
 319 327 253 144 253 1 c 0
 253 -215 478 -353 759 -353 c 0
 1062 -353 1339 -193 1339 86 c 0
 1339 229 1261 415 1200 553 c 1
EndSplineSet
Substitution2: "'init' Initial Forms in Arabic lookup 4 subtable" uniFBE8
Substitution2: "'medi' Medial Forms in Arabic lookup 3 subtable" uniFBE9
Substitution2: "'fina' Terminal Forms in Arabic lookup 2 subtable" dotlessinitialNOON
Colour: ffff
EndChar

StartChar: uni06CC
Encoding: 1740 1740 99
Width: 1449
VWidth: 1854
Flags: HMW
AnchorPoint: "Anchor-3" 775 -502 basechar 0
AnchorPoint: "Anchor-5" 463 696 basechar 0
LayerCount: 2
Fore
SplineSet
1322 717 m 1
 1266 577 l 1
 1213 598 l 2
 1158 620 1101 634 1044 634 c 0
 867 634 756 517 756 387 c 0
 756 245 857 220 1010 201 c 0
 1145 184 1337 141 1337 -86 c 0
 1337 -366 1039 -503 775 -503 c 0
 407 -503 103 -328 103 -5 c 0
 103 129 128 278 176 427 c 1
 186 461 l 1
 330 417 l 1
 318 381 l 2
 274 244 253 111 253 -5 c 0
 253 -206 439 -353 775 -353 c 0
 1011 -353 1187 -234 1187 -86 c 0
 1187 19 1133 36 992 53 c 0
 851 70 606 115 606 387 c 0
 606 611 799 784 1044 784 c 0
 1125 784 1202 764 1269 738 c 2
 1322 717 l 1
EndSplineSet
Substitution2: "'init' Initial Forms in Arabic lookup 4 subtable" uniFEF3
Substitution2: "'medi' Medial Forms in Arabic lookup 3 subtable" uniFEF4
Substitution2: "'fina' Terminal Forms in Arabic lookup 2 subtable" uniFBFD
Colour: ffff
EndChar

StartChar: uniFBE8
Encoding: 64488 64488 103
Width: 547
VWidth: 1854
Flags: HMW
AnchorPoint: "Anchor-5" 303 791 basechar 0
AnchorPoint: "Anchor-3" 274 0 basechar 0
LayerCount: 2
Fore
SplineSet
0 150 m 0
 121 150 209 185 238 219 c 0
 275 263 294 342 294 443 c 0
 294 529 269 655 232 767 c 1
 374 815 l 1
 415 691 444 555 444 443 c 0
 444 328 426 211 352 123 c 0
 275 31 139 0 0 0 c 0
 -41 0 -74 34 -74 75 c 0
 -74 116 -41 150 0 150 c 0
EndSplineSet
Colour: ffff
EndChar

StartChar: uniFBE9
Encoding: 64489 64489 104
Width: 767
VWidth: 1854
Flags: HMW
AnchorPoint: "Anchor-5" 384 594 basechar 0
AnchorPoint: "Anchor-3" 184 0 basechar 0
LayerCount: 2
Fore
SplineSet
0 150 m 0
 123 150 192 178 232 219 c 0
 281 269 309 363 309 517 c 2
 309 594 l 1
 459 594 l 1
 459 517 l 2
 459 368 486 274 532 223 c 0
 572 178 638 150 767 150 c 1
 767 0 l 1
 590 0 458 53 384 171 c 1
 310 54 177 0 0 0 c 0
 -41 0 -74 34 -74 75 c 0
 -74 116 -41 150 0 150 c 0
EndSplineSet
Colour: ffff
EndChar

StartChar: uniFBFD
Encoding: 64509 64509 105
Width: 1473
VWidth: 1854
Flags: HMW
AnchorPoint: "Anchor-5" 883 149 basechar 0
AnchorPoint: "Anchor-3" 739 -553 basechar 0
LayerCount: 2
Fore
SplineSet
1473 150 m 1
 1473 0 l 1
 1297 0 l 1
 1342 -50 1366 -110 1366 -172 c 0
 1366 -433 1069 -553 739 -553 c 0
 450 -553 103 -395 103 -52 c 0
 103 114 164 312 307 544 c 1
 435 466 l 1
 302 250 253 76 253 -52 c 0
 253 -267 482 -403 739 -403 c 0
 1065 -403 1216 -285 1216 -172 c 0
 1216 -111 1143 -1 812 -1 c 2
 737 -1 l 1
 737 150 l 1
 982 150 1228 150 1473 150 c 1
EndSplineSet
Colour: ffff
EndChar

StartChar: uniFE8E
Encoding: 65166 65166 112
Width: 596
VWidth: 1854
Flags: HMW
AnchorPoint: "Anchor-3" 346 0 basechar 0
AnchorPoint: "Anchor-5" 250 1411 basechar 0
LayerCount: 2
Fore
SplineSet
175 1411 m 1
 325 1411 l 1
 325 474 l 2
 325 344 348 264 384 219 c 0
 418 179 478 150 596 150 c 1
 596 0 l 1
 454 0 341 36 268 123 c 0
 195 212 175 332 175 474 c 2
 175 1411 l 1
EndSplineSet
PairPos2: "'kern' Horizontal Kerning in Arabic lookup 2 per glyph data 1" uni063A dx=-225 dy=0 dh=-225 dv=0 dx=0 dy=0 dh=0 dv=0
PairPos2: "'kern' Horizontal Kerning in Arabic lookup 2 per glyph data 1" uni0639 dx=-225 dy=0 dh=-225 dv=0 dx=0 dy=0 dh=0 dv=0
Colour: ffff
EndChar

StartChar: uniFEA2
Encoding: 65186 65186 113
Width: 1398
VWidth: 1854
Flags: HMW
AnchorPoint: "Anchor-3" 775 -860 basechar 0
AnchorPoint: "Anchor-5" 513 815 basechar 0
LayerCount: 2
Fore
SplineSet
1398 150 m 1
 1398 0 l 1
 1270 0 1170 33 1094 92 c 0
 1033 139 981 194 937 256 c 1
 539 141 253 -21 253 -320 c 0
 253 -582 487 -711 775 -711 c 0
 952 -711 1132 -657 1238 -568 c 1
 1334 -684 l 1
 1190 -803 980 -861 775 -861 c 0
 455 -861 103 -704 103 -320 c 0
 103 158 607 336 1086 451 c 1
 649 661 l 2
 603 683 561 691 522 691 c 0
 416 691 349 629 349 524 c 0
 349 501 352 473 360 447 c 1
 216 405 l 1
 204 447 199 487 199 524 c 0
 199 713 344 841 522 841 c 0
 583 841 648 828 713 797 c 2
 1315 507 l 1
 1315 349 l 1
 1256 336 l 2
 1201 324 1147 311 1094 298 c 1
 1121 266 1152 236 1186 210 c 0
 1234 173 1294 150 1398 150 c 1
EndSplineSet
Colour: ffff
EndChar

StartChar: uniFEA3
Encoding: 65187 65187 114
Width: 1316
VWidth: 1854
Flags: HMW
AnchorPoint: "Anchor-5" 430 852 basechar 0
AnchorPoint: "Anchor-3" 658 0 basechar 0
LayerCount: 2
Fore
SplineSet
0 150 m 0
 416 150 569 241 752 350 c 0
 820 390 892 426 970 453 c 1
 569 666 l 2
 519 693 480 702 430 702 c 0
 329 702 261 643 261 530 c 0
 261 498 264 461 268 432 c 1
 122 432 l 1
 113 468 111 501 111 530 c 0
 111 723 253 852 430 852 c 0
 502 852 570 836 640 798 c 2
 1182 510 l 1
 1182 354 l 1
 1123 341 l 2
 1010 316 921 274 828 220 c 0
 641 109 440 0 0 0 c 0
 -41 0 -74 34 -74 75 c 0
 -74 116 -41 150 0 150 c 0
EndSplineSet
Colour: ffff
EndChar

StartChar: uniFEA4
Encoding: 65188 65188 115
Width: 1316
VWidth: 1854
Flags: HMW
AnchorPoint: "Anchor-5" 430 852 basechar 0
AnchorPoint: "Anchor-3" 658 0 basechar 0
LayerCount: 2
Fore
SplineSet
111 530 m 0
 111 723 253 852 430 852 c 0
 502 852 570 839 640 801 c 2
 1182 513 l 1
 1182 354 l 1
 1123 341 l 2
 1081 332 1042 320 1005 306 c 1
 1033 272 1067 239 1104 210 c 0
 1152 173 1212 150 1316 150 c 1
 1316 0 l 1
 1091 0 961 111 865 241 c 1
 655 113 468 0 0 0 c 0
 -41 0 -74 34 -74 75 c 0
 -74 116 -41 150 0 150 c 0
 416 150 569 241 752 350 c 0
 820 390 892 426 970 453 c 1
 569 666 l 2
 519 693 480 702 430 702 c 0
 329 702 261 643 261 530 c 0
 261 498 264 461 268 432 c 1
 122 432 l 1
 113 468 111 501 111 530 c 0
EndSplineSet
Colour: ffff
EndChar

StartChar: uniFEAA
Encoding: 65194 65194 116
Width: 1180
VWidth: 1854
Flags: HMW
AnchorPoint: "Anchor-3" 421 0 basechar 0
AnchorPoint: "Anchor-5" 570 857 basechar 0
LayerCount: 2
Fore
SplineSet
1180 150 m 1
 1180 0 l 1
 1022 0 895 37 796 179 c 1
 711 47 540 0 368 0 c 0
 274 0 176 14 80 43 c 1
 124 187 l 1
 206 162 290 150 368 150 c 0
 577 150 690 229 690 336 c 0
 690 365 683 400 664 444 c 2
 501 828 l 1
 639 886 l 1
 838 419 l 2
 944 169 1004 150 1180 150 c 1
EndSplineSet
PairPos2: "'kern' Horizontal Kerning in Arabic lookup 2 per glyph data 3" uniFEDB dx=-300 dy=0 dh=-300 dv=0 dx=0 dy=0 dh=0 dv=0
PairPos2: "'kern' Horizontal Kerning in Arabic lookup 2 per glyph data 3" uniFB94 dx=-300 dy=0 dh=-300 dv=0 dx=0 dy=0 dh=0 dv=0
PairPos2: "'kern' Horizontal Kerning in Arabic lookup 2 per glyph data 3" uniFB90 dx=-300 dy=0 dh=-300 dv=0 dx=0 dy=0 dh=0 dv=0
PairPos2: "'kern' Horizontal Kerning in Arabic lookup 2 per glyph data 3" uni06AF dx=-300 dy=0 dh=-300 dv=0 dx=0 dy=0 dh=0 dv=0
PairPos2: "'kern' Horizontal Kerning in Arabic lookup 2 per glyph data 3" uni06A9 dx=-300 dy=0 dh=-300 dv=0 dx=0 dy=0 dh=0 dv=0
PairPos2: "'kern' Horizontal Kerning in Arabic lookup 2 per glyph data 1" uni063A dx=-375 dy=0 dh=-375 dv=0 dx=0 dy=0 dh=0 dv=0
PairPos2: "'kern' Horizontal Kerning in Arabic lookup 2 per glyph data 1" uni0639 dx=-375 dy=0 dh=-375 dv=0 dx=0 dy=0 dh=0 dv=0
Colour: ffff
EndChar

StartChar: uniFEAE
Encoding: 65198 65198 117
Width: 910
VWidth: 1854
Flags: HMW
AnchorPoint: "Anchor-5" 506 571 basechar 0
AnchorPoint: "Anchor-3" 488 -402 basechar 0
LayerCount: 2
Fore
SplineSet
910 150 m 1
 910 0 l 1
 815 0 738 19 677 54 c 1
 650 -203 485 -403 176 -516 c 1
 124 -376 l 1
 420 -268 531 -98 531 131 c 0
 531 249 498 389 436 543 c 1
 576 599 l 1
 619 493 649 390 666 292 c 1
 705 191 752 150 910 150 c 1
EndSplineSet
PairPos2: "'kern' Horizontal Kerning in Arabic lookup 2 per glyph data 2" uni0621 dx=-200 dy=0 dh=-200 dv=0 dx=0 dy=0 dh=0 dv=0
PairPos2: "'kern' Horizontal Kerning in Arabic lookup 2 per glyph data 4" parenleft dx=-300 dy=0 dh=-300 dv=0 dx=0 dy=0 dh=0 dv=0
PairPos2: "'kern' Horizontal Kerning in Arabic lookup 2 per glyph data 4" less dx=-420 dy=0 dh=-420 dv=0 dx=0 dy=0 dh=0 dv=0
PairPos2: "'kern' Horizontal Kerning in Arabic lookup 2 per glyph data 4" guillemotleft dx=-420 dy=0 dh=-420 dv=0 dx=0 dy=0 dh=0 dv=0
PairPos2: "'kern' Horizontal Kerning in Arabic lookup 2 per glyph data 4" bracketleft dx=-300 dy=0 dh=-300 dv=0 dx=0 dy=0 dh=0 dv=0
PairPos2: "'kern' Horizontal Kerning in Arabic lookup 2 per glyph data 3" uniFEDB dx=-300 dy=0 dh=-300 dv=0 dx=0 dy=0 dh=0 dv=0
PairPos2: "'kern' Horizontal Kerning in Arabic lookup 2 per glyph data 3" uniFB94 dx=-300 dy=0 dh=-300 dv=0 dx=0 dy=0 dh=0 dv=0
PairPos2: "'kern' Horizontal Kerning in Arabic lookup 2 per glyph data 3" uniFB90 dx=-300 dy=0 dh=-300 dv=0 dx=0 dy=0 dh=0 dv=0
PairPos2: "'kern' Horizontal Kerning in Arabic lookup 2 per glyph data 3" uni06AF dx=-300 dy=0 dh=-300 dv=0 dx=0 dy=0 dh=0 dv=0
PairPos2: "'kern' Horizontal Kerning in Arabic lookup 2 per glyph data 3" uni06A9 dx=-300 dy=0 dh=-300 dv=0 dx=0 dy=0 dh=0 dv=0
PairPos2: "'kern' Horizontal Kerning in Arabic lookup 2 per glyph data 2" uni064A dx=-100 dy=0 dh=-100 dv=0 dx=0 dy=0 dh=0 dv=0
PairPos2: "'kern' Horizontal Kerning in Arabic lookup 2 per glyph data 2" uni0649 dx=-100 dy=0 dh=-100 dv=0 dx=0 dy=0 dh=0 dv=0
PairPos2: "'kern' Horizontal Kerning in Arabic lookup 2 per glyph data 2" uni06CC dx=-100 dy=0 dh=-100 dv=0 dx=0 dy=0 dh=0 dv=0
PairPos2: "'kern' Horizontal Kerning in Arabic lookup 2 per glyph data 2" space dx=-300 dy=0 dh=-300 dv=0 dx=0 dy=0 dh=0 dv=0
PairPos2: "'kern' Horizontal Kerning in Arabic lookup 2 per glyph data 2" uniFEFB dx=-325 dy=0 dh=-325 dv=0 dx=0 dy=0 dh=0 dv=0
PairPos2: "'kern' Horizontal Kerning in Arabic lookup 2 per glyph data 2" uniFEF9 dx=-325 dy=0 dh=-325 dv=0 dx=0 dy=0 dh=0 dv=0
PairPos2: "'kern' Horizontal Kerning in Arabic lookup 2 per glyph data 2" uniFEF7 dx=-325 dy=0 dh=-325 dv=0 dx=0 dy=0 dh=0 dv=0
PairPos2: "'kern' Horizontal Kerning in Arabic lookup 2 per glyph data 2" uniFEF5 dx=-325 dy=0 dh=-325 dv=0 dx=0 dy=0 dh=0 dv=0
PairPos2: "'kern' Horizontal Kerning in Arabic lookup 2 per glyph data 2" uniFEEB dx=-250 dy=0 dh=-250 dv=0 dx=0 dy=0 dh=0 dv=0
PairPos2: "'kern' Horizontal Kerning in Arabic lookup 2 per glyph data 2" uniFEE7 dx=-225 dy=0 dh=-225 dv=0 dx=0 dy=0 dh=0 dv=0
PairPos2: "'kern' Horizontal Kerning in Arabic lookup 2 per glyph data 2" uniFEE3 dx=-300 dy=0 dh=-300 dv=0 dx=0 dy=0 dh=0 dv=0
PairPos2: "'kern' Horizontal Kerning in Arabic lookup 2 per glyph data 2" uniFEDF dx=-325 dy=0 dh=-325 dv=0 dx=0 dy=0 dh=0 dv=0
PairPos2: "'kern' Horizontal Kerning in Arabic lookup 2 per glyph data 2" uniFEDB dx=-400 dy=0 dh=-400 dv=0 dx=0 dy=0 dh=0 dv=0
PairPos2: "'kern' Horizontal Kerning in Arabic lookup 2 per glyph data 2" uniFED7 dx=-250 dy=0 dh=-250 dv=0 dx=0 dy=0 dh=0 dv=0
PairPos2: "'kern' Horizontal Kerning in Arabic lookup 2 per glyph data 2" uniFED3 dx=-250 dy=0 dh=-250 dv=0 dx=0 dy=0 dh=0 dv=0
PairPos2: "'kern' Horizontal Kerning in Arabic lookup 2 per glyph data 2" uniFECF dx=-300 dy=0 dh=-300 dv=0 dx=0 dy=0 dh=0 dv=0
PairPos2: "'kern' Horizontal Kerning in Arabic lookup 2 per glyph data 2" uniFECB dx=-300 dy=0 dh=-300 dv=0 dx=0 dy=0 dh=0 dv=0
PairPos2: "'kern' Horizontal Kerning in Arabic lookup 2 per glyph data 2" uniFEC7 dx=-300 dy=0 dh=-300 dv=0 dx=0 dy=0 dh=0 dv=0
PairPos2: "'kern' Horizontal Kerning in Arabic lookup 2 per glyph data 2" uniFEC3 dx=-300 dy=0 dh=-300 dv=0 dx=0 dy=0 dh=0 dv=0
PairPos2: "'kern' Horizontal Kerning in Arabic lookup 2 per glyph data 2" uniFEBF dx=-300 dy=0 dh=-300 dv=0 dx=0 dy=0 dh=0 dv=0
PairPos2: "'kern' Horizontal Kerning in Arabic lookup 2 per glyph data 2" uniFEBB dx=-300 dy=0 dh=-300 dv=0 dx=0 dy=0 dh=0 dv=0
PairPos2: "'kern' Horizontal Kerning in Arabic lookup 2 per glyph data 2" uniFEB7 dx=-200 dy=0 dh=-200 dv=0 dx=0 dy=0 dh=0 dv=0
PairPos2: "'kern' Horizontal Kerning in Arabic lookup 2 per glyph data 2" uniFEB3 dx=-200 dy=0 dh=-200 dv=0 dx=0 dy=0 dh=0 dv=0
PairPos2: "'kern' Horizontal Kerning in Arabic lookup 2 per glyph data 2" uniFEA7 dx=-250 dy=0 dh=-250 dv=0 dx=0 dy=0 dh=0 dv=0
PairPos2: "'kern' Horizontal Kerning in Arabic lookup 2 per glyph data 2" uniFEA3 dx=-250 dy=0 dh=-250 dv=0 dx=0 dy=0 dh=0 dv=0
PairPos2: "'kern' Horizontal Kerning in Arabic lookup 2 per glyph data 2" uniFE9F dx=-250 dy=0 dh=-250 dv=0 dx=0 dy=0 dh=0 dv=0
PairPos2: "'kern' Horizontal Kerning in Arabic lookup 2 per glyph data 2" uniFE9B dx=-225 dy=0 dh=-225 dv=0 dx=0 dy=0 dh=0 dv=0
PairPos2: "'kern' Horizontal Kerning in Arabic lookup 2 per glyph data 2" uniFE97 dx=-225 dy=0 dh=-225 dv=0 dx=0 dy=0 dh=0 dv=0
PairPos2: "'kern' Horizontal Kerning in Arabic lookup 2 per glyph data 2" uniFE91 dx=-225 dy=0 dh=-225 dv=0 dx=0 dy=0 dh=0 dv=0
PairPos2: "'kern' Horizontal Kerning in Arabic lookup 2 per glyph data 2" uniFE8B dx=-225 dy=0 dh=-225 dv=0 dx=0 dy=0 dh=0 dv=0
PairPos2: "'kern' Horizontal Kerning in Arabic lookup 2 per glyph data 2" uniFB94 dx=-400 dy=0 dh=-400 dv=0 dx=0 dy=0 dh=0 dv=0
PairPos2: "'kern' Horizontal Kerning in Arabic lookup 2 per glyph data 2" uniFB90 dx=-400 dy=0 dh=-400 dv=0 dx=0 dy=0 dh=0 dv=0
PairPos2: "'kern' Horizontal Kerning in Arabic lookup 2 per glyph data 2" uniFB7C dx=-250 dy=0 dh=-250 dv=0 dx=0 dy=0 dh=0 dv=0
PairPos2: "'kern' Horizontal Kerning in Arabic lookup 2 per glyph data 2" uni06CA dx=-150 dy=0 dh=-150 dv=0 dx=0 dy=0 dh=0 dv=0
PairPos2: "'kern' Horizontal Kerning in Arabic lookup 2 per glyph data 2" uni06C0 dx=-300 dy=0 dh=-300 dv=0 dx=0 dy=0 dh=0 dv=0
PairPos2: "'kern' Horizontal Kerning in Arabic lookup 2 per glyph data 2" uni06AF dx=-400 dy=0 dh=-400 dv=0 dx=0 dy=0 dh=0 dv=0
PairPos2: "'kern' Horizontal Kerning in Arabic lookup 2 per glyph data 2" uni06A9 dx=-400 dy=0 dh=-400 dv=0 dx=0 dy=0 dh=0 dv=0
PairPos2: "'kern' Horizontal Kerning in Arabic lookup 2 per glyph data 2" uni0698 dx=-150 dy=0 dh=-150 dv=0 dx=0 dy=0 dh=0 dv=0
PairPos2: "'kern' Horizontal Kerning in Arabic lookup 2 per glyph data 2" uni0686 dx=-125 dy=0 dh=-125 dv=0 dx=0 dy=0 dh=0 dv=0
PairPos2: "'kern' Horizontal Kerning in Arabic lookup 2 per glyph data 2" uni067E dx=-300 dy=0 dh=-300 dv=0 dx=0 dy=0 dh=0 dv=0
PairPos2: "'kern' Horizontal Kerning in Arabic lookup 2 per glyph data 2" uni0648 dx=-150 dy=0 dh=-150 dv=0 dx=0 dy=0 dh=0 dv=0
PairPos2: "'kern' Horizontal Kerning in Arabic lookup 2 per glyph data 2" uni0647 dx=-300 dy=0 dh=-300 dv=0 dx=0 dy=0 dh=0 dv=0
PairPos2: "'kern' Horizontal Kerning in Arabic lookup 2 per glyph data 2" uni0646 dx=-150 dy=0 dh=-150 dv=0 dx=0 dy=0 dh=0 dv=0
PairPos2: "'kern' Horizontal Kerning in Arabic lookup 2 per glyph data 2" uni0645 dx=-300 dy=0 dh=-300 dv=0 dx=0 dy=0 dh=0 dv=0
PairPos2: "'kern' Horizontal Kerning in Arabic lookup 2 per glyph data 2" uni0644 dx=-112 dy=0 dh=-112 dv=0 dx=0 dy=0 dh=0 dv=0
PairPos2: "'kern' Horizontal Kerning in Arabic lookup 2 per glyph data 2" uni0643 dx=-300 dy=0 dh=-300 dv=0 dx=0 dy=0 dh=0 dv=0
PairPos2: "'kern' Horizontal Kerning in Arabic lookup 2 per glyph data 2" uni0642 dx=-150 dy=0 dh=-150 dv=0 dx=0 dy=0 dh=0 dv=0
PairPos2: "'kern' Horizontal Kerning in Arabic lookup 2 per glyph data 2" uni0641 dx=-250 dy=0 dh=-250 dv=0 dx=0 dy=0 dh=0 dv=0
PairPos2: "'kern' Horizontal Kerning in Arabic lookup 2 per glyph data 2" uni0638 dx=-300 dy=0 dh=-300 dv=0 dx=0 dy=0 dh=0 dv=0
PairPos2: "'kern' Horizontal Kerning in Arabic lookup 2 per glyph data 2" uni0637 dx=-300 dy=0 dh=-300 dv=0 dx=0 dy=0 dh=0 dv=0
PairPos2: "'kern' Horizontal Kerning in Arabic lookup 2 per glyph data 2" uni0636 dx=-300 dy=0 dh=-300 dv=0 dx=0 dy=0 dh=0 dv=0
PairPos2: "'kern' Horizontal Kerning in Arabic lookup 2 per glyph data 2" uni0635 dx=-300 dy=0 dh=-300 dv=0 dx=0 dy=0 dh=0 dv=0
PairPos2: "'kern' Horizontal Kerning in Arabic lookup 2 per glyph data 2" uni0634 dx=-200 dy=0 dh=-200 dv=0 dx=0 dy=0 dh=0 dv=0
PairPos2: "'kern' Horizontal Kerning in Arabic lookup 2 per glyph data 2" uni0633 dx=-200 dy=0 dh=-200 dv=0 dx=0 dy=0 dh=0 dv=0
PairPos2: "'kern' Horizontal Kerning in Arabic lookup 2 per glyph data 2" uni0632 dx=-150 dy=0 dh=-150 dv=0 dx=0 dy=0 dh=0 dv=0
PairPos2: "'kern' Horizontal Kerning in Arabic lookup 2 per glyph data 2" uni0631 dx=-150 dy=0 dh=-150 dv=0 dx=0 dy=0 dh=0 dv=0
PairPos2: "'kern' Horizontal Kerning in Arabic lookup 2 per glyph data 2" uni0630 dx=-250 dy=0 dh=-250 dv=0 dx=0 dy=0 dh=0 dv=0
PairPos2: "'kern' Horizontal Kerning in Arabic lookup 2 per glyph data 2" uni062F dx=-250 dy=0 dh=-250 dv=0 dx=0 dy=0 dh=0 dv=0
PairPos2: "'kern' Horizontal Kerning in Arabic lookup 2 per glyph data 2" uni062E dx=-125 dy=0 dh=-125 dv=0 dx=0 dy=0 dh=0 dv=0
PairPos2: "'kern' Horizontal Kerning in Arabic lookup 2 per glyph data 2" uni062D dx=-125 dy=0 dh=-125 dv=0 dx=0 dy=0 dh=0 dv=0
PairPos2: "'kern' Horizontal Kerning in Arabic lookup 2 per glyph data 2" uni062C dx=-125 dy=0 dh=-125 dv=0 dx=0 dy=0 dh=0 dv=0
PairPos2: "'kern' Horizontal Kerning in Arabic lookup 2 per glyph data 2" uni062B dx=-300 dy=0 dh=-300 dv=0 dx=0 dy=0 dh=0 dv=0
PairPos2: "'kern' Horizontal Kerning in Arabic lookup 2 per glyph data 2" uni062A dx=-300 dy=0 dh=-300 dv=0 dx=0 dy=0 dh=0 dv=0
PairPos2: "'kern' Horizontal Kerning in Arabic lookup 2 per glyph data 2" uni0629 dx=-300 dy=0 dh=-300 dv=0 dx=0 dy=0 dh=0 dv=0
PairPos2: "'kern' Horizontal Kerning in Arabic lookup 2 per glyph data 2" uni0628 dx=-300 dy=0 dh=-300 dv=0 dx=0 dy=0 dh=0 dv=0
PairPos2: "'kern' Horizontal Kerning in Arabic lookup 2 per glyph data 2" uni0627 dx=-250 dy=0 dh=-250 dv=0 dx=0 dy=0 dh=0 dv=0
PairPos2: "'kern' Horizontal Kerning in Arabic lookup 2 per glyph data 2" uni0624 dx=-150 dy=0 dh=-150 dv=0 dx=0 dy=0 dh=0 dv=0
PairPos2: "'kern' Horizontal Kerning in Arabic lookup 2 per glyph data 2" uni0623 dx=-250 dy=0 dh=-250 dv=0 dx=0 dy=0 dh=0 dv=0
PairPos2: "'kern' Horizontal Kerning in Arabic lookup 2 per glyph data 2" uni0622 dx=-250 dy=0 dh=-250 dv=0 dx=0 dy=0 dh=0 dv=0
PairPos2: "'kern' Horizontal Kerning in Arabic lookup 2 per glyph data 2" uniFB58 dx=-150 dy=0 dh=-150 dv=0 dx=0 dy=0 dh=0 dv=0
PairPos2: "'kern' Horizontal Kerning in Arabic lookup 2 per glyph data 2" uniFEF3 dx=-150 dy=0 dh=-150 dv=0 dx=0 dy=0 dh=0 dv=0
PairPos2: "'kern' Horizontal Kerning in Arabic lookup 2 per glyph data 2" uniFBFE dx=-150 dy=0 dh=-150 dv=0 dx=0 dy=0 dh=0 dv=0
PairPos2: "'kern' Horizontal Kerning in Arabic lookup 2 per glyph data 1" uni063A dx=-350 dy=0 dh=-350 dv=0 dx=0 dy=0 dh=0 dv=0
PairPos2: "'kern' Horizontal Kerning in Arabic lookup 2 per glyph data 1" uni0639 dx=-350 dy=0 dh=-350 dv=0 dx=0 dy=0 dh=0 dv=0
Colour: ffff
EndChar

StartChar: uniFEB2
Encoding: 65202 65202 118
Width: 2734
VWidth: 1854
Flags: HMW
AnchorPoint: "Anchor-3" 749 -502 basechar 0
AnchorPoint: "Anchor-5" 1818 594 basechar 0
LayerCount: 2
Fore
SplineSet
2201 690 m 1
 2347 720 l 1
 2401 458 l 2
 2445 239 2463 150 2734 150 c 1
 2734 0 l 1
 2528 0 2417 65 2350 164 c 1
 2306 70 2223 0 2083 0 c 0
 1989 0 1888 41 1826 128 c 1
 1769 48 1688 0 1593 0 c 0
 1538 0 1485 16 1437 46 c 1
 1420 -330 1064 -501 749 -501 c 0
 443 -501 103 -340 103 11 c 0
 103 185 190 388 385 619 c 1
 499 523 l 1
 316 308 253 135 253 11 c 0
 253 -216 477 -351 749 -351 c 0
 1033 -351 1288 -203 1288 74 c 0
 1288 142 1272 222 1238 311 c 2
 1149 544 l 1
 1289 598 l 1
 1378 365 l 2
 1440 206 1531 150 1593 150 c 0
 1654 150 1734 204 1760 360 c 2
 1796 586 l 1
 1944 562 l 1
 1917 394 l 2
 1915 376 1915 357 1915 337 c 0
 1915 191 1998 150 2083 150 c 0
 2202 150 2244 229 2244 385 c 0
 2244 435 2240 487 2232 536 c 2
 2201 690 l 1
EndSplineSet
Colour: ffff
EndChar

StartChar: uniFEB3
Encoding: 65203 65203 119
Width: 1538
VWidth: 2374
Flags: HMW
AnchorPoint: "Anchor-5" 880 594 basechar 0
AnchorPoint: "Anchor-3" 881 0 basechar 0
LayerCount: 2
Fore
SplineSet
1435 343 m 0
 1435 152 1318 0 1128 0 c 0
 1018 0 931 56 880 133 c 1
 829 56 742 0 632 0 c 0
 510 0 419 68 369 157 c 1
 297 57 179 0 0 0 c 0
 -41 0 -74 34 -74 75 c 0
 -74 116 -41 150 0 150 c 0
 257 150 309 253 309 517 c 2
 309 594 l 1
 459 594 l 1
 459 541 459 488 459 435 c 0
 459 330 483 245 521 200 c 0
 548 168 579 150 632 150 c 0
 685 150 716 168 743 200 c 0
 781 245 805 330 805 435 c 2
 805 594 l 1
 955 594 l 1
 955 435 l 2
 955 330 979 245 1017 200 c 0
 1044 168 1075 150 1128 150 c 0
 1239 150 1285 232 1285 343 c 0
 1285 365 1283 389 1279 416 c 2
 1236 695 l 1
 1384 717 l 1
 1427 438 l 2
 1431 407 1435 376 1435 343 c 0
EndSplineSet
Colour: ffff
EndChar

StartChar: uniFEB4
Encoding: 65204 65204 120
Width: 1735
VWidth: 2374
Flags: HMW
AnchorPoint: "Anchor-3" 881 0 basechar 0
AnchorPoint: "Anchor-5" 880 594 basechar 0
LayerCount: 2
Fore
SplineSet
0 150 m 0
 257 150 309 253 309 517 c 2
 309 594 l 1
 459 594 l 1
 459 541 459 488 459 435 c 0
 459 330 483 245 521 200 c 0
 548 168 579 150 632 150 c 0
 773 150 805 296 805 435 c 2
 805 594 l 1
 955 594 l 1
 955 435 l 2
 955 339 976 249 1017 200 c 0
 1044 168 1075 150 1128 150 c 0
 1240 150 1284 231 1284 343 c 0
 1284 389 1275 444 1268 486 c 2
 1236 695 l 1
 1384 717 l 1
 1407 567 l 2
 1428 425 1453 266 1531 202 c 0
 1572 168 1635 150 1735 150 c 1
 1735 0 l 1
 1583 0 1459 44 1383 140 c 1
 1333 56 1243 0 1128 0 c 0
 1018 0 931 56 880 133 c 1
 829 55 742 0 632 0 c 0
 510 0 419 68 369 157 c 1
 297 57 179 0 0 0 c 0
 -41 0 -74 34 -74 75 c 0
 -74 116 -41 150 0 150 c 0
EndSplineSet
Colour: ffff
EndChar

StartChar: uniFEBA
Encoding: 65210 65210 121
Width: 2530
VWidth: 1854
Flags: HMW
AnchorPoint: "Anchor-5" 2023 729 basechar 0
AnchorPoint: "Anchor-3" 749 -502 basechar 0
LayerCount: 2
Fore
SplineSet
1791 150 m 0
 2033 150 2188 242 2188 367 c 0
 2188 478 2110 549 1984 549 c 0
 1859 549 1682 466 1534 188 c 1
 1614 163 1704 150 1791 150 c 0
2530 150 m 1
 2530 0 l 1
 1791 0 l 2
 1671 0 1548 21 1439 63 c 1
 1432 -324 1069 -501 750 -501 c 0
 444 -501 104 -340 104 11 c 0
 104 185 190 389 386 620 c 1
 500 522 l 1
 317 307 254 135 254 11 c 0
 254 -216 478 -351 750 -351 c 0
 1034 -351 1289 -203 1289 74 c 0
 1289 142 1274 220 1239 311 c 2
 1149 544 l 1
 1289 598 l 1
 1379 365 l 2
 1391 334 1402 303 1410 273 c 1
 1574 570 1792 699 1984 699 c 0
 2175 699 2338 570 2338 367 c 0
 2338 276 2304 205 2250 150 c 1
 2530 150 l 1
EndSplineSet
Colour: ffff
EndChar

StartChar: uniFEBB
Encoding: 65211 65211 122
Width: 1612
VWidth: 1854
Flags: HMW
AnchorPoint: "Anchor-5" 1167 769 basechar 0
AnchorPoint: "Anchor-3" 821 0 basechar 0
LayerCount: 2
Fore
SplineSet
0 150 m 0
 123 150 192 178 232 219 c 0
 280 267 307 357 309 502 c 2
 309 594 l 1
 459 594 l 1
 459 519 459 444 459 369 c 0
 459 292 477 251 503 224 c 1
 695 593 952 740 1157 740 c 0
 1322 740 1487 631 1487 434 c 0
 1487 145 1100 0 829 0 c 0
 621 0 457 30 371 151 c 1
 295 47 166 0 0 0 c 0
 -41 0 -74 34 -74 75 c 0
 -74 116 -41 150 0 150 c 0
640 163 m 1
 691 154 755 150 829 150 c 0
 1088 150 1337 301 1337 434 c 0
 1337 531 1264 590 1157 590 c 0
 1027 590 814 493 640 163 c 1
EndSplineSet
Colour: ffff
EndChar

StartChar: uniFEBC
Encoding: 65212 65212 123
Width: 1621
VWidth: 1854
Flags: HMW
AnchorPoint: "Anchor-3" 821 0 basechar 0
AnchorPoint: "Anchor-5" 1167 769 basechar 0
LayerCount: 2
Fore
SplineSet
0 150 m 0
 258 150 309 270 309 517 c 2
 309 594 l 1
 459 594 l 1
 459 369 l 2
 459 301 477 252 503 224 c 1
 695 593 952 740 1157 740 c 0
 1322 740 1487 631 1487 434 c 0
 1487 315 1421 220 1325 150 c 1
 1621 150 l 1
 1621 0 l 1
 829 0 l 2
 621 0 458 29 370 150 c 1
 294 46 165 0 0 0 c 0
 -41 0 -74 34 -74 75 c 0
 -74 116 -41 150 0 150 c 0
829 150 m 0
 1088 150 1337 301 1337 434 c 0
 1337 531 1264 590 1157 590 c 0
 1027 590 814 493 640 163 c 1
 691 154 755 150 829 150 c 0
EndSplineSet
Colour: ffff
EndChar

StartChar: uniFEC2
Encoding: 65218 65218 124
Width: 1537
VWidth: 1854
Flags: HMW
AnchorPoint: "Anchor-3" 768 0 basechar 0
AnchorPoint: "Anchor-5" 1088 764 basechar 0
LayerCount: 2
Fore
SplineSet
554 151 m 1
 1181 162 1240 294 1240 434 c 0
 1240 531 1167 590 1060 590 c 0
 932 590 680 477 554 151 c 1
1537 150 m 1
 1537 0 l 1
 105 0 l 1
 105 150 l 1
 403 150 l 1
 403 1411 l 1
 553 1411 l 1
 553 454 l 1
 708 653 911 740 1060 740 c 0
 1225 740 1390 631 1390 434 c 0
 1390 317 1351 221 1254 150 c 1
 1537 150 l 1
EndSplineSet
Colour: ffff
EndChar

StartChar: uniFEC3
Encoding: 65219 65219 125
Width: 1317
VWidth: 1854
Flags: HMW
AnchorPoint: "Anchor-3" 548 0 basechar 0
AnchorPoint: "Anchor-5" 868 764 basechar 0
LayerCount: 2
Fore
SplineSet
0 150 m 2
 183 150 l 1
 183 1411 l 1
 333 1411 l 1
 333 454 l 1
 487 653 691 740 840 740 c 0
 1005 740 1170 631 1170 434 c 0
 1170 156 951 0 258 0 c 2
 0 0 l 2
 -41 0 -74 34 -74 75 c 0
 -74 116 -41 150 0 150 c 2
334 151 m 1
 961 162 1020 294 1020 434 c 0
 1020 531 947 590 840 590 c 0
 712 590 459 477 334 151 c 1
EndSplineSet
Colour: ffff
EndChar

StartChar: uniFEC4
Encoding: 65220 65220 126
Width: 1317
VWidth: 1854
Flags: HMW
AnchorPoint: "Anchor-5" 868 764 basechar 0
AnchorPoint: "Anchor-3" 548 0 basechar 0
LayerCount: 2
Fore
SplineSet
0 150 m 2
 183 151 l 1
 183 1411 l 1
 333 1411 l 1
 333 454 l 1
 488 653 691 740 840 740 c 0
 1005 740 1170 631 1170 434 c 0
 1170 331 1137 226 1037 150 c 1
 1317 150 l 1
 1317 0 l 1
 0 0 l 2
 -41 0 -74 34 -74 75 c 0
 -74 116 -41 150 0 150 c 2
335 152 m 1
 962 163 1020 295 1020 434 c 0
 1020 531 947 590 840 590 c 0
 712 590 461 477 335 152 c 1
EndSplineSet
Colour: ffff
EndChar

StartChar: uniFECA
Encoding: 65226 65226 127
Width: 1144
VWidth: 2374
Flags: HMW
AnchorPoint: "Anchor-5" 596 761 basechar 0
AnchorPoint: "Anchor-3" 789 -862 basechar 0
LayerCount: 2
Fore
SplineSet
1144 0 m 1
 941 0 773 39 630 101 c 1
 411 -24 253 -189 253 -408 c 0
 253 -609 505 -712 789 -712 c 0
 892 -712 990 -697 1053 -674 c 1
 1103 -816 l 1
 1016 -847 906 -862 789 -862 c 0
 507 -862 103 -761 103 -408 c 0
 103 -143 272 49 474 182 c 1
 340 264 235 358 136 452 c 1
 137 587 l 1
 244 714 415 761 596 761 c 0
 779 761 981 664 981 478 c 0
 981 352 898 263 801 198 c 1
 900 168 1012 150 1144 150 c 1
 1144 0 l 1
286 517 m 1
 386 426 494 336 625 269 c 1
 760 340 831 407 831 478 c 0
 831 530 749 611 596 611 c 0
 474 611 346 575 286 527 c 1
 286 517 l 1
EndSplineSet
Colour: ffff
EndChar

StartChar: uniFECB
Encoding: 65227 65227 128
Width: 1083
VWidth: 1854
Flags: HMW
AnchorPoint: "Anchor-3" 468 0 basechar 0
AnchorPoint: "Anchor-5" 527 843 basechar 0
LayerCount: 2
Fore
SplineSet
0 150 m 0
 87 150 171 155 252 164 c 1
 178 220 128 306 128 411 c 0
 128 671 320 843 527 843 c 0
 682 843 795 769 862 689 c 1
 746 593 l 1
 703 645 632 693 527 693 c 0
 404 693 278 593 278 411 c 0
 278 319 342 257 462 233 c 0
 491 227 528 223 564 223 c 0
 583 223 601 224 618 227 c 2
 891 279 l 1
 919 131 l 1
 452 42 l 2
 308 15 161 0 0 0 c 0
 -41 0 -74 34 -74 75 c 0
 -74 116 -41 150 0 150 c 0
EndSplineSet
Colour: ffff
EndChar

StartChar: uniFECC
Encoding: 65228 65228 129
Width: 996
VWidth: 1853
Flags: HMW
AnchorPoint: "Anchor-5" 519 762 basechar 0
AnchorPoint: "Anchor-3" 488 0 basechar 0
LayerCount: 2
Fore
SplineSet
0 150 m 0
 132 150 262 162 375 186 c 1
 259 261 159 350 63 442 c 1
 63 577 l 1
 164 695 334 761 519 761 c 0
 695 761 907 666 907 439 c 0
 907 329 843 240 757 178 c 1
 830 160 909 150 996 150 c 1
 996 0 l 1
 834 0 690 32 568 83 c 1
 407 27 206 0 0 0 c 0
 -41 0 -74 34 -74 75 c 0
 -74 116 -41 150 0 150 c 0
213 507 m 1
 325 404 437 312 572 246 c 1
 684 302 757 364 757 439 c 0
 757 546 661 611 519 611 c 0
 400 611 273 569 213 518 c 1
 213 507 l 1
EndSplineSet
Colour: ffff
EndChar

StartChar: uniFEDB
Encoding: 65243 65243 130
Width: 999
VWidth: 1854
Flags: HMW
AnchorPoint: "Anchor-5" 455 1258 basechar 0
AnchorPoint: "Anchor-3" 355 0 basechar 0
LayerCount: 2
Fore
SplineSet
0 150 m 2
 92 150 l 2
 366 150 469 173 469 298 c 0
 469 425 258 690 50 847 c 2
 20 870 l 1
 20 1034 l 1
 55 1056 l 2
 289 1206 563 1313 834 1369 c 1
 864 1223 l 1
 624 1174 379 1078 170 951 c 1
 170 944 l 1
 379 778 619 518 619 298 c 0
 619 11 326 0 92 0 c 2
 0 0 l 2
 -41 0 -74 34 -74 75 c 0
 -74 116 -41 150 0 150 c 2
EndSplineSet
MultipleSubs2: "Multiple substitution 0 subtable" uniFEDB uniE000 uniE000
Colour: ffff
EndChar

StartChar: uniFEDC
Encoding: 65244 65244 131
Width: 900
VWidth: 1854
Flags: HMW
AnchorPoint: "Anchor-5" 455 1258 basechar 0
AnchorPoint: "Anchor-3" 355 0 basechar 0
LayerCount: 2
Fore
SplineSet
0 150 m 2
 92 150 l 2
 366 150 469 173 469 298 c 0
 469 425 258 690 50 847 c 2
 20 870 l 1
 20 1034 l 1
 55 1056 l 2
 289 1206 563 1313 834 1369 c 1
 864 1223 l 1
 624 1174 379 1078 170 951 c 1
 170 944 l 1
 354 799 561 580 609 380 c 1
 664 229 704 150 900 150 c 1
 900 0 l 1
 740 0 640 56 573 135 c 1
 481 7 270 0 92 0 c 2
 0 0 l 2
 -41 0 -74 34 -74 75 c 0
 -74 116 -41 150 0 150 c 2
EndSplineSet
MultipleSubs2: "Multiple substitution 0 subtable" uniFEDC uniE000 uniE000
Colour: ffff
EndChar

StartChar: uniFEDE
Encoding: 65246 65246 132
Width: 1549
VWidth: 1854
Flags: HMW
AnchorPoint: "Anchor-3" 663 -502 basechar 0
AnchorPoint: "Anchor-5" 731 712 basechar 0
LayerCount: 2
Fore
SplineSet
1549 150 m 1
 1549 0 l 1
 1423 0 1318 26 1241 86 c 1
 1223 -315 940 -503 663 -503 c 0
 392 -503 103 -323 103 -5 c 0
 103 142 152 311 256 497 c 1
 387 425 l 1
 292 255 253 108 253 -5 c 0
 253 -215 446 -353 663 -353 c 0
 877 -353 1092 -220 1092 126 c 2
 1092 1411 l 1
 1242 1411 l 1
 1242 517 l 2
 1242 375 1265 284 1306 232 c 0
 1346 182 1413 150 1549 150 c 1
EndSplineSet
Colour: ffff
EndChar

StartChar: uniFEDF
Encoding: 65247 65247 133
Width: 596
VWidth: 1854
Flags: HMW
AnchorPoint: "Anchor-5" 346 1411 basechar 0
AnchorPoint: "Anchor-3" 242 0 basechar 0
LayerCount: 2
Fore
SplineSet
0 150 m 0
 118 150 178 179 212 219 c 0
 248 264 271 344 271 474 c 2
 271 1411 l 1
 421 1411 l 1
 421 474 l 2
 421 332 401 212 328 123 c 0
 255 36 141 0 0 0 c 0
 -41 0 -74 34 -74 75 c 0
 -74 116 -41 150 0 150 c 0
EndSplineSet
Colour: ffff
EndChar

StartChar: uniFEE0
Encoding: 65248 65248 134
Width: 692
VWidth: 1854
Flags: HMW
AnchorPoint: "Anchor-3" 346 0 basechar 0
AnchorPoint: "Anchor-5" 346 1411 basechar 0
LayerCount: 2
Fore
SplineSet
0 150 m 0
 118 150 178 179 212 219 c 0
 256 273 271 366 271 474 c 2
 271 1411 l 1
 421 1411 l 1
 421 474 l 2
 421 365 436 273 480 219 c 0
 513 180 573 150 692 150 c 1
 692 0 l 1
 537 0 415 46 346 148 c 1
 277 46 155 0 0 0 c 0
 -41 0 -74 34 -74 75 c 0
 -74 116 -41 150 0 150 c 0
EndSplineSet
Colour: ffff
EndChar

StartChar: uniFEE2
Encoding: 65250 65250 135
Width: 1329
VWidth: 2374
Flags: HMW
AnchorPoint: "Anchor-3" 668 -50 basechar 0
AnchorPoint: "Anchor-5" 750 696 basechar 0
LayerCount: 2
Fore
SplineSet
778 0 m 0
 675 0 525 38 422 38 c 0
 324 38 253 -11 253 -149 c 2
 253 -883 l 1
 103 -883 l 1
 103 -149 l 2
 103 43 222 166 377 185 c 1
 388 392 464 696 750 696 c 0
 932 696 1044 555 1082 371 c 1
 1083 371 l 1
 1112 205 1178 150 1329 150 c 1
 1329 0 l 1
 1214 0 1122 35 1055 99 c 1
 993 21 873 0 778 0 c 0
527 181 m 1
 599 168 714 150 778 150 c 0
 912 150 946 182 946 227 c 0
 946 271 941 309 935 345 c 0
 908 482 832 546 750 546 c 0
 609 546 539 390 527 181 c 1
EndSplineSet
Colour: ffff
EndChar

StartChar: uniFEE3
Encoding: 65251 65251 136
Width: 1046
VWidth: 1854
Flags: HMW
AnchorPoint: "Anchor-5" 590 744 basechar 0
AnchorPoint: "Anchor-3" 619 0 basechar 0
LayerCount: 2
Fore
SplineSet
0 150 m 0
 108 150 152 189 204 298 c 0
 220 331 235 370 251 414 c 0
 308 570 420 716 605 716 c 0
 821 716 943 499 943 322 c 0
 943 149 812 0 648 0 c 0
 520 0 389 76 301 163 c 1
 237 63 139 0 0 0 c 0
 -41 0 -74 34 -74 75 c 0
 -74 116 -41 150 0 150 c 0
372 309 m 1
 429 230 564 150 648 150 c 0
 716 150 793 221 793 322 c 0
 793 449 703 566 605 566 c 0
 512 566 441 498 392 363 c 2
 372 309 l 1
EndSplineSet
Colour: ffff
EndChar

StartChar: uniFEE4
Encoding: 65252 65252 137
Width: 1238
VWidth: 1854
Flags: HMW
AnchorPoint: "Anchor-5" 590 744 basechar 0
AnchorPoint: "Anchor-3" 619 0 basechar 0
LayerCount: 2
Fore
SplineSet
0 150 m 0
 108 150 152 189 204 298 c 0
 220 331 235 370 251 414 c 0
 308 570 420 716 605 716 c 0
 803 716 922 534 940 367 c 1
 941 367 l 1
 951 307 970 263 995 232 c 0
 1034 183 1102 150 1238 150 c 1
 1238 0 l 1
 1085 0 963 37 884 130 c 1
 830 52 745 0 648 0 c 0
 520 0 389 76 301 163 c 1
 237 63 139 0 0 0 c 0
 -41 0 -74 34 -74 75 c 0
 -74 116 -41 150 0 150 c 0
372 309 m 1
 429 230 564 150 648 150 c 0
 716 150 793 221 793 322 c 0
 793 449 703 566 605 566 c 0
 512 566 441 498 392 363 c 2
 372 309 l 1
EndSplineSet
Colour: ffff
EndChar

StartChar: uniFEEA
Encoding: 65258 65258 138
Width: 1041
VWidth: 2374
Flags: HMW
AnchorPoint: "Anchor-5" 493 1003 basechar 0
AnchorPoint: "Anchor-3" 513 0 basechar 0
LayerCount: 2
Fore
SplineSet
604 740 m 1
 392 700 255 599 255 497 c 0
 255 408 331 355 477 355 c 0
 513 355 579 366 627 378 c 1
 624 407 622 438 620 470 c 2
 604 740 l 1
1041 0 m 1
 846 0 709 75 656 229 c 1
 597 214 530 205 477 205 c 0
 307 205 105 282 105 497 c 0
 105 732 356 851 595 891 c 1
 588 1009 l 1
 738 1017 l 1
 770 478 l 2
 778 342 794 262 829 219 c 0
 862 180 922 150 1041 150 c 1
 1041 0 l 1
EndSplineSet
Colour: ffff
EndChar

StartChar: uniFEEB
Encoding: 65259 65259 139
Width: 1293
VWidth: 1854
Flags: HMW
AnchorPoint: "Anchor-5" 578 952 basechar 0
AnchorPoint: "Anchor-3" 678 28 basechar 0
LayerCount: 2
Fore
SplineSet
0 150 m 0
 101 150 197 158 280 174 c 1
 193 240 122 336 122 461 c 0
 122 630 233 745 347 797 c 1
 284 844 234 893 194 937 c 1
 305 1037 l 1
 379 955 506 850 664 793 c 0
 891 712 1190 585 1190 310 c 0
 1190 141 1073 0 854 0 c 0
 762 0 594 28 473 73 c 1
 341 23 177 0 0 0 c 0
 -41 0 -74 34 -74 75 c 0
 -74 116 -41 150 0 150 c 0
643 176 m 1
 722 158 807 150 854 150 c 0
 999 150 1040 217 1040 310 c 0
 1040 419 933 508 767 585 c 1
 775 547 779 509 779 471 c 0
 779 350 727 249 643 176 c 1
481 235 m 1
 586 287 649 363 649 471 c 0
 649 594.7734375 609.84765625 681 509 681 c 0
 413 681 272 600 272 461 c 0
 272 365 366 287 481 235 c 1
EndSplineSet
Colour: ffff
EndChar

StartChar: uniFEEC
Encoding: 65260 65260 140
Width: 986
VWidth: 1854
Flags: HMW
AnchorPoint: "Anchor-5" 494 782 basechar 0
AnchorPoint: "Anchor-3" 494 -538 basechar 0
LayerCount: 2
Fore
SplineSet
0 150 m 0
 54 150 105 152 153 155 c 1
 160 482 272 767 544 767 c 0
 713 767 830 663 830 467 c 0
 830 269 615 71 312 22 c 1
 347 -167 476 -313 601 -345 c 1
 626 -150 l 2
 653 55 783 150 986 150 c 1
 986 0 l 1
 835 0 791 -35 774 -170 c 2
 732 -502 l 1
 656 -502 l 2
 411 -502 209 -263 163 6 c 1
 111 2 57 0 0 0 c 0
 -41 0 -74 34 -74 75 c 0
 -74 116 -41 150 0 150 c 0
304 173 m 1
 579 221 680 327 680 447 c 0
 680 581 627 617 544 617 c 0
 416 617 315 483 304 173 c 1
EndSplineSet
Colour: ffff
EndChar

StartChar: zero
Encoding: 48 48 142
Width: 1119
VWidth: 1816
Flags: HMW
LayerCount: 2
Fore
SplineSet
560 130 m 0
 809 130 894 408 894 706 c 0
 894 1004 809 1281 560 1281 c 0
 311 1281 225 1004 225 706 c 0
 225 408 311 130 560 130 c 0
560 0 m 0
 145 0 75 428 75 706 c 0
 75 984 145 1411 560 1411 c 0
 975 1411 1044 984 1044 706 c 0
 1044 428 975 0 560 0 c 0
EndSplineSet
Colour: ffff00
EndChar

StartChar: one
Encoding: 49 49 143
Width: 721
VWidth: 1819
Flags: HMW
LayerCount: 2
Fore
SplineSet
121 1056 m 1
 119 1186 l 1
 211 1187 l 2
 395 1189 426 1212 426 1411 c 1
 576 1411 l 1
 576 0 l 1
 426 0 l 1
 426 1094 l 1
 366 1066 295 1058 213 1057 c 2
 121 1056 l 1
EndSplineSet
Colour: ffff00
EndChar

StartChar: two
Encoding: 50 50 144
Width: 1126
VWidth: 1816
Flags: HMW
LayerCount: 2
Fore
SplineSet
1006 130 m 1
 1006 0 l 1
 75 0 l 1
 75 184 l 1
 650 600 l 2
 785 698 856 815 856 960 c 0
 856 1187 696 1281 541 1281 c 0
 386 1281 226 1187 226 960 c 1
 76 960 l 1
 76 1253 306 1411 541 1411 c 0
 776 1411 1006 1253 1006 960 c 0
 1006 773 909 618 746 500 c 2
 234 130 l 1
 1006 130 l 1
EndSplineSet
Colour: ffff00
EndChar

StartChar: three
Encoding: 51 51 145
Width: 1079
VWidth: 1816
Flags: HMW
LayerCount: 2
Fore
SplineSet
539 816 m 2
 721 816 835 898 835 1038 c 0
 835 1208 703 1281 561 1281 c 0
 414 1281 284 1215 284 1047 c 1
 134 1047 l 1
 134 1298 357 1411 561 1411 c 0
 768 1411 985 1287 985 1038 c 0
 985 915 920 814 816 753 c 1
 940 687 1024 566 1024 396 c 0
 1024 112 765 0 548 0 c 0
 320 0 75 131 75 408 c 1
 225 408 l 1
 225 213 382 130 548 130 c 0
 715 130 874 200 874 396 c 0
 874 609 721 686 539 686 c 2
 466 686 l 1
 466 816 l 1
 539 816 l 2
EndSplineSet
Colour: ffff00
EndChar

StartChar: four
Encoding: 52 52 146
Width: 1217
VWidth: 1816
Flags: HMW
LayerCount: 2
Fore
SplineSet
1097 457 m 1
 1097 327 l 1
 909 327 l 1
 909 0 l 1
 759 0 l 1
 759 327 l 1
 75 327 l 1
 75 458 l 1
 744 1411 l 1
 909 1411 l 1
 909 457 l 1
 1097 457 l 1
759 457 m 1
 759 1192 l 1
 240 457 l 1
 759 457 l 1
EndSplineSet
Colour: ffff00
EndChar

StartChar: five
Encoding: 53 53 147
Width: 1112
VWidth: 1816
Flags: HMW
LayerCount: 2
Fore
SplineSet
992 1411 m 1
 992 1281 l 1
 287 1281 l 1
 255 951 l 1
 336 985 419 1002 498 1002 c 0
 820 1002 992 786 992 501 c 0
 992 188 816 0 498 0 c 0
 232 0 75 178 75 401 c 1
 225 401 l 1
 225 230 326 130 498 130 c 0
 724 130 842 232 842 501 c 0
 842 744 720 872 498 872 c 0
 417 872 326 848 233 787 c 2
 194 761 l 1
 91 812 l 1
 149 1411 l 1
 992 1411 l 1
EndSplineSet
Colour: ffff00
EndChar

StartChar: six
Encoding: 54 54 148
Width: 1095
VWidth: 1816
Flags: HMW
LayerCount: 2
Fore
SplineSet
75 689 m 0
 75 1119 263 1411 593 1411 c 0
 752 1411 886 1361 997 1264 c 1
 891 1172 l 1
 804 1247 714 1281 593 1281 c 0
 416 1281 259 1140 230 799 c 1
 338 867 453 901 564 901 c 0
 822 901 1020 717 1020 436 c 0
 1020 230 858 0 563 0 c 0
 131 0 75 394 75 689 c 0
564 771 m 0
 462 771 337 724 226 624 c 1
 236 336 309 130 563 130 c 0
 750 130 870 278 870 436 c 0
 870 663 726 771 564 771 c 0
EndSplineSet
Colour: ffff00
EndChar

StartChar: seven
Encoding: 55 55 149
Width: 1059
VWidth: 1816
Flags: HMW
LayerCount: 2
Fore
SplineSet
120 1281 m 1
 120 1411 l 1
 976 1411 l 1
 1019 1295 l 1
 424 -24 l 1
 284 24 l 1
 851 1281 l 1
 120 1281 l 1
EndSplineSet
Colour: ffff00
EndChar

StartChar: eight
Encoding: 56 56 150
Width: 1057
VWidth: 1816
Flags: HMW
LayerCount: 2
Fore
SplineSet
739 763 m 1
 869 693 982 540 982 386 c 0
 982 166 803 0 529 0 c 0
 255 0 75 166 75 386 c 0
 75 541 184 694 315 764 c 1
 217 818 139 936 139 1064 c 0
 139 1223 260 1411 529 1411 c 0
 798 1411 918 1223 918 1064 c 0
 918 934 838 817 739 763 c 1
225 386 m 0
 225 232 333 130 529 130 c 0
 725 130 832 232 832 386 c 0
 832 565 688 700 528 700 c 0
 362 700 225 569 225 386 c 0
768 1064 m 0
 768 1175 698 1281 529 1281 c 0
 360 1281 289 1175 289 1064 c 0
 289 903 357 830 528 830 c 0
 698 830 768 902 768 1064 c 0
EndSplineSet
Colour: ffff00
EndChar

StartChar: nine
Encoding: 57 57 151
Width: 1095
VWidth: 1816
Flags: HMW
LayerCount: 2
Fore
SplineSet
1020 722 m 0
 1020 272 829 0 502 0 c 0
 343 0 209 50 98 147 c 1
 204 239 l 1
 291 164 381 130 502 130 c 0
 683 130 838 257 866 612 c 1
 758 544 642 510 531 510 c 0
 273 510 75 694 75 975 c 0
 75 1181 237 1411 532 1411 c 0
 964 1411 1020 1017 1020 722 c 0
531 640 m 0
 633 640 758 687 869 787 c 1
 859 1075 786 1281 532 1281 c 0
 345 1281 225 1133 225 975 c 0
 225 748 369 640 531 640 c 0
EndSplineSet
Colour: ffff00
EndChar

StartChar: uni0643
Encoding: 1603 1603 171
Width: 1585
VWidth: 1854
Flags: HMW
AnchorPoint: "Anchor-5" 810 971 basechar 0
AnchorPoint: "Anchor-3" 868 0 basechar 0
LayerCount: 2
Fore
SplineSet
1290 1411 m 1
 1440 1411 l 1
 1440 517 l 2
 1440 360 1418 228 1339 132 c 0
 1230 0 1056 0 868 0 c 0
 478 0 103 41 103 400 c 0
 103 481 119 574 136 647 c 1
 282 613 l 1
 267 549 253 461 253 400 c 0
 253 205 442 150 868 150 c 0
 1066 150 1172 166 1223 228 c 0
 1266 280 1290 372 1290 517 c 2
 1290 1411 l 1
EndSplineSet
Refer: 25 1620 N 1 0 0 1 811 -892 2
Substitution2: "'init' Initial Forms in Arabic lookup 4 subtable" uniFEDB
Substitution2: "'medi' Medial Forms in Arabic lookup 3 subtable" uniFEDC
Substitution2: "'fina' Terminal Forms in Arabic lookup 2 subtable" uniFEDA
Colour: ffff
EndChar

StartChar: uniFEEE
Encoding: 65262 65262 197
Width: 898
VWidth: 1854
Flags: HMW
AnchorPoint: "Anchor-3" 412 -502 basechar 0
AnchorPoint: "Anchor-5" 440 726 basechar 0
LayerCount: 2
Fore
SplineSet
898 150 m 1
 898 0 l 1
 787 0 l 1
 741 -260 510 -420 142 -514 c 1
 104 -368 l 1
 439 -282 593 -157 633 0 c 1
 458 0 l 2
 279 0 107 83 107 304 c 0
 107 501 237 726 440 726 c 0
 737 726 786 332 794 150 c 1
 898 150 l 1
644 150 m 1
 634 362 562 576 440 576 c 0
 363 576 257 457 257 304 c 0
 257 189 315 150 458 150 c 2
 644 150 l 1
EndSplineSet
PairPos2: "'kern' Horizontal Kerning in Arabic lookup 2 per glyph data 1" uni063A dx=-200 dy=0 dh=-200 dv=0 dx=0 dy=0 dh=0 dv=0
PairPos2: "'kern' Horizontal Kerning in Arabic lookup 2 per glyph data 1" uni0639 dx=-200 dy=0 dh=-200 dv=0 dx=0 dy=0 dh=0 dv=0
PairPos2: "'kern' Horizontal Kerning in Arabic lookup 2 per glyph data 3" uniFEDB dx=-262 dy=0 dh=-262 dv=0 dx=0 dy=0 dh=0 dv=0
PairPos2: "'kern' Horizontal Kerning in Arabic lookup 2 per glyph data 3" uniFB94 dx=-262 dy=0 dh=-262 dv=0 dx=0 dy=0 dh=0 dv=0
PairPos2: "'kern' Horizontal Kerning in Arabic lookup 2 per glyph data 3" uniFB90 dx=-262 dy=0 dh=-262 dv=0 dx=0 dy=0 dh=0 dv=0
PairPos2: "'kern' Horizontal Kerning in Arabic lookup 2 per glyph data 3" uni06AF dx=-262 dy=0 dh=-262 dv=0 dx=0 dy=0 dh=0 dv=0
PairPos2: "'kern' Horizontal Kerning in Arabic lookup 2 per glyph data 3" uni06A9 dx=-262 dy=0 dh=-262 dv=0 dx=0 dy=0 dh=0 dv=0
Colour: ffff
EndChar

StartChar: uniFEDA
Encoding: 65242 65242 235
Width: 1748
VWidth: 1854
Flags: HMW
AnchorPoint: "Anchor-5" 809 971 basechar 0
AnchorPoint: "Anchor-3" 868 0 basechar 0
LayerCount: 2
Fore
SplineSet
1748 0 m 1
 1572 0 1440 52 1366 170 c 1
 1357 155 1349 144 1339 132 c 0
 1230 0 1056 0 868 0 c 0
 478 0 103 41 103 400 c 0
 103 481 119 574 136 647 c 1
 282 613 l 1
 267 549 253 461 253 400 c 0
 253 205 442 150 868 150 c 0
 1066 150 1172 166 1223 228 c 0
 1273 288 1290 395 1290 517 c 2
 1290 1411 l 1
 1440 1411 l 1
 1440 517 l 2
 1440 397 1458 293 1506 232 c 0
 1546 182 1612 150 1748 150 c 1
 1748 0 l 1
EndSplineSet
Refer: 25 1620 N 1 0 0 1 824 -892 2
Colour: ffff
EndChar

StartChar: uniFB8F
Encoding: 64399 64399 242
Width: 1744
VWidth: 1854
Flags: HMW
AnchorPoint: "Anchor-3" 868 0 basechar 0
AnchorPoint: "Anchor-5" 1304 1258 basechar 0
LayerCount: 2
Fore
SplineSet
1744 150 m 1
 1744 0 l 1
 1582 0 1483 57 1418 137 c 1
 1313 2 1067 0 891 0 c 0
 503 0 104 39 104 400 c 0
 104 514 138 619 166 703 c 1
 308 655 l 1
 280 572 254 484 254 400 c 0
 254 207 463 150 891 150 c 0
 1171 150 1318 181 1318 298 c 0
 1318 425 1107 690 899 847 c 2
 869 870 l 1
 869 1034 l 1
 904 1056 l 2
 1138 1206 1412 1313 1683 1369 c 1
 1713 1223 l 1
 1473 1174 1228 1078 1019 951 c 1
 1019 944 l 1
 1201 800 1406 583 1456 385 c 1
 1512 228 1546 150 1744 150 c 1
EndSplineSet
Colour: ffff
EndChar

StartChar: exclam
Encoding: 33 33 250
Width: 613
VWidth: 1647
Flags: HMW
LayerCount: 2
Fore
SplineSet
381 391 m 1
 231 391 l 1
 231 1411 l 1
 381 1411 l 1
 381 391 l 1
EndSplineSet
Refer: 0 46 N 1 0 0 1 80 0 2
Colour: ffff
EndChar

StartChar: uni066B
Encoding: 1643 1643 251
Width: 787
VWidth: 1854
Flags: HMW
LayerCount: 2
Fore
SplineSet
244 -294 m 1
 104 -240 l 1
 552 904 l 1
 692 850 l 1
 244 -294 l 1
EndSplineSet
PairPos2: "'kern' Horizontal Kerning in Arabic lookup 3 per glyph data 1" uni06F7 dx=-100 dy=0 dh=-100 dv=0 dx=0 dy=0 dh=0 dv=0
PairPos2: "'kern' Horizontal Kerning in Arabic lookup 3 per glyph data 1" uni06F0 dx=-50 dy=0 dh=-50 dv=0 dx=0 dy=0 dh=0 dv=0
PairPos2: "'kern' Horizontal Kerning in Arabic lookup 3 per glyph data 1" uni06F3 dx=-75 dy=0 dh=-75 dv=0 dx=0 dy=0 dh=0 dv=0
PairPos2: "'kern' Horizontal Kerning in Arabic lookup 3 per glyph data 1" uni06F2 dx=-100 dy=0 dh=-100 dv=0 dx=0 dy=0 dh=0 dv=0
PairPos2: "'kern' Horizontal Kerning in Arabic lookup 3 per glyph data 1" uni066B dx=-50 dy=0 dh=-50 dv=0 dx=0 dy=0 dh=0 dv=0
PairPos2: "'kern' Horizontal Kerning in Arabic lookup 3 per glyph data 0" uni0663 dx=-150 dy=0 dh=-150 dv=0 dx=0 dy=0 dh=0 dv=0
PairPos2: "'kern' Horizontal Kerning in Arabic lookup 3 per glyph data 0" uni0662 dx=-100 dy=0 dh=-100 dv=0 dx=0 dy=0 dh=0 dv=0
PairPos2: "'kern' Horizontal Kerning in Arabic lookup 3 per glyph data 0" uni0667 dx=-100 dy=0 dh=-100 dv=0 dx=0 dy=0 dh=0 dv=0
Colour: ffff
EndChar

StartChar: uniE000
Encoding: 57344 57344 252
Width: 120
VWidth: 0
Flags: HMW
LayerCount: 2
Fore
SplineSet
0 150 m 2
 120 150 l 1
 120 0 l 1
 0 0 l 2
 -41 0 -74 34 -74 75 c 0
 -74 116 -41 150 0 150 c 2
EndSplineSet
Colour: ffff
EndChar

StartChar: uniE001
Encoding: 57345 57345 253
Width: 320
VWidth: 0
Flags: HMW
LayerCount: 2
Fore
SplineSet
0 150 m 2
 320 150 l 1
 320 0 l 1
 0 0 l 2
 -41 0 -74 34 -74 75 c 0
 -74 116 -41 150 0 150 c 2
EndSplineSet
Colour: ffff
EndChar

StartChar: uniE002
Encoding: 57346 57346 254
Width: 450
VWidth: 0
Flags: HMW
LayerCount: 2
Fore
SplineSet
0 150 m 2
 450 150 l 1
 450 0 l 1
 0 0 l 2
 -41 0 -74 34 -74 75 c 0
 -74 116 -41 150 0 150 c 2
EndSplineSet
Colour: ffff
EndChar

StartChar: simpledot
Encoding: 1114131 -1 255
Width: 2374
VWidth: 1854
Flags: HMW
LayerCount: 2
Fore
SplineSet
1055 132 m 1
 1187 264 l 1
 1319 132 l 1
 1187 -0 l 1
 1055 132 l 1
EndSplineSet
Colour: ff0000
EndChar

StartChar: hyphen
Encoding: 45 45 256
Width: 993
VWidth: 1647
Flags: HMW
LayerCount: 2
Fore
SplineSet
873 575 m 1
 873 445 l 1
 120 445 l 1
 120 575 l 1
 873 575 l 1
EndSplineSet
Colour: ffff00
EndChar

StartChar: numbersign
Encoding: 35 35 258
Width: 1683
VWidth: 1819
Flags: HMW
LayerCount: 2
Fore
SplineSet
1090 891 m 1
 697 891 l 1
 594 556 l 1
 987 556 l 1
 1090 891 l 1
420 -17 m 1
 274 17 l 1
 400 426 l 1
 120 426 l 1
 120 556 l 1
 439 556 l 1
 542 891 l 1
 212 891 l 1
 212 1021 l 1
 581 1021 l 1
 705 1428 l 1
 851 1394 l 1
 736 1021 l 1
 1129 1021 l 1
 1253 1428 l 1
 1399 1394 l 1
 1284 1021 l 1
 1563 1021 l 1
 1563 891 l 1
 1245 891 l 1
 1142 556 l 1
 1471 556 l 1
 1471 426 l 1
 1103 426 l 1
 968 -17 l 1
 822 17 l 1
 948 426 l 1
 555 426 l 1
 420 -17 l 1
EndSplineSet
Colour: ffff00
EndChar

StartChar: dollar
Encoding: 36 36 259
Width: 1146
VWidth: 1819
Flags: HMW
LayerCount: 2
Fore
SplineSet
518 1615 m 1
 628 1615 l 1
 628 -142 l 1
 518 -142 l 1
 518 1615 l 1
EndSplineSet
Refer: 286 83 N 1 0 0 1 0 0 2
EndChar

StartChar: percent
Encoding: 37 37 260
Width: 1454
VWidth: 1819
Flags: HMW
LayerCount: 2
Fore
SplineSet
638 1137 m 0
 638 1001 530 888 392 888 c 0
 254 888 145 1000 145 1137 c 0
 145 1268 247 1391 392 1391 c 0
 537 1391 638 1268 638 1137 c 0
528 1137 m 0
 528 1214 469 1281 392 1281 c 0
 315 1281 255 1214 255 1137 c 0
 255 1060 316 998 392 998 c 0
 468 998 528 1059 528 1137 c 0
1309 238 m 0
 1309 102 1201 -11 1063 -11 c 0
 925 -11 816 101 816 238 c 0
 816 369 918 492 1063 492 c 0
 1208 492 1309 369 1309 238 c 0
1199 238 m 0
 1199 315 1140 382 1063 382 c 0
 986 382 926 315 926 238 c 0
 926 161 987 99 1063 99 c 0
 1139 99 1199 160 1199 238 c 0
EndSplineSet
Refer: 1 47 N 1 0 0 1 202 0 2
Colour: ffff
EndChar

StartChar: ampersand
Encoding: 38 38 261
Width: 1138
VWidth: 1819
Flags: HMW
LayerCount: 2
Fore
SplineSet
944 170 m 1
 1044 35 l 1
 918 -35 l 1
 833 78 l 1
 746 27 639 0 520 0 c 0
 261 0 75 149 75 376 c 0
 75 565 196 679 324 758 c 1
 245 864 l 1
 189 931 165 1007 165 1083 c 0
 165 1247 289 1411 519 1411 c 0
 733 1411 864 1265 864 1113 c 0
 864 901 682 798 532 719 c 1
 854 289 l 1
 891 348 913 424 913 516 c 1
 1063 516 l 1
 1063 380 1024 261 944 170 c 1
752 187 m 1
 406 649 l 1
 297 581 225 509 225 376 c 0
 225 219 333 130 520 130 c 0
 616 130 693 151 752 187 c 1
451 829 m 1
 607 911 714 977 714 1113 c 0
 714 1203 645 1281 519 1281 c 0
 387 1281 315 1197 315 1083 c 0
 315 1025 333 985 370 936 c 2
 451 829 l 1
EndSplineSet
Colour: ffff00
EndChar

StartChar: quotesingle
Encoding: 39 39 262
Width: 400
VWidth: 1819
Flags: HMW
LayerCount: 2
Fore
SplineSet
155 1411 m 1
 245 1411 l 1
 245 896 l 1
 155 896 l 1
 155 1411 l 1
EndSplineSet
Colour: ff00
EndChar

StartChar: plus
Encoding: 43 43 263
Width: 993
VWidth: 1647
Flags: HMW
LayerCount: 2
Fore
SplineSet
873 575 m 1
 873 445 l 1
 571 445 l 1
 571 134 l 1
 421 134 l 1
 421 445 l 1
 120 445 l 1
 120 575 l 1
 421 575 l 1
 421 886 l 1
 571 886 l 1
 571 575 l 1
 873 575 l 1
EndSplineSet
Colour: ffff00
EndChar

StartChar: comma
Encoding: 44 44 264
Width: 502
VWidth: 1854
Flags: HMW
LayerCount: 2
Fore
SplineSet
213 -271 m 1
 146 -219 l 1
 178 -183 270 -76 270 45 c 1
 172 45 120 89 120 179 c 0
 120 254 175 305 242 305 c 0
 328 305 382 248 382 134 c 0
 382 -57 286 -182 213 -271 c 1
EndSplineSet
EndChar

StartChar: question
Encoding: 63 63 266
Width: 1067
VWidth: 1854
Flags: HMW
LayerCount: 2
Fore
SplineSet
131 939 m 1
 126 969 125 998 125 1024 c 0
 125 1227 258 1411 528 1411 c 0
 794 1411 942 1207 942 983 c 0
 942 831 845 746 756 688 c 0
 667 629 588 572 588 405 c 1
 438 405 l 1
 438 622 565 725 666 792 c 0
 745 844 792 883 792 983 c 0
 792 1167 684 1281 528 1281 c 0
 358 1281 275 1183 275 1024 c 0
 275 1000 276 979 279 957 c 1
 131 939 l 1
EndSplineSet
Refer: 0 46 N 1 0 0 1 289 0 2
Colour: ffff00
EndChar

StartChar: at
Encoding: 64 64 267
Width: 2061
VWidth: 1819
Flags: HMW
LayerCount: 2
Fore
SplineSet
1046 935 m 0
 869 935 677 797 677 452 c 0
 677 178 828 109 963 109 c 0
 1085 109 1240 198 1266 481 c 2
 1299 862 l 1
 1239 905 1177 935 1046 935 c 0
1046 1065 m 0
 1254 1065 1358 994 1455 915 c 1
 1401 306 l 2
 1400 297 1400 290 1400 279 c 0
 1400 163 1457 109 1554 109 c 0
 1712 109 1836 287 1836 530 c 0
 1836 988 1466 1346 1031 1346 c 0
 596 1346 225 988 225 530 c 0
 225 72 595 -285 1031 -285 c 0
 1107 -285 1180 -274 1250 -254 c 1
 1296 -378 l 1
 1212 -402 1123 -415 1031 -415 c 0
 495 -415 75 16 75 530 c 0
 75 1044 494 1476 1031 1476 c 0
 1568 1476 1986 1044 1986 530 c 0
 1986 275 1856 -21 1554 -21 c 0
 1422 -21 1331 41 1285 129 c 1
 1201 30 1085 -21 963 -21 c 0
 742 -21 527 122 527 452 c 0
 527 837 759 1065 1046 1065 c 0
EndSplineSet
Colour: ffff00
EndChar

StartChar: A
Encoding: 65 65 268
Width: 1343
VWidth: 1819
Flags: HMW
LayerCount: 2
Fore
SplineSet
199 0 m 1
 41 0 l 1
 594 1411 l 1
 750 1411 l 1
 1302 0 l 1
 1144 0 l 1
 995 390 l 1
 348 390 l 1
 199 0 l 1
398 520 m 1
 945 520 l 1
 672 1235 l 1
 398 520 l 1
EndSplineSet
Colour: ffff00
EndChar

StartChar: B
Encoding: 66 66 269
Width: 1286
VWidth: 1819
Flags: HMW
LayerCount: 2
Fore
SplineSet
685 771 m 2
 827 771 948 870 948 1024 c 0
 948 1179 825 1281 685 1281 c 2
 295 1281 l 1
 295 771 l 1
 685 771 l 2
295 641 m 1
 295 130 l 1
 748 130 l 2
 890 130 1011 227 1011 381 c 0
 1011 537 887 641 748 641 c 2
 295 641 l 1
145 1411 m 1
 685 1411 l 2
 917 1411 1098 1241 1098 1024 c 0
 1098 900 1039 794 946 725 c 1
 1075 659 1161 530 1161 381 c 0
 1161 163 978 0 748 0 c 2
 145 0 l 1
 145 1411 l 1
EndSplineSet
Colour: ffff00
EndChar

StartChar: C
Encoding: 67 67 270
Width: 1303
VWidth: 1819
Flags: HMW
LayerCount: 2
Fore
SplineSet
1049 245 m 1
 1157 155 l 1
 1051 59 906 0 731 0 c 0
 283 0 75 328 75 706 c 0
 75 1084 283 1411 731 1411 c 0
 905 1411 1051 1353 1157 1257 c 1
 1049 1167 l 1
 969 1239 867 1281 731 1281 c 0
 397 1281 225 1052 225 706 c 0
 225 360 397 130 731 130 c 0
 866 130 969 173 1049 245 c 1
EndSplineSet
Colour: ffff00
EndChar

StartChar: D
Encoding: 68 68 271
Width: 1292
VWidth: 1819
Flags: HMW
LayerCount: 2
Fore
SplineSet
560 1281 m 2
 295 1281 l 1
 295 130 l 1
 560 130 l 2
 901 130 1067 354 1067 706 c 0
 1067 1058 901 1281 560 1281 c 2
560 1411 m 2
 1013 1411 1217 1090 1217 706 c 0
 1217 322 1013 0 560 0 c 2
 145 0 l 1
 145 1411 l 1
 560 1411 l 2
EndSplineSet
Colour: ffff00
EndChar

StartChar: E
Encoding: 69 69 272
Width: 1151
VWidth: 1819
Flags: HMW
LayerCount: 2
Fore
SplineSet
1001 130 m 1
 1001 0 l 1
 145 0 l 1
 145 1411 l 1
 1001 1411 l 1
 1001 1281 l 1
 295 1281 l 1
 295 771 l 1
 1001 771 l 1
 1001 641 l 1
 295 641 l 1
 295 130 l 1
 1001 130 l 1
EndSplineSet
Colour: ffff00
EndChar

StartChar: F
Encoding: 70 70 273
Width: 1151
VWidth: 1819
Flags: HMW
LayerCount: 2
Fore
SplineSet
295 0 m 1
 145 0 l 1
 145 1411 l 1
 1001 1411 l 1
 1001 1281 l 1
 295 1281 l 1
 295 771 l 1
 885 771 l 1
 885 641 l 1
 295 641 l 1
 295 0 l 1
EndSplineSet
Colour: ffff00
EndChar

StartChar: G
Encoding: 71 71 274
Width: 1400
VWidth: 1819
Flags: HMW
LayerCount: 2
Fore
SplineSet
752 651 m 1
 752 781 l 1
 1255 783 l 1
 1255 460 l 2
 1255 218 1131 0 731 0 c 0
 283 0 75 328 75 706 c 0
 75 1084 283 1411 731 1411 c 0
 904 1411 1074 1357 1184 1257 c 1
 1076 1167 l 1
 1000 1235 868 1281 731 1281 c 0
 397 1281 225 1052 225 706 c 0
 225 360 397 130 731 130 c 0
 1041 130 1105 258 1105 460 c 2
 1105 653 l 1
 752 651 l 1
EndSplineSet
Colour: ffff00
EndChar

StartChar: H
Encoding: 72 72 275
Width: 1309
VWidth: 1819
Flags: HMW
LayerCount: 2
Fore
SplineSet
1014 1411 m 1
 1164 1411 l 1
 1164 0 l 1
 1014 0 l 1
 1014 663 l 1
 295 663 l 1
 295 0 l 1
 145 0 l 1
 145 1411 l 1
 295 1411 l 1
 295 793 l 1
 1014 793 l 1
 1014 1411 l 1
EndSplineSet
Colour: ffff00
EndChar

StartChar: I
Encoding: 73 73 276
Width: 440
VWidth: 1819
Flags: HMW
LayerCount: 2
Fore
SplineSet
295 0 m 1
 145 0 l 1
 145 1411 l 1
 295 1411 l 1
 295 0 l 1
EndSplineSet
Colour: ffff00
EndChar

StartChar: J
Encoding: 74 74 277
Width: 840
VWidth: 1819
Flags: HMW
LayerCount: 2
Fore
SplineSet
61 50 m 1
 139 162 l 1
 178 142 228 130 286 130 c 0
 434 130 545 185 545 400 c 2
 545 1411 l 1
 695 1411 l 1
 695 400 l 2
 695 123 508 0 286 0 c 0
 206 0 128 14 61 50 c 1
EndSplineSet
Colour: ffff00
EndChar

StartChar: K
Encoding: 75 75 278
Width: 1276
VWidth: 1819
Flags: HMW
LayerCount: 2
Fore
SplineSet
979 1411 m 1
 1172 1411 l 1
 537 735 l 1
 1170 0 l 1
 983 0 l 1
 439 631 l 1
 295 478 l 1
 295 0 l 1
 145 0 l 1
 145 1411 l 1
 295 1411 l 1
 295 684 l 1
 979 1411 l 1
EndSplineSet
Colour: ffff00
EndChar

StartChar: L
Encoding: 76 76 279
Width: 1101
VWidth: 1819
Flags: HMW
LayerCount: 2
Fore
SplineSet
1001 130 m 1
 1001 0 l 1
 145 0 l 1
 145 1411 l 1
 295 1411 l 1
 295 130 l 1
 1001 130 l 1
EndSplineSet
Colour: ffff00
EndChar

StartChar: M
Encoding: 77 77 280
Width: 1755
VWidth: 1819
Flags: HMW
LayerCount: 2
Fore
SplineSet
295 0 m 1
 145 0 l 1
 145 1411 l 1
 320 1411 l 1
 854 158 l 1
 1437 1411 l 1
 1610 1411 l 1
 1610 0 l 1
 1460 0 l 1
 1460 1149 l 1
 926 0 l 1
 775 -0 l 1
 295 1130 l 1
 295 0 l 1
EndSplineSet
Colour: ffff00
EndChar

StartChar: N
Encoding: 78 78 281
Width: 1356
VWidth: 1819
Flags: HMW
LayerCount: 2
Fore
SplineSet
1061 1411 m 1
 1211 1411 l 1
 1211 0 l 1
 1044 0 l 1
 295 1200 l 1
 295 0 l 1
 145 0 l 1
 145 1411 l 1
 312 1411 l 1
 1061 211 l 1
 1061 1411 l 1
EndSplineSet
Colour: ffff00
EndChar

StartChar: O
Encoding: 79 79 282
Width: 1462
VWidth: 1819
Flags: HMW
LayerCount: 2
Fore
SplineSet
731 1281 m 0
 397 1281 225 1052 225 706 c 0
 225 360 397 130 731 130 c 0
 1065 130 1237 360 1237 706 c 0
 1237 1052 1066 1281 731 1281 c 0
731 1411 m 0
 1178 1411 1387 1084 1387 706 c 0
 1387 328 1179 0 731 0 c 0
 283 0 75 328 75 706 c 0
 75 1084 283 1411 731 1411 c 0
EndSplineSet
Colour: ffff00
EndChar

StartChar: P
Encoding: 80 80 283
Width: 1173
VWidth: 1819
Flags: HMW
LayerCount: 2
Fore
SplineSet
295 1281 m 1
 295 771 l 1
 685 771 l 2
 827 771 948 870 948 1024 c 0
 948 1179 825 1281 685 1281 c 2
 295 1281 l 1
295 0 m 1
 145 0 l 1
 145 1411 l 1
 685 1411 l 2
 917 1411 1098 1241 1098 1024 c 0
 1098 806 915 641 685 641 c 2
 295 641 l 1
 295 0 l 1
EndSplineSet
Colour: ffff00
EndChar

StartChar: Q
Encoding: 81 81 284
Width: 1462
VWidth: 1819
Flags: HMW
LayerCount: 2
Fore
SplineSet
1354 6 m 1
 1270 -64 l 1
 801 496 l 1
 885 566 l 1
 1354 6 l 1
EndSplineSet
Refer: 282 79 N 1 0 0 1 0 0 2
Colour: ffff00
EndChar

StartChar: R
Encoding: 82 82 285
Width: 1223
VWidth: 1819
Flags: HMW
LayerCount: 2
Fore
SplineSet
295 771 m 1
 685 771 l 2
 827 771 948 870 948 1024 c 0
 948 1179 825 1281 685 1281 c 2
 295 1281 l 1
 295 771 l 1
145 1411 m 1
 685 1411 l 2
 917 1411 1098 1241 1098 1024 c 0
 1098 888 1026 773 917 705 c 1
 1027 635 1098 517 1098 381 c 2
 1098 0 l 1
 948 0 l 1
 948 381 l 2
 948 537 824 641 685 641 c 2
 295 641 l 1
 295 0 l 1
 145 0 l 1
 145 1411 l 1
EndSplineSet
Colour: ffff00
EndChar

StartChar: S
Encoding: 83 83 286
Width: 1146
VWidth: 1819
Flags: HMW
LayerCount: 2
Fore
SplineSet
75 416 m 1
 225 416 l 1
 225 228 400 130 587 130 c 0
 769 130 921 210 921 389 c 0
 921 541 776 590 559 650 c 0
 367 703 105 776 105 1023 c 0
 105 1276 321 1411 560 1411 c 0
 810 1411 1041 1256 1041 995 c 1
 891 995 l 1
 891 1180 740 1281 560 1281 c 0
 385 1281 255 1198 255 1023 c 0
 255 882 393 833 605 774 c 0
 802 720 1071 645 1071 389 c 0
 1071 120 819 0 587 0 c 0
 344 0 75 138 75 416 c 1
EndSplineSet
Colour: ffff00
EndChar

StartChar: T
Encoding: 84 84 287
Width: 1300
VWidth: 1819
Flags: HMW
LayerCount: 2
Fore
SplineSet
725 0 m 1
 575 0 l 1
 575 1281 l 1
 100 1281 l 1
 100 1411 l 1
 1200 1411 l 1
 1200 1281 l 1
 725 1281 l 1
 725 0 l 1
EndSplineSet
Colour: ffff00
EndChar

StartChar: U
Encoding: 85 85 288
Width: 1316
VWidth: 1819
Flags: HMW
LayerCount: 2
Fore
SplineSet
1021 1411 m 1
 1171 1411 l 1
 1171 478 l 2
 1171 195 941 0 658 0 c 0
 375 0 145 195 145 478 c 2
 145 1411 l 1
 295 1411 l 1
 295 478 l 2
 295 259 461 130 658 130 c 0
 855 130 1021 259 1021 478 c 2
 1021 1411 l 1
EndSplineSet
Colour: ffff00
EndChar

StartChar: V
Encoding: 86 86 289
Width: 1343
VWidth: 1819
Flags: HMW
LayerCount: 2
Fore
SplineSet
1144 1411 m 1
 1302 1411 l 1
 749 0 l 1
 593 0 l 1
 41 1411 l 1
 199 1411 l 1
 671 176 l 1
 1144 1411 l 1
EndSplineSet
Colour: ffff00
EndChar

StartChar: W
Encoding: 87 87 290
Width: 1932
VWidth: 1819
Flags: HMW
LayerCount: 2
Fore
SplineSet
1735 1411 m 1
 1890 1411 l 1
 1475 0 l 1
 1310 0 l 1
 966 1195 l 1
 621 -0 l 1
 456 0 l 1
 42 1411 l 1
 197 1411 l 1
 539 215 l 1
 884 1411 l 1
 1048 1411 l 1
 1392 215 l 1
 1735 1411 l 1
EndSplineSet
Colour: ffff00
EndChar

StartChar: X
Encoding: 88 88 291
Width: 1186
VWidth: 1819
Flags: HMW
LayerCount: 2
Fore
SplineSet
1153 0 m 1
 979 0 l 1
 593 606 l 1
 207 0 l 1
 33 0 l 1
 506 706 l 1
 33 1411 l 1
 207 1411 l 1
 593 805 l 1
 979 1411 l 1
 1153 1411 l 1
 680 706 l 1
 1153 0 l 1
EndSplineSet
Colour: ffff00
EndChar

StartChar: Y
Encoding: 89 89 292
Width: 1186
VWidth: 1819
Flags: HMW
LayerCount: 2
Fore
SplineSet
33 1411 m 1
 207 1411 l 1
 593 775 l 1
 979 1411 l 1
 1153 1411 l 1
 668 654 l 1
 668 0 l 1
 518 0 l 1
 518 654 l 1
 33 1411 l 1
EndSplineSet
Colour: ffff00
EndChar

StartChar: Z
Encoding: 90 90 293
Width: 1400
VWidth: 1819
Flags: HMW
LayerCount: 2
Fore
SplineSet
150 1281 m 1
 150 1411 l 1
 1250 1411 l 1
 1250 1277 l 1
 299 130 l 1
 1250 130 l 1
 1250 0 l 1
 150 0 l 1
 150 134 l 1
 1101 1281 l 1
 150 1281 l 1
EndSplineSet
Colour: ffff00
EndChar

StartChar: bracketleft
Encoding: 91 91 294
Width: 642
VWidth: 1819
Flags: HMW
LayerCount: 2
Fore
SplineSet
542 130 m 1
 542 0 l 1
 145 0 l 1
 145 1411 l 1
 542 1411 l 1
 542 1281 l 1
 295 1281 l 1
 295 130 l 1
 542 130 l 1
EndSplineSet
Colour: ffff00
EndChar

StartChar: backslash
Encoding: 92 92 295
Width: 1019
VWidth: 1819
Flags: HMW
LayerCount: 2
Fore
SplineSet
936 34 m 1
 802 -34 l 1
 83 1377 l 1
 217 1445 l 1
 936 34 l 1
EndSplineSet
Colour: ffff
EndChar

StartChar: bracketright
Encoding: 93 93 296
Width: 642
VWidth: 1819
Flags: HMW
LayerCount: 2
Fore
SplineSet
100 1281 m 1
 100 1411 l 1
 497 1411 l 1
 497 0 l 1
 100 0 l 1
 100 130 l 1
 347 130 l 1
 347 1281 l 1
 100 1281 l 1
EndSplineSet
Colour: ffff00
EndChar

StartChar: asciicircum
Encoding: 94 94 297
Width: 704
VWidth: 1819
Flags: HMW
LayerCount: 2
Fore
SplineSet
619 1171 m 1
 549 1115 l 1
 352 1364 l 1
 155 1115 l 1
 85 1171 l 1
 310 1456 l 1
 394 1456 l 1
 619 1171 l 1
EndSplineSet
Colour: ff00
EndChar

StartChar: underscore
Encoding: 95 95 298
Width: 666
VWidth: 1819
Flags: HMW
LayerCount: 2
Fore
SplineSet
666 150 m 1
 666 0 l 1
 0 0 l 1
 0 150 l 1
 666 150 l 1
EndSplineSet
Colour: ffff
EndChar

StartChar: grave
Encoding: 96 96 299
Width: 524
VWidth: 1819
Flags: HMW
LayerCount: 2
Fore
SplineSet
399 1191 m 1
 323 1143 l 1
 125 1459 l 1
 201 1507 l 1
 399 1191 l 1
EndSplineSet
Colour: ff00
EndChar

StartChar: a
Encoding: 97 97 300
Width: 1056
VWidth: 1819
Flags: HMW
LayerCount: 2
Fore
SplineSet
761 376 m 2
 761 489 l 1
 723 495 679 499 635 499 c 0
 460 499 271 432 271 270 c 0
 271 171 350 130 463 130 c 0
 598 130 761 220 761 376 c 2
295 731 m 1
 145 731 l 1
 145 940 345 1043 527 1043 c 0
 710 1043 911 940 911 731 c 2
 911 322 l 2
 911 189 927 84 947 16 c 1
 801 -16 l 1
 787 31 776 89 769 156 c 1
 681 53 540 0 433 0 c 0
 257 0 126 99 126 268 c 0
 126 521 394 609 635 609 c 0
 678 609 721 606 761 601 c 1
 761 731 l 2
 761 852 654 913 527 913 c 0
 401 913 295 852 295 731 c 1
EndSplineSet
Colour: ffff00
EndChar

StartChar: b
Encoding: 98 98 301
Width: 1158
VWidth: 1819
Flags: HMW
LayerCount: 2
Fore
SplineSet
295 521 m 0
 295 286 407 130 614 130 c 0
 821 130 933 286 933 521 c 0
 933 756 821 913 614 913 c 0
 407 913 295 756 295 521 c 0
295 0 m 1
 145 0 l 1
 145 1411 l 1
 295 1411 l 1
 295 855 l 1
 367 967 482 1043 644 1043 c 0
 973 1043 1083 782 1083 521 c 0
 1083 260 973 0 644 0 c 0
 482 0 367 77 295 188 c 1
 295 0 l 1
EndSplineSet
Colour: ffff00
EndChar

StartChar: c
Encoding: 99 99 302
Width: 1074
VWidth: 1819
Flags: HMW
LayerCount: 2
Fore
SplineSet
942 820 m 1
 806 764 l 1
 754 858 671 913 544 913 c 0
 337 913 225 756 225 521 c 0
 225 286 337 130 544 130 c 0
 672 130 754 185 806 281 c 1
 942 225 l 1
 870 95 734 0 544 0 c 0
 215 0 75 260 75 521 c 0
 75 782 215 1043 544 1043 c 0
 733 1043 870 950 942 820 c 1
EndSplineSet
Colour: ffff00
EndChar

StartChar: d
Encoding: 100 100 303
Width: 1158
VWidth: 1819
Flags: HMW
LayerCount: 2
Fore
SplineSet
863 522 m 0
 863 757 751 913 544 913 c 0
 337 913 225 757 225 522 c 0
 225 287 337 130 544 130 c 0
 751 130 863 287 863 522 c 0
1013 0 m 1
 863 0 l 1
 863 188 l 1
 791 76 676 0 514 0 c 0
 185 0 75 261 75 522 c 0
 75 783 185 1043 514 1043 c 0
 676 1043 791 966 863 855 c 1
 863 1411 l 1
 1013 1411 l 1
 1013 0 l 1
EndSplineSet
Colour: ffff00
EndChar

StartChar: e
Encoding: 101 101 304
Width: 1095
VWidth: 1819
Flags: HMW
LayerCount: 2
Fore
SplineSet
228 456 m 1
 251 238 382 130 570 130 c 0
 661 130 771 155 895 211 c 1
 965 95 l 1
 825 31 691 0 570 0 c 0
 264 0 75 216 75 521 c 0
 75 782 215 1043 544 1043 c 0
 872 1043 1020 783 1020 521 c 2
 1020 456 l 1
 756 456 492 456 228 456 c 1
228 586 m 1
 867 586 l 1
 845 786 733 913 544 913 c 0
 356 913 249 787 228 586 c 1
EndSplineSet
Colour: ffff00
EndChar

StartChar: f
Encoding: 102 102 305
Width: 784
VWidth: 1819
Flags: HMW
LayerCount: 2
Fore
SplineSet
683 1411 m 1
 683 1281 l 1
 496 1281 l 2
 449 1281 395 1240 395 1171 c 2
 395 1033 l 1
 684 1033 l 1
 684 923 l 1
 395 923 l 1
 395 0 l 1
 245 0 l 1
 245 923 l 1
 100 923 l 1
 100 1033 l 1
 245 1033 l 1
 245 1171 l 2
 245 1296 349 1411 496 1411 c 2
 683 1411 l 1
EndSplineSet
Colour: ffff00
EndChar

StartChar: g
Encoding: 103 103 306
Width: 1158
VWidth: 1819
Flags: HMW
LayerCount: 2
Fore
SplineSet
863 522 m 0
 863 757 751 913 544 913 c 0
 337 913 225 757 225 522 c 0
 225 287 337 130 544 130 c 0
 751 130 863 287 863 522 c 0
863 1043 m 1
 1013 1043 l 1
 1013 82 l 2
 1013 -265 782 -419 517 -419 c 0
 375 -419 229 -376 99 -302 c 1
 181 -194 l 1
 289 -256 411 -289 517 -289 c 0
 704 -289 863 -205 863 82 c 2
 863 188 l 1
 791 76 676 0 514 0 c 0
 185 0 75 261 75 522 c 0
 75 783 185 1043 514 1043 c 0
 676 1043 791 966 863 855 c 1
 863 1043 l 1
EndSplineSet
Colour: ffff00
EndChar

StartChar: h
Encoding: 104 104 307
Width: 1108
VWidth: 1819
Flags: HMW
LayerCount: 2
Fore
SplineSet
295 0 m 1
 145 0 l 1
 145 1411 l 1
 295 1411 l 1
 295 886 l 1
 373 983 494 1043 634 1043 c 0
 927 1043 963 811 963 677 c 2
 963 0 l 1
 813 0 l 1
 813 677 l 2
 813 795 769 913 604 913 c 0
 418 913 295 804 295 623 c 2
 295 0 l 1
EndSplineSet
Colour: ffff00
EndChar

StartChar: k
Encoding: 107 107 310
Width: 1000
VWidth: 1819
Flags: HMW
LayerCount: 2
Fore
SplineSet
782 1043 m 1
 973 1043 l 1
 498 521 l 1
 938 0 l 1
 754 0 l 1
 402 415 l 1
 295 297 l 1
 295 0 l 1
 145 0 l 1
 145 1411 l 1
 295 1411 l 1
 295 508 l 1
 782 1043 l 1
EndSplineSet
Colour: ffff00
EndChar

StartChar: l
Encoding: 108 108 311
Width: 440
VWidth: 1819
Flags: HMW
LayerCount: 2
Fore
SplineSet
295 0 m 1
 145 0 l 1
 145 1411 l 1
 295 1411 l 1
 295 0 l 1
EndSplineSet
Colour: ffff00
EndChar

StartChar: m
Encoding: 109 109 312
Width: 1576
VWidth: 1819
Flags: HMW
LayerCount: 2
Fore
SplineSet
145 1043 m 1
 295 1043 l 1
 295 906 l 1
 364 985 467 1043 584 1043 c 0
 739 1043 808 965 839 876 c 1
 907 970 1021 1043 1152 1043 c 0
 1417 1043 1431 818 1431 692 c 2
 1431 0 l 1
 1281 0 l 1
 1281 692 l 2
 1281 818 1245 913 1122 913 c 0
 976 913 863 784 863 692 c 2
 863 0 l 1
 713 0 l 1
 713 692 l 2
 713 818 677 913 554 913 c 0
 408 913 295 784 295 692 c 2
 295 0 l 1
 145 0 l 1
 145 1043 l 1
EndSplineSet
Colour: ffff00
EndChar

StartChar: n
Encoding: 110 110 313
Width: 1108
VWidth: 1819
Flags: HMW
LayerCount: 2
Fore
SplineSet
295 0 m 1
 145 0 l 1
 145 1043 l 1
 295 1043 l 1
 295 886 l 1
 373 983 494 1043 634 1043 c 0
 927 1043 963 811 963 677 c 2
 963 0 l 1
 813 0 l 1
 813 677 l 2
 813 795 769 913 604 913 c 0
 418 913 295 804 295 623 c 2
 295 0 l 1
EndSplineSet
Colour: ffff00
EndChar

StartChar: o
Encoding: 111 111 314
Width: 1088
VWidth: 1819
Flags: HMW
LayerCount: 2
Fore
SplineSet
544 1043 m 0
 873 1043 1013 782 1013 521 c 0
 1013 260 873 0 544 0 c 0
 215 0 75 260 75 521 c 0
 75 782 215 1043 544 1043 c 0
544 913 m 0
 337 913 225 756 225 521 c 0
 225 286 337 130 544 130 c 0
 751 130 863 286 863 521 c 0
 863 756 751 913 544 913 c 0
EndSplineSet
Colour: ffff00
EndChar

StartChar: p
Encoding: 112 112 315
Width: 1158
VWidth: 1819
Flags: HMW
LayerCount: 2
Fore
SplineSet
295 521 m 0
 295 286 407 130 614 130 c 0
 821 130 933 286 933 521 c 0
 933 756 821 913 614 913 c 0
 407 913 295 756 295 521 c 0
145 1043 m 1
 295 1043 l 1
 295 855 l 1
 367 967 482 1043 644 1043 c 0
 973 1043 1083 782 1083 521 c 0
 1083 260 973 0 644 0 c 0
 482 0 367 77 295 188 c 1
 295 -419 l 1
 145 -419 l 1
 145 1043 l 1
EndSplineSet
Colour: ffff00
EndChar

StartChar: q
Encoding: 113 113 316
Width: 1158
VWidth: 1819
Flags: HMW
LayerCount: 2
Fore
SplineSet
863 522 m 0
 863 757 751 913 544 913 c 0
 337 913 225 757 225 522 c 0
 225 287 337 130 544 130 c 0
 751 130 863 287 863 522 c 0
863 1043 m 1
 1013 1043 l 1
 1013 -419 l 1
 863 -419 l 1
 863 188 l 1
 791 76 676 0 514 0 c 0
 185 0 75 261 75 522 c 0
 75 783 185 1043 514 1043 c 0
 676 1043 791 966 863 855 c 1
 863 1043 l 1
EndSplineSet
Colour: ffff00
EndChar

StartChar: r
Encoding: 114 114 317
Width: 774
VWidth: 1819
Flags: HMW
LayerCount: 2
Fore
SplineSet
145 1043 m 1
 295 1043 l 1
 295 857 l 1
 364 965 475 1043 631 1043 c 2
 674 1043 l 1
 674 913 l 1
 601 913 l 2
 405 913 295 747 295 531 c 2
 295 0 l 1
 145 0 l 1
 145 1043 l 1
EndSplineSet
Colour: ffff00
EndChar

StartChar: s
Encoding: 115 115 318
Width: 959
VWidth: 1819
Flags: HMW
LayerCount: 2
Fore
SplineSet
867 734 m 1
 717 734 l 1
 717 862 613 913 479 913 c 0
 345 913 240 862 240 734 c 0
 240 643 317 626 488 604 c 0
 641 585 884 551 884 322 c 0
 884 94 666 0 479 0 c 0
 292 0 75 94 75 322 c 1
 225 322 l 1
 225 186 338 130 479 130 c 0
 620 130 734 186 734 322 c 0
 734 435 641 455 466 476 c 0
 321 494 90 523 90 734 c 0
 90 954 299 1043 479 1043 c 0
 659 1043 867 954 867 734 c 1
EndSplineSet
Colour: ffff00
EndChar

StartChar: t
Encoding: 116 116 319
Width: 784
VWidth: 1819
Flags: HMW
LayerCount: 2
Fore
SplineSet
656 130 m 1
 656 0 l 1
 496 0 l 2
 349 0 245 115 245 240 c 2
 245 923 l 1
 100 923 l 1
 100 1033 l 1
 245 1033 l 1
 245 1279 l 1
 395 1279 l 1
 395 1033 l 1
 684 1033 l 1
 684 923 l 1
 395 923 l 1
 395 240 l 2
 395 171 449 130 496 130 c 2
 656 130 l 1
EndSplineSet
Colour: ffff00
EndChar

StartChar: u
Encoding: 117 117 320
Width: 1108
VWidth: 1819
Flags: HMW
LayerCount: 2
Fore
SplineSet
813 1043 m 1
 963 1043 l 1
 963 0 l 1
 813 0 l 1
 813 157 l 1
 735 60 614 0 474 0 c 0
 181 0 145 232 145 366 c 2
 145 1043 l 1
 295 1043 l 1
 295 366 l 2
 295 248 339 130 504 130 c 0
 690 130 813 239 813 420 c 2
 813 1043 l 1
EndSplineSet
Colour: ffff00
EndChar

StartChar: v
Encoding: 118 118 321
Width: 1041
VWidth: 1819
Flags: HMW
LayerCount: 2
Fore
SplineSet
854 1043 m 1
 1012 1043 l 1
 599 -0 l 1
 445 0 l 1
 29 1043 l 1
 187 1043 l 1
 521 175 l 1
 854 1043 l 1
EndSplineSet
Colour: ffff00
EndChar

StartChar: w
Encoding: 119 119 322
Width: 1459
VWidth: 1819
Flags: HMW
LayerCount: 2
Fore
SplineSet
1270 1043 m 1
 1425 1042 l 1
 1121 0 l 1
 957 0 l 1
 730 821 l 1
 503 -0 l 1
 339 0 l 1
 34 1043 l 1
 189 1043 l 1
 420 221 l 1
 647 1043 l 1
 812 1043 l 1
 1040 221 l 1
 1270 1043 l 1
EndSplineSet
Colour: ffff00
EndChar

StartChar: x
Encoding: 120 120 323
Width: 1127
VWidth: 1819
Flags: HMW
LayerCount: 2
Fore
SplineSet
909 1043 m 1
 1093 1043 l 1
 655 506 l 1
 1069 0 l 1
 885 0 l 1
 564 424 l 1
 242 0 l 1
 58 0 l 1
 472 506 l 1
 34 1043 l 1
 218 1043 l 1
 564 589 l 1
 909 1043 l 1
EndSplineSet
Colour: ffff00
EndChar

StartChar: y
Encoding: 121 121 324
Width: 1057
VWidth: 1819
Flags: HMW
LayerCount: 2
Fore
SplineSet
870 1043 m 1
 1028 1043 l 1
 636 44 l 2
 551 -173 454 -419 154 -419 c 2
 100 -419 l 1
 100 -289 l 1
 154 -289 l 2
 311 -289 384 -182 462 5 c 1
 47 1043 l 1
 205 1043 l 1
 541 175 l 1
 870 1043 l 1
EndSplineSet
Colour: ffff00
EndChar

StartChar: z
Encoding: 122 122 325
Width: 1021
VWidth: 1819
Flags: HMW
LayerCount: 2
Fore
SplineSet
100 913 m 1
 100 1043 l 1
 931 1043 l 1
 931 910 l 1
 242 130 l 1
 921 130 l 1
 921 0 l 1
 90 0 l 1
 90 134 l 1
 778 913 l 1
 100 913 l 1
EndSplineSet
Colour: ffff00
EndChar

StartChar: bar
Encoding: 124 124 326
Width: 440
VWidth: 1819
Flags: HMW
LayerCount: 2
Fore
SplineSet
145 1411 m 1
 295 1411 l 1
 295 -419 l 1
 145 -419 l 1
 145 1411 l 1
EndSplineSet
Colour: ffff
EndChar

StartChar: asciitilde
Encoding: 126 126 327
Width: 868
VWidth: 1819
Flags: HMW
LayerCount: 2
Fore
SplineSet
714 1360 m 1
 796 1324 l 1
 743 1201 660 1139 581 1139 c 0
 516 1139 464 1163 407 1206 c 0
 354 1246 332 1254 288 1254 c 0
 256 1254 200 1233 156 1129 c 1
 73 1165 l 1
 127 1291 212 1344 288 1344 c 0
 352 1344 402 1322 461 1278 c 0
 512 1239 538 1229 581 1229 c 0
 610 1229 669 1255 714 1360 c 1
EndSplineSet
Colour: ff00
EndChar

StartChar: cent
Encoding: 162 162 329
Width: 1074
VWidth: 1819
Flags: HMW
LayerCount: 2
Fore
SplineSet
619 -364 m 1
 469 -364 l 1
 469 65 l 1
 619 65 l 1
 619 -364 l 1
619 978 m 1
 469 978 l 1
 469 1411 l 1
 619 1411 l 1
 619 978 l 1
EndSplineSet
Refer: 302 99 N 1 0 0 1 0 0 2
Colour: ffff00
EndChar

StartChar: sterling
Encoding: 163 163 330
Width: 1254
VWidth: 1819
Flags: HMW
LayerCount: 2
Fore
SplineSet
120 130 m 1
 228 130 282 168 282 282 c 2
 282 463 l 1
 120 463 l 1
 120 573 l 1
 282 573 l 1
 282 1108 l 2
 282 1267 411 1411 594 1411 c 0
 755 1411 877 1298 902 1163 c 1
 754 1143 l 1
 739 1228 667 1281 594 1281 c 0
 513 1281 432 1213 432 1108 c 2
 432 573 l 1
 704 573 l 1
 704 463 l 1
 432 463 l 1
 432 282 l 2
 432 227 421 175 394 130 c 1
 1134 130 l 1
 1134 0 l 1
 120 0 l 1
 120 130 l 1
EndSplineSet
Colour: ffff00
EndChar

StartChar: currency
Encoding: 164 164 331
Width: 1263
VWidth: 1819
Flags: HMW
LayerCount: 2
Fore
SplineSet
853 138 m 1
 973 216 l 1
 1203 -47 l 1
 1083 -125 l 1
 853 138 l 1
973 825 m 1
 853 903 l 1
 1083 1166 l 1
 1203 1088 l 1
 973 825 l 1
290 216 m 1
 410 138 l 1
 180 -125 l 1
 60 -47 l 1
 290 216 l 1
410 903 m 1
 290 825 l 1
 60 1088 l 1
 180 1166 l 1
 410 903 l 1
EndSplineSet
Refer: 314 111 N 1 0 0 1 88 0 2
Colour: ffff00
EndChar

StartChar: yen
Encoding: 165 165 332
Width: 1186
VWidth: 1819
Flags: HMW
LayerCount: 2
Fore
SplineSet
256 290 m 1
 256 400 l 1
 930 400 l 1
 930 290 l 1
 256 290 l 1
256 616 m 1
 256 726 l 1
 930 726 l 1
 930 616 l 1
 256 616 l 1
EndSplineSet
Refer: 292 89 N 1 0 0 1 0 0 2
EndChar

StartChar: brokenbar
Encoding: 166 166 333
Width: 440
VWidth: 1819
Flags: HMW
LayerCount: 2
Fore
SplineSet
295 0 m 1
 145 0 l 1
 145 519 l 1
 295 519 l 1
 295 0 l 1
295 875 m 1
 145 875 l 1
 145 1411 l 1
 295 1411 l 1
 295 875 l 1
EndSplineSet
Colour: ffff
EndChar

StartChar: section
Encoding: 167 167 334
Width: 952
VWidth: 1819
Flags: HMW
LayerCount: 2
Fore
SplineSet
470 877 m 1
 336 875 225 814 225 682 c 0
 225 581 309 557 482 533 c 1
 621 534 727 588 727 718 c 0
 727 826 642 851 470 877 c 1
77 276 m 1
 227 276 l 1
 227 143 337 87 476 87 c 0
 616 87 727 143 727 276 c 0
 727 351 638 380 464 404 c 0
 307 426 75 465 75 682 c 0
 75 801 135 885 219 938 c 1
 138 975 75 1034 75 1136 c 0
 75 1361 290 1454 476 1454 c 0
 662 1454 876 1361 876 1136 c 1
 726 1136 l 1
 726 1269 616 1324 476 1324 c 0
 336 1324 225 1269 225 1136 c 0
 225 1061 315 1032 489 1006 c 0
 649 982 877 938 877 718 c 0
 877 602 820 521 739 471 c 1
 817 435 877 376 877 276 c 0
 877 51 662 -43 476 -43 c 0
 289 -43 77 51 77 276 c 1
EndSplineSet
Colour: ffff00
EndChar

StartChar: copyright
Encoding: 169 169 336
Width: 1670
VWidth: 1819
Flags: HMW
LayerCount: 2
Fore
SplineSet
1040 551 m 1
 1162 475 l 1
 1084 380 962 324 835 324 c 0
 587 324 420 520 420 729 c 0
 420 938 587 1135 835 1135 c 0
 962 1135 1084 1079 1162 984 c 1
 1040 908 l 1
 988 971 910 1005 835 1005 c 0
 691 1005 570 886 570 729 c 0
 570 572 691 454 835 454 c 0
 910 454 988 488 1040 551 c 1
75 728 m 0
 75 1134 407 1476 835 1476 c 0
 1263 1476 1595 1134 1595 728 c 0
 1595 322 1263 -21 835 -21 c 0
 407 -21 75 322 75 728 c 0
225 728 m 0
 225 378 507 109 835 109 c 0
 1163 109 1445 378 1445 728 c 0
 1445 1078 1163 1346 835 1346 c 0
 507 1346 225 1078 225 728 c 0
EndSplineSet
Colour: ffff00
EndChar

StartChar: ordfeminine
Encoding: 170 170 337
Width: 747
VWidth: 1819
Flags: HMW
LayerCount: 2
Fore
SplineSet
495 1060 m 1
 495 1152 l 1
 464 1156 441 1158 411 1158 c 0
 260 1158 195 1114 195 1031 c 0
 195 981 229 939 310 939 c 0
 400 939 461 977 495 1060 c 1
625 928 m 1
 569 858 l 1
 548 875 529 899 516 931 c 1
 464 878 392 849 310 849 c 0
 191 849 105 925 105 1031 c 0
 105 1192 252 1248 411 1248 c 0
 441 1248 467 1246 495 1243 c 1
 495 1307 l 2
 495 1376 438 1410 350 1410 c 0
 263 1410 208 1377 208 1307 c 1
 118 1307 l 1
 118 1449 245 1500 350 1500 c 0
 454 1500 585 1450 585 1307 c 2
 585 1052 l 2
 585 969 608 941 625 928 c 1
EndSplineSet
Colour: ff00
EndChar

StartChar: logicalnot
Encoding: 172 172 338
Width: 1073
VWidth: 1819
Flags: HMW
LayerCount: 2
Fore
SplineSet
100 445 m 1
 100 575 l 1
 928 575 l 1
 928 238 l 1
 778 238 l 1
 778 445 l 1
 100 445 l 1
EndSplineSet
Colour: ffff00
EndChar

StartChar: registered
Encoding: 174 174 340
Width: 1670
VWidth: 1819
Flags: HMW
LayerCount: 2
Fore
SplineSet
75 728 m 0
 75 1134 407 1476 835 1476 c 0
 1263 1476 1595 1134 1595 728 c 0
 1595 322 1263 -21 835 -21 c 0
 407 -21 75 322 75 728 c 0
225 728 m 0
 225 378 507 109 835 109 c 0
 1163 109 1445 378 1445 728 c 0
 1445 1078 1163 1346 835 1346 c 0
 507 1346 225 1078 225 728 c 0
695 700 m 1
 866 700 l 2
 965 700 1042 758 1042 854 c 0
 1042 950 965 1010 866 1010 c 2
 695 1010 l 1
 695 700 l 1
1165 383 m 1
 1043 307 l 1
 827 570 l 1
 695 570 l 1
 695 345 l 1
 545 345 l 1
 545 1140 l 1
 866 1140 l 2
 1045 1140 1192 1020 1192 854 c 0
 1192 729 1109 633 994 592 c 1
 1165 383 l 1
EndSplineSet
Colour: ffff00
EndChar

StartChar: degree
Encoding: 176 176 342
Width: 646
VWidth: 1819
Flags: HMW
LayerCount: 2
Fore
SplineSet
560 1428 m 0
 560 1296 455 1191 323 1191 c 0
 191 1191 86 1296 86 1428 c 0
 86 1560 191 1665 323 1665 c 0
 455 1665 560 1560 560 1428 c 0
470 1428 m 0
 470 1510 405 1575 323 1575 c 0
 241 1575 176 1510 176 1428 c 0
 176 1346 241 1281 323 1281 c 0
 405 1281 470 1346 470 1428 c 0
EndSplineSet
Colour: ff00
EndChar

StartChar: uni00B2
Encoding: 178 178 344
Width: 658
VWidth: 1819
Flags: HMW
LayerCount: 2
Fore
SplineSet
234 964 m 1
 508 964 l 1
 508 874 l 1
 105 874 l 1
 105 964 l 1
 381 1211 l 2
 409 1239 423 1255 423 1303 c 0
 423 1377 372 1410 309 1410 c 0
 246 1410 195 1377 195 1303 c 1
 105 1303 l 1
 105 1435 212 1500 309 1500 c 0
 406 1500 513 1435 513 1303 c 0
 513 1227 479 1181 445 1147 c 2
 234 964 l 1
EndSplineSet
Colour: ff00
EndChar

StartChar: uni00B3
Encoding: 179 179 345
Width: 606
VWidth: 1819
Flags: HMW
LayerCount: 2
Fore
SplineSet
195 1321 m 1
 105 1321 l 1
 105 1426 200 1500 303 1500 c 0
 406 1500 501 1426 501 1321 c 0
 501 1266 475 1219 435 1187 c 1
 474 1156 501 1108 501 1053 c 0
 501 948 406 874 303 874 c 0
 200 874 105 948 105 1053 c 1
 195 1053 l 1
 195 1008 238 964 303 964 c 0
 368 964 411 1008 411 1053 c 0
 411 1098 368 1142 303 1142 c 2
 242 1142 l 1
 242 1232 l 1
 303 1232 l 2
 368 1232 411 1276 411 1321 c 0
 411 1366 368 1410 303 1410 c 0
 238 1410 195 1366 195 1321 c 1
EndSplineSet
Colour: ff00
EndChar

StartChar: acute
Encoding: 180 180 346
Width: 517
VWidth: 1819
Flags: HMW
LayerCount: 2
Fore
SplineSet
319 1507 m 1
 395 1459 l 1
 198 1143 l 1
 122 1191 l 1
 319 1507 l 1
EndSplineSet
Colour: ff00
EndChar

StartChar: mu
Encoding: 181 181 347
Width: 1108
VWidth: 1819
Flags: HMW
LayerCount: 2
Fore
SplineSet
813 1043 m 1
 963 1043 l 1
 963 0 l 1
 813 0 l 1
 813 157 l 1
 735 60 614 0 474 0 c 0
 399 0 340 16 295 41 c 1
 295 -787 l 1
 145 -787 l 1
 145 1043 l 1
 295 1043 l 1
 295 366 l 2
 295 248 339 130 504 130 c 0
 690 130 813 239 813 420 c 2
 813 1043 l 1
EndSplineSet
EndChar

StartChar: paragraph
Encoding: 182 182 348
Width: 1236
VWidth: 1819
Flags: HMW
LayerCount: 2
Fore
SplineSet
683 1281 m 1
 516 1281 l 2
 369 1281 225 1157 225 951 c 0
 225 746 369 622 516 622 c 2
 683 622 l 1
 683 1281 l 1
1091 -419 m 1
 956 -419 l 1
 956 1281 l 1
 818 1281 l 1
 818 -419 l 1
 683 -419 l 1
 683 492 l 1
 516 492 l 2
 263 492 75 696 75 951 c 0
 75 1205 263 1411 516 1411 c 2
 1091 1411 l 1
 1091 -419 l 1
EndSplineSet
Colour: ffff00
EndChar

StartChar: cedilla
Encoding: 184 184 350
Width: 723
VWidth: 1819
Flags: HMW
LayerCount: 2
Fore
SplineSet
219 -356 m 1
 235 -388 275 -408 334 -408 c 0
 426 -408 498 -359 498 -299 c 0
 498 -149 415 -96 319 -60 c 1
 339 -20 359 20 379 60 c 1
 505 12 648 -89 648 -299 c 0
 648 -459 474 -538 334 -538 c 0
 237 -538 127 -500 81 -406 c 1
 219 -356 l 1
EndSplineSet
Colour: ffff00
EndChar

StartChar: uni00B9
Encoding: 185 185 351
Width: 457
VWidth: 1819
Flags: HMW
LayerCount: 2
Fore
SplineSet
89 1268 m 1
 89 1298 89 1328 89 1358 c 1
 234 1358 l 1
 235 1455 l 1
 325 1455 l 1
 325 829 l 1
 235 829 l 1
 235 1268 l 1
 89 1268 l 1
EndSplineSet
Colour: ff00
EndChar

StartChar: onequarter
Encoding: 188 188 353
Width: 1965
VWidth: 1819
Flags: HMW
LayerCount: 2
Fore
SplineSet
150 1236 m 1
 150 1366 l 1
 182 1366 l 2
 365 1366 396 1390 396 1590 c 1
 546 1590 l 1
 546 530 l 1
 396 530 l 1
 396 1272 l 1
 336 1244 265 1236 182 1236 c 2
 150 1236 l 1
1815 1 m 1
 1815 -129 l 1
 1694 -129 l 1
 1694 -358 l 1
 1544 -358 l 1
 1544 -129 l 1
 1030 -129 l 1
 1030 -11 l 1
 1537 765 l 1
 1694 765 l 1
 1694 1 l 1
 1815 1 l 1
1544 1 m 1
 1544 522 l 1
 1200 1 l 1
 1544 1 l 1
630 8 m 1
 504 80 l 1
 1534 1447 l 1
 1660 1375 l 1
 630 8 l 1
EndSplineSet
Colour: ffff00
EndChar

StartChar: onehalf
Encoding: 189 189 354
Width: 2096
VWidth: 1819
Flags: HMW
LayerCount: 2
Fore
SplineSet
150 1236 m 1
 150 1366 l 1
 182 1366 l 2
 365 1366 396 1390 396 1590 c 1
 546 1590 l 1
 546 530 l 1
 396 530 l 1
 396 1272 l 1
 336 1244 265 1236 182 1236 c 2
 150 1236 l 1
627 8 m 1
 501 80 l 1
 1532 1447 l 1
 1658 1375 l 1
 627 8 l 1
1946 -253 m 1
 1946 -383 l 1
 1244 -383 l 1
 1244 -256 l 1
 1740 213 l 2
 1797 266 1831 310 1831 418 c 0
 1831 579 1719 642 1612 642 c 0
 1505 642 1395 580 1395 418 c 1
 1245 418 l 1
 1245 646 1425 772 1612 772 c 0
 1799 772 1981 647 1981 418 c 0
 1981 278 1921 192 1850 125 c 2
 1450 -253 l 1
 1946 -253 l 1
EndSplineSet
Colour: ffff00
EndChar

StartChar: threequarters
Encoding: 190 190 355
Width: 2140
VWidth: 2047
Flags: HMW
LayerCount: 2
Fore
SplineSet
1990 1 m 1
 1990 -129 l 1
 1869 -129 l 1
 1869 -358 l 1
 1719 -358 l 1
 1719 -129 l 1
 1205 -129 l 1
 1205 -11 l 1
 1713 765 l 1
 1869 765 l 1
 1869 1 l 1
 1990 1 l 1
1719 1 m 1
 1719 520 l 1
 1375 1 l 1
 1719 1 l 1
805 8 m 1
 679 80 l 1
 1710 1447 l 1
 1836 1375 l 1
 805 8 l 1
75 819 m 1
 225 819 l 1
 225 657 336 595 443 595 c 0
 561 595 660 680 660 782 c 0
 660 931 574 977 426 977 c 2
 340 977 l 1
 340 1107 l 1
 426 1107 l 2
 574 1107 660 1153 660 1303 c 0
 660 1405 561 1490 443 1490 c 0
 337 1490 225 1427 225 1265 c 1
 75 1265 l 1
 75 1493 255 1620 443 1620 c 0
 643 1620 810 1479 810 1303 c 0
 810 1188 765 1098 681 1042 c 1
 764 987 810 897 810 782 c 0
 810 606 643 465 443 465 c 0
 256 465 75 591 75 819 c 1
EndSplineSet
Colour: ffff00
EndChar

StartChar: AE
Encoding: 198 198 363
Width: 1904
VWidth: 1819
Flags: HMW
LayerCount: 2
Fore
SplineSet
845 1281 m 1
 826 1281 l 1
 438 485 l 1
 845 485 l 1
 845 1281 l 1
1754 130 m 1
 1754 0 l 1
 845 0 l 1
 845 355 l 1
 374 355 l 1
 201 0 l 1
 39 0 l 1
 726 1411 l 1
 1754 1411 l 1
 1754 1281 l 1
 995 1281 l 1
 995 758 l 1
 1754 758 l 1
 1754 628 l 1
 995 628 l 1
 995 130 l 1
 1754 130 l 1
EndSplineSet
Colour: ffff00
EndChar

StartChar: Oslash
Encoding: 216 216 381
Width: 1762
VWidth: 1819
Flags: HMW
LayerCount: 2
Fore
SplineSet
1574 1451 m 1
 1650 1371 l 1
 188 -40 l 1
 112 40 l 1
 1574 1451 l 1
EndSplineSet
Refer: 282 79 N 1 0 0 1 150 0 2
EndChar

StartChar: Thorn
Encoding: 222 222 387
Width: 1079
VWidth: 1819
Flags: HMW
LayerCount: 2
Fore
SplineSet
275 436 m 1
 537 436 l 2
 716 436 854 518 854 707 c 0
 854 896 716 978 537 978 c 2
 275 978 l 1
 275 436 l 1
275 0 m 1
 125 0 l 1
 125 1411 l 1
 275 1411 l 1
 275 1108 l 1
 537 1108 l 2
 780 1108 1004 974 1004 707 c 0
 1004 440 780 306 537 306 c 2
 275 306 l 1
 275 0 l 1
EndSplineSet
Colour: ffff00
EndChar

StartChar: germandbls
Encoding: 223 223 388
Width: 1099
VWidth: 1819
Flags: HMW
LayerCount: 2
Fore
SplineSet
517 0 m 1
 517 130 l 1
 819 130 874 148 874 251 c 0
 874 333 823 380 750 432 c 0
 678 484 579 557 579 690 c 0
 579 811 641 875 687 917 c 0
 718 945 740 971 740 1032 c 0
 740 1187 661 1281 507 1281 c 0
 348 1281 275 1188 275 1032 c 2
 275 0 l 1
 225 0 175 0 125 0 c 1
 125 1032 l 2
 125 1226 242 1411 507 1411 c 0
 765 1411 890 1227 890 1032 c 0
 890 935 845 867 795 827 c 0
 754 794 729 773 729 690 c 0
 729 619 772 585 846 532 c 0
 925 476 1024 391 1024 251 c 0
 1024 20 789 0 517 0 c 1
EndSplineSet
Colour: ffff00
EndChar

StartChar: ae
Encoding: 230 230 395
Width: 1830
VWidth: 1819
Flags: HMW
LayerCount: 2
Fore
SplineSet
761 489 m 1
 723 495 679 499 635 499 c 0
 460 499 271 432 271 270 c 0
 271 171 350 130 463 130 c 0
 598 130 761 220 761 376 c 2
 761 489 l 1
913 456 m 1
 936 238 1067 130 1255 130 c 0
 1346 130 1456 155 1580 211 c 1
 1650 95 l 1
 1510 31 1376 0 1255 0 c 0
 1054 0 904 93 824 243 c 1
 755 83 567 0 433 0 c 0
 257 0 126 99 126 268 c 0
 126 521 394 609 635 609 c 0
 678 609 721 606 761 601 c 1
 761 731 l 2
 761 852 654 913 527 913 c 0
 401 913 295 852 295 731 c 1
 145 731 l 1
 145 940 345 1043 527 1043 c 0
 660 1043 802 989 870 879 c 1
 946 977 1064 1043 1229 1043 c 0
 1557 1043 1705 783 1705 521 c 2
 1705 456 l 1
 1441 456 1177 456 913 456 c 1
913 586 m 1
 1552 586 l 1
 1530 786 1418 913 1229 913 c 0
 1041 913 934 787 913 586 c 1
EndSplineSet
EndChar

StartChar: eth
Encoding: 240 240 405
Width: 1088
VWidth: 1819
Flags: HMW
LayerCount: 2
Fore
SplineSet
355 1099 m 1
 740 1411 l 1025
257 1411 m 0
 623 1343 929 837 937 555 c 1024
EndSplineSet
Refer: 314 111 N 1 0 0 1 0 0 2
EndChar

StartChar: oslash
Encoding: 248 248 413
Width: 1088
VWidth: 1819
Flags: HMW
LayerCount: 2
Fore
SplineSet
193 -34 m 1
 107 34 l 1
 895 1047 l 1
 981 979 l 1
 193 -34 l 1
EndSplineSet
Refer: 314 111 N 1 0 0 1 0 0 2
EndChar

StartChar: thorn
Encoding: 254 254 419
Width: 1158
VWidth: 1819
Flags: HMW
LayerCount: 2
Fore
SplineSet
644 1043 m 0
 973 1043 1083 782 1083 521 c 0
 1083 260 973 0 644 0 c 0
 345 0 205 260 205 521 c 0
 205 782 345 1043 644 1043 c 0
614 913 m 0
 407 913 295 756 295 521 c 0
 295 286 407 130 614 130 c 0
 821 130 933 286 933 521 c 0
 933 756 821 913 614 913 c 0
EndSplineSet
Refer: 326 124 N 1 0 0 1 0 0 2
EndChar

StartChar: dotlessi
Encoding: 305 305 421
Width: 400
VWidth: 1819
Flags: HMW
LayerCount: 2
Fore
SplineSet
125 1043 m 1
 275 1043 l 1
 275 0 l 1
 125 0 l 1
 125 1043 l 1
EndSplineSet
Colour: ffff00
EndChar

StartChar: OE
Encoding: 338 338 422
Width: 1685
VWidth: 1819
Flags: HMW
LayerCount: 2
Fore
SplineSet
679 132 m 1
 679 1279 l 1
 379 1256 225 1033 225 706 c 0
 225 379 379 155 679 132 c 1
1535 1411 m 1
 1535 1281 l 1
 829 1281 l 1
 829 771 l 1
 1535 771 l 1
 1535 641 l 1
 829 641 l 1
 829 130 l 1
 1535 130 l 1
 1535 0 l 1
 731 0 l 2
 283 0 75 328 75 706 c 0
 75 1084 284 1411 731 1411 c 2
 1535 1411 l 1
EndSplineSet
Colour: ffff00
EndChar

StartChar: uniE007
Encoding: 57351 57351 429
Width: 425
VWidth: 1854
Flags: HMW
LayerCount: 2
Fore
SplineSet
537 1861 m 1
 651 1765 l 1
 553 1648 436 1605 330 1605 c 0
 262 1605 204 1624 155 1641 c 0
 108 1658 71 1669 31 1669 c 0
 0 1669 -79 1616 -136 1545 c 1
 -252 1639 l 1
 -190 1716 -92 1819 31 1819 c 0
 99 1819 156 1800 205 1783 c 0
 252 1766 290 1755 330 1755 c 0
 396 1755 465 1776 537 1861 c 1
EndSplineSet
Colour: ffff
EndChar

StartChar: uni0237
Encoding: 567 567 432
Width: 400
VWidth: 1819
Flags: HMW
LayerCount: 2
Fore
SplineSet
-55 -478 m 1
 -55 -348 l 1
 23 -348 l 2
 70 -348 125 -305 125 -238 c 2
 125 1043 l 1
 275 1043 l 1
 275 -238 l 2
 275 -363 170 -478 23 -478 c 2
 -55 -478 l 1
EndSplineSet
Colour: ffff00
EndChar

StartChar: quoteright
Encoding: 8217 8217 440
Width: 598
VWidth: 1854
Flags: HMW
LayerCount: 2
Fore
SplineSet
322 746 m 1
 256 794 l 1
 309 855 358 971 358 1066 c 0
 358 1177 120 1045 120 1231 c 0
 120 1330 169 1411 290 1411 c 0
 413 1411 478 1316 478 1179 c 0
 478 999 401 845 322 746 c 1
EndSplineSet
EndChar

StartChar: quoteleft
Encoding: 8216 8216 441
Width: 598
VWidth: 1854
Flags: HMW
LayerCount: 2
Fore
SplineSet
276 746 m 1
 197 845 120 999 120 1179 c 0
 120 1316 185 1411 308 1411 c 0
 429 1411 478 1330 478 1231 c 0
 478 1045 240 1177 240 1066 c 0
 240 971 289 855 342 794 c 1
 276 746 l 1
EndSplineSet
EndChar

